<svg width="27" height="24" viewBox="0 0 27 24" fill="none" xmlns="http://www.w3.org/2000/svg">
<path d="M24.8325 7.21201H20.8703L16.8404 0.285643C16.6824 0.013758 16.3296 -0.0804748 16.0524 0.0745201C15.7752 0.229515 15.6791 0.57555 15.8371 0.847435L19.54 7.21201H7.33897L11.0428 0.84692C11.2009 0.575035 11.1043 0.229 10.8276 0.0740051C10.5504 -0.0809897 10.1981 0.013758 10.0396 0.285128L6.00968 7.21149H2.0475C0.917175 7.21252 0.00105 8.11108 0 9.21973V9.88657C0.00105 10.9952 0.917175 11.8938 2.0475 11.8948H2.43442L3.59625 23.4422C3.62827 23.7584 3.89917 23.9993 4.2231 23.9993H22.6569C22.9808 23.9993 23.2517 23.7584 23.2837 23.4422L24.4456 11.8948H24.8325C25.9628 11.8938 26.8789 10.9952 26.88 9.88657V9.21973C26.8789 8.11108 25.9628 7.21252 24.8325 7.21149V7.21201ZM22.0862 22.764H4.79377L3.7002 11.8953H23.1793L22.0857 22.764H22.0862ZM25.62 9.88708C25.62 10.3134 25.2672 10.659 24.8325 10.6595H2.0475C1.6128 10.6595 1.26052 10.3134 1.26 9.88708V9.22025C1.26 8.79388 1.6128 8.44836 2.0475 8.44785H24.8325C25.2672 8.44785 25.6195 8.79388 25.62 9.22025V9.88708Z" fill="#2C2C2C" fill-opacity="0.760784"/>
<path d="M19.0186 21.6432C19.0312 21.6437 19.0438 21.6442 19.0558 21.6442C19.3892 21.6442 19.6648 21.3888 19.6843 21.0623L20.0985 14.1287C20.1174 13.7894 19.8538 13.499 19.5084 13.4779C19.1614 13.4567 18.8621 13.7158 18.8411 14.0566L18.4269 20.9902C18.4064 21.3311 18.6715 21.6231 19.0191 21.6432H19.0186Z" fill="#2C2C2C" fill-opacity="0.760784"/>
<path d="M13.4401 21.6442C13.7881 21.6442 14.0701 21.3677 14.0701 21.0263V14.0927C14.0701 13.7513 13.7881 13.4748 13.4401 13.4748C13.092 13.4748 12.8101 13.7513 12.8101 14.0927V21.0263C12.8101 21.3677 13.092 21.6442 13.4401 21.6442Z" fill="#2C2C2C" fill-opacity="0.760784"/>
<path d="M7.19574 21.0628C7.21517 21.3893 7.49079 21.6442 7.82417 21.6447C7.83677 21.6447 7.84937 21.6447 7.86144 21.6437C8.20899 21.6236 8.47359 21.3311 8.45364 20.9907L8.03942 14.0572C8.01789 13.7183 7.72179 13.4598 7.37582 13.4784C7.02827 13.4969 6.76209 13.7884 6.78152 14.1293L7.19574 21.0628Z" fill="#2C2C2C" fill-opacity="0.760784"/>
</svg>
