<svg width="129" height="123" viewBox="0 0 129 123" fill="none" xmlns="http://www.w3.org/2000/svg">
<path d="M11.9952 26.4629C12.3097 28.6169 12.4729 30.7857 12.464 32.9635C12.4551 35.1412 12.2474 37.2537 11.924 39.384C11.7876 40.2771 11.6659 41.1968 11.8439 42.0899C12.0041 42.8939 12.4403 43.5823 13.093 44.0777C14.348 45.0331 16.1431 45.2942 17.6799 45.1459C19.1842 45.0005 20.6914 44.4011 21.6349 43.1699C22.7119 41.7635 22.7683 39.9181 22.9493 38.2299C23.0383 37.4021 23.1688 36.5832 23.4418 35.794C23.6762 35.1145 23.9936 34.4707 24.3616 33.8566C25.1122 32.6075 26.0587 31.4889 27.0111 30.3882C28.8179 28.3054 30.88 26.1246 31.4674 23.3387C31.5386 23.0064 31.5831 22.6681 31.6039 22.3269C31.6187 22.1133 31.2924 22.1163 31.2716 22.3269C31.0135 25.1455 29.1769 27.3678 27.3968 29.4239C25.6166 31.48 23.6465 33.6014 22.9374 36.2984C22.5013 37.9599 22.6288 39.7163 22.1541 41.3659C21.9227 42.1611 21.5281 42.8999 20.9199 43.4725C20.3621 43.9947 19.6678 44.3537 18.9409 44.5703C17.4485 45.0153 15.7247 44.956 14.2739 44.3863C13.5054 44.0866 12.7993 43.5882 12.4047 42.8494C11.9596 42.0127 11.9863 41.0247 12.0902 40.1109C12.2 39.1377 12.375 38.1735 12.4759 37.1974C12.5827 36.1708 12.6539 35.1383 12.6806 34.1058C12.7399 32.023 12.6302 29.9372 12.3602 27.8722C12.2979 27.3856 12.2207 26.902 12.1347 26.4184C12.1199 26.3264 11.9834 26.365 11.9952 26.4569V26.4629Z" fill="black"/>
<path d="M25.8688 31.6432C29.0998 33.7765 30.073 37.9718 29.7288 41.6211C29.5003 44.0214 28.8031 46.3445 28.1326 48.6499C27.462 50.9552 26.8449 53.3199 26.5601 55.7379C26.2752 58.156 26.2841 60.7402 26.5482 63.2355C26.8123 65.7307 27.2365 68.1399 27.3493 70.6143C27.462 73.0888 27.109 75.578 26.3999 77.9961C25.6908 80.4142 24.8511 82.5742 24.0174 84.835C22.3945 89.238 20.6321 93.6261 18.1398 97.6196C17.8402 98.1003 17.5257 98.575 17.2052 99.0438C17.0806 99.2248 17.3743 99.3939 17.496 99.2129C20.1722 95.3054 22.0651 90.938 23.7355 86.5261C24.593 84.2564 25.4415 81.9778 26.21 79.6754C26.9784 77.3731 27.6104 74.9134 27.6846 72.4242C27.7587 69.9349 27.3671 67.321 27.0467 64.7902C26.7262 62.2564 26.5541 59.7226 26.7381 57.171C26.922 54.6194 27.4531 52.1509 28.1533 49.7002C28.8535 47.2495 29.5715 45.0153 29.9157 42.5943C30.4231 39.0161 29.8742 34.7615 27.0318 32.2218C26.7055 31.931 26.3554 31.6759 25.9845 31.4474C25.8599 31.3703 25.7471 31.5631 25.8688 31.6432Z" fill="black"/>
<path d="M29.263 105.969C29.2837 104.524 29.2837 103.082 29.3757 101.64C29.4677 100.198 29.6309 98.7055 29.8534 97.2517C30.2895 94.3975 30.972 91.5818 31.8828 88.8433C32.7937 86.1048 33.9597 83.3871 35.3364 80.8177C36.7101 78.2483 38.2974 75.7916 40.0865 73.4922C41.8756 71.1928 43.8516 69.0744 46.0145 67.1429C46.2785 66.9056 46.5456 66.6742 46.8156 66.4427C46.9965 66.2884 46.7325 66.0244 46.5545 66.1816C44.3411 68.0983 42.3058 70.2167 40.4633 72.4924C38.6208 74.768 36.9919 77.1802 35.5737 79.7258C34.1555 82.2715 32.9509 84.9388 31.9748 87.6862C30.9987 90.4336 30.251 93.2878 29.7585 96.1747C29.2659 99.0616 29.0197 101.96 29.0731 104.868C29.079 105.236 29.0939 105.604 29.1206 105.972C29.1265 106.061 29.26 106.064 29.263 105.972V105.969Z" fill="black"/>
<path d="M45.1631 67.1845C45.4538 67.5702 45.8633 67.8342 46.249 68.122C46.6762 68.4425 47.1094 68.757 47.5456 69.0655C48.4178 69.6827 49.302 70.282 50.2129 70.8457C51.999 71.9494 53.8949 72.9196 55.9065 73.5338C58.0813 74.2013 60.3065 74.3438 62.5673 74.234C64.662 74.1331 66.7834 74.0026 68.8513 73.6406C70.9193 73.2786 73.1208 72.5784 74.7645 71.1513C74.9366 71 74.6903 70.7656 74.5153 70.9021C71.3762 73.4151 67.1661 73.605 63.3209 73.8453C61.0631 73.9848 58.823 73.967 56.6245 73.3795C54.6307 72.8484 52.7585 71.9672 50.9783 70.9377C49.9785 70.3591 49.0053 69.7301 48.0529 69.0774C47.5634 68.7421 47.0768 68.4009 46.5932 68.0597C46.1392 67.7423 45.6971 67.3595 45.172 67.1726C45.169 67.1726 45.1631 67.1756 45.1661 67.1785L45.1631 67.1845Z" fill="black"/>
<path d="M74.3907 71.6112C74.5153 71.9405 74.6607 72.2164 74.8654 72.5042C75.0553 72.7742 75.257 73.0323 75.4677 73.2875C75.9157 73.8275 76.4052 74.3348 76.9274 74.8036C77.954 75.7323 79.0963 76.5274 80.2831 77.2365C82.7872 78.7348 85.4812 79.8771 88.0921 81.1737C90.703 82.4702 93.3466 84.0784 95.4947 86.2235C97.6991 88.425 99.4586 91.0715 100.654 93.9465C101.85 96.8215 102.485 99.8804 102.47 102.975C102.47 103.367 102.455 103.758 102.434 104.15C102.423 104.384 102.785 104.384 102.799 104.15C102.971 101.043 102.485 97.9133 101.438 94.9849C100.396 92.0773 98.8118 89.3685 96.7705 87.0483C94.7292 84.7281 92.2933 82.9687 89.5934 81.5357C86.8935 80.1026 84.2677 79.0434 81.6746 77.6608C79.1705 76.3286 76.7672 74.6968 75.0731 72.3826C74.8683 72.1007 74.6636 71.8456 74.4292 71.5874C74.4144 71.5726 74.3847 71.5874 74.3907 71.6082V71.6112Z" fill="black"/>
<path d="M112.626 100.076C111.077 97.5069 109.404 95.0176 107.9 92.4186C106.404 89.8343 105.03 87.17 103.956 84.3811C102.882 81.5921 102.129 78.7883 101.835 75.8659C101.518 72.709 101.82 69.5492 102.408 66.4398C103.499 60.6424 105.517 54.9547 105.573 49.003C105.618 44.2944 104.532 39.2149 101.138 35.7466C97.5745 32.1031 91.872 31.1003 87.2227 33.1475C86.6471 33.3997 86.0953 33.7023 85.5701 34.0465C85.3417 34.1978 85.5553 34.5687 85.7867 34.4173C90.1036 31.5809 96.1681 31.9251 100.093 35.3045C103.79 38.491 105.105 43.523 105.197 48.2375C105.309 54.0913 103.431 59.7107 102.277 65.3865C101.66 68.4247 101.242 71.5222 101.414 74.6257C101.568 77.4562 102.176 80.2481 103.09 82.9272C104.974 88.4517 108.042 93.5223 111.267 98.3555C111.671 98.9607 112.08 99.56 112.504 100.153C112.558 100.231 112.682 100.162 112.632 100.079L112.626 100.076Z" fill="black"/>
<path d="M85.1102 34.6606C85.1309 34.441 85.1191 34.2808 85.0152 34.088C84.9114 33.8951 84.7779 33.7319 84.6236 33.5895C84.3061 33.2987 83.9056 33.1 83.4902 32.9931C82.4073 32.7172 81.3095 33.1415 80.3274 33.5687C78.1497 34.5122 75.9244 35.2718 73.6013 35.7673C68.9669 36.7612 64.1159 36.7493 59.4904 35.7168C58.182 35.4231 56.9032 35.0344 55.6334 34.6012C54.3635 34.1681 52.9898 33.723 51.6013 33.7735C51.3372 33.7824 51.3342 34.1888 51.6013 34.1859C52.8474 34.174 54.0312 34.5004 55.2061 34.889C56.381 35.2777 57.4462 35.6308 58.5944 35.9186C60.7959 36.4675 63.0567 36.782 65.3264 36.868C69.9045 37.0431 74.524 36.2805 78.7816 34.5805C79.3572 34.349 79.9239 34.0969 80.4906 33.8447C81.1344 33.5569 81.8109 33.2809 82.52 33.2157C83.057 33.1682 83.597 33.2631 84.0688 33.5302C84.5405 33.7972 84.8224 34.2155 85.0568 34.6784C85.0716 34.7081 85.1131 34.6902 85.1161 34.6635L85.1102 34.6606Z" fill="black"/>
<path d="M51.2126 34.2126C50.7349 33.6222 50.2305 33.0555 49.7736 32.4532C49.3464 31.8895 48.9369 31.308 48.5453 30.7175C47.7472 29.507 47.0173 28.255 46.3883 26.9495C45.1659 24.4157 44.4539 21.7187 43.5489 19.0663C42.6915 16.5592 41.564 14.0758 39.5584 12.2719C37.5527 10.468 34.9744 9.43253 32.3397 9.02605C28.809 8.48013 25.1982 9.01715 21.7477 9.8034C21.4717 9.8657 21.5904 10.287 21.8634 10.2247C25.0054 9.52154 28.2216 8.98451 31.4496 9.31088C34.0932 9.57791 36.7753 10.4739 38.8611 12.1592C40.9617 13.8592 42.1752 16.2654 43.0594 18.7666C43.9702 21.3419 44.6378 23.9914 45.7801 26.4837C46.4447 27.9316 47.2191 29.3379 48.1121 30.6582C48.5483 31.305 49.0111 31.934 49.5036 32.5422C49.9961 33.1504 50.5035 33.7854 51.0761 34.3432C51.1681 34.4322 51.2897 34.3016 51.2126 34.2067V34.2126Z" fill="black"/>
<path d="M12.39 36.2746C13.4285 36.2924 14.4699 36.2746 15.5083 36.2924C16.0186 36.3013 16.5319 36.3161 17.0422 36.3369C17.2974 36.3458 17.5525 36.3577 17.8077 36.3725C18.0629 36.3873 18.318 36.4378 18.5524 36.3458C18.6296 36.3132 18.6652 36.2004 18.5791 36.1529C18.3744 36.0402 18.143 36.055 17.9115 36.0461C17.6386 36.0343 17.3656 36.0254 17.0927 36.0165C16.5823 36.0016 16.0691 35.9927 15.5587 35.9898C14.4995 35.9838 13.4433 35.9898 12.3871 36.0817C12.2624 36.0936 12.2595 36.2746 12.3871 36.2776L12.39 36.2746Z" fill="black"/>
<path d="M12.0368 39.111C12.289 39.1437 12.5917 39.0102 12.8379 38.9538C13.1287 38.8855 13.4194 38.8203 13.7132 38.7669C14.3184 38.6571 14.9296 38.577 15.5438 38.5414C16.7632 38.4702 17.9559 38.5859 19.1546 38.7995C19.3652 38.8381 19.4602 38.5206 19.2436 38.4731C18.0242 38.2002 16.7395 38.1438 15.4963 38.2328C14.8881 38.2773 14.2799 38.3545 13.6835 38.482C13.3779 38.5473 13.0693 38.6185 12.7697 38.7135C12.5234 38.7906 12.1882 38.847 12.0012 39.0309C11.9686 39.0636 11.9953 39.1081 12.0339 39.114L12.0368 39.111Z" fill="black"/>
<path d="M20.7833 36.0877C20.7833 36.0877 20.8812 36.1144 20.8782 36.1382C20.8782 36.1708 20.899 36.2094 20.9287 36.2242C21.2224 36.3696 21.5339 36.4794 21.8425 36.5921C22.1511 36.7049 22.4656 36.8265 22.7801 36.9274C22.967 36.9867 23.0352 36.7049 22.8602 36.6396C22.5576 36.5239 22.246 36.426 21.9375 36.3221C21.6289 36.2183 21.3233 36.1115 21.0058 36.0403C20.9584 36.0284 20.9198 36.0492 20.8931 36.0877L20.7922 36.0551C20.7714 36.0492 20.7625 36.0818 20.7833 36.0877Z" fill="black"/>
<path d="M20.5729 39.0517C20.923 39.0339 21.2731 39.022 21.6232 39.0517C21.7953 39.0665 21.9674 39.0903 22.1365 39.1229C22.3057 39.1555 22.4688 39.2208 22.6409 39.1674C22.7003 39.1496 22.7151 39.0814 22.6765 39.0369C22.5489 38.8915 22.3531 38.8737 22.1751 38.844C21.9971 38.8143 21.822 38.7906 21.644 38.7787C21.2791 38.752 20.9052 38.7639 20.5462 38.8381C20.4276 38.8618 20.4513 39.0576 20.5759 39.0517H20.5729Z" fill="black"/>
<path d="M20.3741 39.0992C21.4185 34.987 22.0742 30.765 22.4599 26.543C22.8456 22.321 22.9494 18.01 22.7922 13.7435C22.7566 12.7911 22.7625 11.812 22.6112 10.8656C22.4984 10.1594 22.2047 9.35833 21.5223 9.01713C21.009 8.759 20.3059 8.72934 19.843 9.10911C19.7332 9.19812 19.6413 9.31086 19.576 9.43547C19.4751 9.63426 19.5433 9.79448 19.5908 10.0051C19.7036 10.5184 19.8044 11.0317 19.8934 11.5509C20.6263 15.7165 20.6678 19.9741 20.3563 24.1813C20.0448 28.3885 19.3594 32.6935 18.6325 36.9125C18.5435 37.4318 18.4515 37.951 18.3625 38.4702C18.3447 38.5711 18.3892 38.6512 18.4841 38.6868C19.1754 38.942 19.9112 38.9865 20.6293 38.8173C20.8429 38.7669 20.7539 38.4435 20.5373 38.488C19.8786 38.6304 19.2081 38.58 18.5761 38.3486L18.6978 38.5651C19.395 34.5271 20.0863 30.4802 20.4987 26.4006C20.9111 22.321 21.0476 18.2385 20.6026 14.1767C20.4928 13.1857 20.3504 12.2007 20.1723 11.2216C20.0804 10.7261 19.9261 10.2247 19.8667 9.72624C19.8282 9.4058 20.2376 9.21592 20.5046 9.17141C21.282 9.04087 21.8754 9.57789 22.1276 10.2692C22.4332 11.1059 22.3976 12.0701 22.4361 12.9484C22.6231 17.0487 22.5756 21.1609 22.2641 25.2553C21.9525 29.3497 21.3651 33.4887 20.5254 37.5445C20.4216 38.0459 20.3148 38.5503 20.205 39.0517C20.1812 39.1615 20.3444 39.206 20.3711 39.0992H20.3741Z" fill="black"/>
<path d="M19.9022 24.6263C19.5996 24.5344 19.2851 24.5255 18.9736 24.4899C18.6205 24.4483 18.2674 24.4009 17.9173 24.3415C17.2527 24.2347 16.597 24.0923 15.9473 23.9172C14.6299 23.5642 13.3482 23.0835 12.1288 22.4753C11.8291 22.324 11.5324 22.1667 11.2387 22.0006C10.9806 21.8552 10.6572 21.7069 10.5978 21.3835C10.4999 20.8405 11.028 20.3687 11.5176 20.2916C12.2237 20.1818 12.9417 20.5408 13.5915 20.7663C14.2413 20.9918 14.9563 21.2203 15.6476 21.4131C17.2053 21.8463 18.7926 22.1608 20.3977 22.3626C20.6113 22.3893 20.6113 22.051 20.3977 22.0243C18.7926 21.8255 17.1993 21.5081 15.6417 21.0719C14.8851 20.8613 14.1374 20.6239 13.4016 20.3598C12.734 20.1195 11.9775 19.8169 11.2624 20.0364C10.8114 20.1729 10.4346 20.5705 10.3278 21.0304C10.1973 21.6 10.5622 21.9442 11.0191 22.2023C12.3038 22.9322 13.6746 23.5167 15.0898 23.9499C15.879 24.1902 16.6831 24.3831 17.496 24.5255C17.8995 24.5967 18.303 24.656 18.7095 24.7005C19.116 24.745 19.5195 24.8073 19.9111 24.7361C19.9705 24.7243 19.9616 24.6412 19.9111 24.6234L19.9022 24.6263Z" fill="black"/>
<path d="M12.0695 26.8248C11.749 25.4303 11.7223 23.9676 12.0902 22.582C12.1318 22.4307 11.8974 22.3684 11.8588 22.5168C11.4939 23.9468 11.5117 25.4481 12.019 26.8396C12.0309 26.8723 12.0784 26.8604 12.0724 26.8248H12.0695Z" fill="black"/>
<path d="M12.4315 20.3569C12.4967 20.1789 12.4878 19.983 12.5175 19.7961C12.5531 19.5766 12.6006 19.36 12.6659 19.1463C12.7905 18.7369 12.9685 18.3482 13.1762 17.9744C13.5737 17.2564 14.0514 16.5799 14.5439 15.9213C15.529 14.6039 16.6327 13.3726 17.8432 12.26C18.1696 11.9604 18.5048 11.6666 18.846 11.3818C19.027 11.2305 19.211 11.0821 19.3979 10.9338C19.5848 10.7854 19.7866 10.6549 19.9349 10.4739C20.0388 10.3463 19.9142 10.1891 19.7658 10.2544C19.4038 10.4116 19.0775 10.7469 18.7778 10.9991C18.4485 11.275 18.128 11.5598 17.8135 11.8506C17.1845 12.4321 16.5823 13.0463 16.0096 13.6871C14.8851 14.9451 13.8022 16.3248 12.9982 17.8142C12.7786 18.2207 12.5857 18.6449 12.4582 19.087C12.3514 19.4608 12.2149 19.989 12.3721 20.3658C12.384 20.3954 12.4285 20.3836 12.4374 20.3569H12.4315Z" fill="black"/>
<path d="M17.6207 12.1324C17.3774 11.3759 17.0747 10.649 16.9086 9.86865C16.7424 9.08834 16.6653 8.26946 16.6772 7.45651L16.4279 7.56035C16.9205 8.11517 17.413 8.67 17.9055 9.22779C18.1518 9.50668 18.398 9.78261 18.6443 10.0615C18.757 10.1891 18.8698 10.3167 18.9825 10.4442C19.0952 10.5718 19.1724 10.7083 19.3445 10.7439C19.4038 10.7558 19.481 10.7142 19.475 10.646C19.4602 10.4947 19.4008 10.4413 19.297 10.3285C19.1724 10.1891 19.0478 10.0526 18.9261 9.91316C18.668 9.62536 18.4099 9.33756 18.1518 9.04977C17.6474 8.48604 17.14 7.92232 16.6356 7.35563C16.5496 7.25772 16.3864 7.33783 16.3864 7.45947C16.3775 8.28132 16.4576 9.10021 16.6327 9.90129C16.8077 10.7024 17.0332 11.5153 17.4634 12.1977C17.5139 12.2778 17.6533 12.2274 17.6236 12.1295L17.6207 12.1324Z" fill="black"/>
<path d="M11.4762 23.9973C9.56843 22.2468 8.79702 19.624 8.9335 17.0873C9.09075 14.1618 10.4556 11.4382 12.0013 9.00821C12.7609 7.81252 13.556 6.6109 14.5084 5.55466C15.4608 4.49842 16.6773 3.61427 18.0658 3.08615C19.4544 2.55803 20.9438 2.27617 22.3976 1.9587C23.9612 1.62047 25.5248 1.2941 27.1032 1.02411C30.2007 0.495986 33.3635 0.178521 36.5025 0.498953C37.3155 0.582028 38.1225 0.709608 38.9177 0.884659C39.6119 1.03894 40.327 1.20212 40.9767 1.49882C41.6265 1.79552 42.0982 2.19902 42.4187 2.80429C42.7391 3.40955 42.8697 4.08008 43.0773 4.72095C43.3948 5.71488 43.9496 6.54563 44.7003 7.2666C45.4064 7.94604 46.2134 8.50679 47.0056 9.07645C48.5395 10.1772 50.3316 11.4678 50.3642 13.5506C50.3761 14.3339 50.1892 15.1024 50.1773 15.8827C50.1654 16.663 50.3138 17.381 50.5333 18.099C50.9754 19.5528 51.6489 20.9206 52.0583 22.3892C52.8683 25.3028 52.9989 28.4033 52.4352 31.3732C52.2957 32.1031 52.1177 32.8211 51.8981 33.5302C51.8269 33.7616 52.1859 33.8595 52.2571 33.6281C53.168 30.6849 53.3816 27.5458 52.9039 24.5047C52.6606 22.9559 52.2186 21.4635 51.643 20.0068C51.0674 18.55 50.4532 17.0546 50.5838 15.4465C50.649 14.6573 50.8152 13.874 50.7143 13.0789C50.655 12.6071 50.5096 12.1562 50.29 11.7349C49.8509 10.8952 49.1448 10.2276 48.4119 9.64314C46.8513 8.40295 44.8724 7.40605 43.8606 5.614C43.2287 4.49546 43.2168 3.10098 42.392 2.08035C41.5078 0.988502 39.8908 0.691806 38.5883 0.43368C35.4196 -0.189383 32.1678 -0.0736712 28.9813 0.356539C27.3465 0.576094 25.7265 0.881692 24.1125 1.21993C22.4985 1.55816 21.0268 1.85189 19.5078 2.25836C18.0866 2.6411 16.7099 3.17812 15.5439 4.09492C14.3779 5.01171 13.5115 6.15102 12.6926 7.33484C10.9985 9.78852 9.40524 12.4529 8.83559 15.4169C8.35791 17.9032 8.67834 20.6595 10.1322 22.7838C10.4734 23.2823 10.8739 23.7303 11.3338 24.1249C11.4257 24.202 11.5593 24.0745 11.4673 23.9914L11.4762 23.9973Z" fill="black"/>
<path d="M51.8744 34.2541C50.7826 34.8891 50.6313 36.3933 51.1238 37.4585C51.7736 38.8618 53.2808 39.7252 54.5655 40.464C57.4375 42.1196 60.6507 43.1491 63.8966 43.7633C67.1929 44.3863 70.5574 44.594 73.9101 44.5792C77.0313 44.5643 80.5146 44.321 83.0751 42.3213C85.1045 40.737 86.4811 37.7611 85.4961 35.2303C85.3804 34.9336 85.235 34.6517 85.0629 34.3817C84.9116 34.1444 84.5318 34.3639 84.6861 34.6013C86.1132 36.8206 85.1282 39.7371 83.3807 41.4728C81.2148 43.6238 77.8888 44.0481 74.9841 44.1341C71.8303 44.2261 68.6437 44.0867 65.5225 43.6268C62.4012 43.1669 59.3393 42.3747 56.4881 41.0426C55.779 40.7103 55.0817 40.3483 54.4053 39.9537C53.7288 39.5591 53.0731 39.1674 52.4856 38.669C51.468 37.8056 50.6313 36.426 51.3226 35.0938C51.4709 34.806 51.6875 34.5746 51.9634 34.4054C52.0643 34.3431 51.9723 34.1889 51.8715 34.2482L51.8744 34.2541Z" fill="black"/>
<path d="M53.7969 39.832C53.8028 41.9237 54.2627 43.9739 54.8323 45.9766C55.402 47.9793 55.9628 49.804 56.6808 51.6613C57.9744 54.9932 59.8584 58.2005 62.8847 60.2329C64.2643 61.1586 65.8428 61.7816 67.5013 61.9537C69.1598 62.1258 70.8184 61.838 72.3523 61.2357C75.5566 59.9777 78.1141 57.4914 79.832 54.5482C81.7368 51.2875 82.7218 47.5936 83.5793 43.9442C83.6891 43.4814 83.7959 43.0156 83.9027 42.5498C83.9679 42.2709 83.5377 42.1522 83.4754 42.4311C82.6654 46.0003 81.8466 49.6289 80.2296 52.9312C78.7224 56.005 76.4853 58.696 73.4174 60.3011C71.9873 61.0488 70.403 61.5324 68.786 61.5918C67.169 61.6511 65.5223 61.2565 64.0685 60.491C60.9443 58.8443 58.8645 55.8418 57.4729 52.676C56.7075 50.9374 56.1259 49.1246 55.5652 47.3117C54.957 45.3476 54.3725 43.3508 54.1232 41.3036C54.0639 40.8141 54.0164 40.3216 53.9927 39.8291C53.9868 39.7044 53.7998 39.7044 53.7998 39.8291L53.7969 39.832Z" fill="black"/>
<path d="M66.3945 62.0932C66.3085 61.8944 66.255 61.6867 66.172 61.4879C66.1334 61.393 65.9673 61.393 65.9791 61.5146C66.0622 62.5264 66.2254 63.5322 66.347 64.538C66.4687 65.5438 66.5755 66.4902 66.6823 67.4664C66.7891 68.4425 66.887 69.4216 66.976 70.4007C67.0235 70.908 67.068 71.4124 67.1095 71.9198C67.1303 72.1571 67.1481 72.3915 67.1659 72.6289C67.1837 72.8514 67.1748 73.0828 67.2727 73.2905C67.3113 73.3736 67.4359 73.3439 67.4596 73.2668C67.5308 73.0324 67.4715 72.7713 67.4537 72.531C67.4359 72.2906 67.4151 72.0592 67.3944 71.8219C67.3528 71.3145 67.3054 70.8072 67.2579 70.3028C67.1659 69.3237 67.068 68.3446 66.9582 67.3684C66.8484 66.3923 66.7298 65.4132 66.6022 64.44C66.4746 63.4669 66.3678 62.4611 66.169 61.4909L65.988 61.568C66.0948 61.7609 66.2224 61.9389 66.3263 62.1347C66.35 62.1792 66.4093 62.1406 66.3915 62.0961L66.3945 62.0932Z" fill="black"/>
<path d="M70.4741 61.66C70.3791 62.0546 70.4741 62.4878 70.5097 62.8883C70.5483 63.3274 70.5928 63.7665 70.6373 64.2086C70.7293 65.1046 70.8272 66.0007 70.931 66.8937C71.0349 67.7868 71.1446 68.6472 71.2603 69.5225C71.3167 69.9408 71.3731 70.3562 71.4354 70.7745C71.468 70.9941 71.4977 71.2107 71.5303 71.4302C71.563 71.6498 71.5719 71.9168 71.6609 72.1304C71.7113 72.2521 71.9101 72.2521 71.9071 72.0978C71.9071 72.0266 71.9071 71.9554 71.9071 71.8842C71.9071 71.7833 71.7647 71.7684 71.7321 71.8604C71.7084 71.9287 71.6846 71.9969 71.6609 72.0651L71.9071 72.0978C71.9279 71.8871 71.8686 71.6616 71.8359 71.4539C71.8033 71.2463 71.7766 71.0504 71.7469 70.8487C71.6816 70.4125 71.6193 69.9734 71.56 69.5373C71.4295 68.6235 71.3078 67.7096 71.1951 66.7958C71.0823 65.882 70.9814 65.0394 70.8865 64.1611C70.839 63.722 70.7945 63.2829 70.7471 62.8408C70.7055 62.4433 70.7174 62.019 70.5542 61.6511C70.5394 61.6185 70.486 61.6274 70.4771 61.66H70.4741Z" fill="black"/>
<path d="M96.5985 32.5748C96.6223 28.338 99.3519 24.6767 102.945 22.6384C106.897 20.3984 112.243 20.0661 116.094 22.7185C119.64 25.1633 120.978 29.6672 121.168 33.7735C121.414 39.1526 119.738 44.4011 119.637 49.7654C119.593 52.1805 119.815 54.7529 121.055 56.8831C122.123 58.7167 124.096 60.1231 126.277 60.0993C126.79 60.0934 127.298 60.0014 127.781 59.8234L127.526 59.6306C127.556 63.2354 125.084 66.7038 121.601 67.7185C119.865 68.2259 117.979 68.1368 116.281 67.5257C114.433 66.861 112.982 65.5586 111.923 63.9238C110.775 62.1495 109.985 60.1142 109.362 58.1026C108.707 55.9812 108.277 53.7916 108.084 51.5812C107.888 49.3085 108.007 47.0595 108.193 44.7898C108.38 42.5201 108.517 40.4076 108.039 38.2625C107.645 36.4912 106.826 34.7525 105.425 33.5569C104.701 32.9368 103.802 32.4561 102.832 32.4294C101.966 32.4027 101.114 32.8092 100.625 33.5331C100.402 33.8625 100.286 34.2452 100.284 34.6428C100.284 34.9157 100.708 34.9157 100.708 34.6428C100.711 33.7378 101.515 33.0347 102.366 32.8863C103.384 32.7083 104.411 33.2364 105.161 33.8832C106.6 35.1205 107.375 36.9362 107.722 38.7698C108.137 40.9713 107.909 43.2351 107.731 45.4485C107.553 47.6618 107.496 49.9761 107.742 52.2428C107.977 54.4235 108.437 56.5805 109.116 58.6663C109.757 60.6334 110.552 62.6272 111.718 64.348C112.771 65.9027 114.172 67.131 115.925 67.8253C117.587 68.481 119.447 68.6323 121.192 68.2437C124.669 67.4693 127.354 64.3925 127.847 60.8915C127.906 60.4732 127.933 60.0548 127.93 59.6335C127.93 59.5119 127.799 59.3932 127.675 59.4407C125.556 60.2239 123.165 59.1232 121.868 57.3875C120.355 55.3611 120.035 52.7235 120.038 50.2638C120.044 44.8017 121.779 39.473 121.58 34.0049C121.432 29.8897 120.18 25.4036 116.807 22.7601C113.148 19.894 107.823 19.897 103.752 21.8462C100.1 23.5938 97.0169 26.9999 96.465 31.1121C96.3998 31.5987 96.3849 32.0882 96.3968 32.5778C96.3998 32.7053 96.5956 32.7053 96.5956 32.5778L96.5985 32.5748Z" fill="black"/>
<path d="M11.396 105.776C10.4792 107.862 8.05221 108.98 5.84182 108.636C3.17748 108.221 1.87498 105.702 1.49521 103.263C1.29346 101.957 1.24302 100.578 1.35576 99.2633C1.49818 97.5722 2.48915 96.4032 4.05274 95.8068C6.82388 94.7476 9.90953 95.5576 12.476 96.7948C15.1344 98.0765 17.5109 99.8449 20.0061 101.403C22.4301 102.916 24.9461 104.283 27.5333 105.506C32.586 107.891 37.8969 109.716 43.3294 111.013C54.4288 113.659 66.0119 114.122 77.3308 112.852C83.2559 112.187 89.3322 111.22 94.9695 109.226C97.9572 108.17 100.714 106.66 103.461 105.096C106.208 103.533 109.217 101.943 112.222 100.604C116.848 98.5453 124.802 95.0117 127.796 101.319C128.754 103.34 128.695 105.992 126.992 107.609C125.497 109.034 123.073 109.351 121.192 108.58C120.233 108.188 119.459 107.506 118.984 106.583C118.851 106.322 118.456 106.553 118.589 106.814C120.53 110.573 126.674 110.182 128.389 106.429C129.312 104.414 128.906 101.978 127.698 100.171C126.206 97.9371 123.687 97.0351 121.064 97.2339C117.815 97.4831 114.697 98.9696 111.765 100.293C108.588 101.729 105.541 103.393 102.511 105.117C99.4822 106.841 96.3254 108.408 92.9341 109.44C89.7328 110.413 86.4305 111.069 83.1313 111.624C70.8362 113.689 58.1198 113.709 45.8929 111.17C39.9115 109.927 34.0517 108.063 28.4946 105.512C25.7057 104.233 22.9968 102.782 20.3918 101.162C17.7868 99.5422 15.1789 97.5751 12.3009 96.2578C9.76118 95.0947 6.75564 94.3856 4.0379 95.3855C2.90452 95.8009 1.83345 96.5426 1.32906 97.673C0.771272 98.9221 0.88105 100.489 0.958191 101.824C1.09764 104.215 1.7385 106.927 3.88955 108.313C5.61633 109.422 8.02847 109.262 9.72261 108.164C10.5712 107.612 11.2476 106.853 11.6452 105.918C11.7134 105.755 11.4761 105.613 11.4049 105.776H11.396Z" fill="black"/>
<path d="M11.0873 106.31C14.7129 107.74 18.2881 109.318 21.7713 111.069C25.2545 112.819 28.3817 114.784 31.7729 116.481C35.1761 118.184 38.8076 119.145 42.5341 119.836C46.2606 120.528 50.1266 121.091 53.951 121.486C61.7838 122.299 69.7056 122.432 77.5443 121.608C84.5642 120.866 91.5069 119.347 98.141 116.923C104.775 114.499 110.694 111.383 116.192 107.304C116.842 106.823 117.48 106.328 118.112 105.823C118.343 105.639 118.017 105.313 117.785 105.497C112.424 109.811 106.374 113.229 99.9865 115.772C93.5155 118.35 86.7063 120.041 79.8022 120.949C72.1266 121.958 64.3413 122.008 56.6331 121.37C52.7168 121.047 48.8182 120.542 44.9403 119.896C41.0625 119.249 37.4784 118.578 33.9833 117.133C30.4704 115.68 27.2602 113.576 23.9016 111.814C20.6053 110.084 17.2289 108.511 13.7813 107.099C12.909 106.743 12.0248 106.411 11.1407 106.078C10.9982 106.025 10.9389 106.251 11.0784 106.304L11.0873 106.31Z" fill="black"/>
<path d="M8.09378 104.079C7.36687 104.995 6.05547 105.227 5.01406 104.708C3.82728 104.114 3.23685 102.732 3.10927 101.474C3.0351 100.729 3.08554 99.9398 3.4208 99.2603C3.6819 98.7292 4.10617 98.302 4.61649 98.0053C5.64306 97.406 6.92479 97.3407 8.0196 97.7946C9.37847 98.3554 10.3338 99.5541 10.9391 100.857C11.0192 101.026 11.3159 100.904 11.2447 100.729C10.7136 99.4087 9.73451 98.213 8.44388 97.581C7.23632 96.9906 5.81811 96.9698 4.61649 97.5959C4.05277 97.8896 3.56025 98.3257 3.23685 98.8746C2.82444 99.5719 2.70576 100.409 2.75324 101.207C2.83928 102.604 3.41487 104.105 4.65506 104.865C5.74394 105.535 7.56862 105.42 8.19762 104.162C8.22729 104.099 8.14421 104.019 8.09378 104.082V104.079Z" fill="black"/>
<path d="M120.862 104.794C120.337 104.806 120.512 105.491 120.714 105.764C121.076 106.253 121.666 106.612 122.221 106.832C123.393 107.298 124.77 107.141 125.68 106.227C126.526 105.378 126.855 104.061 126.298 102.969C125.719 101.833 124.437 101.26 123.28 100.898C122.509 100.655 121.616 100.406 120.818 100.678C120.254 100.871 119.488 101.474 119.666 102.156C119.696 102.266 119.877 102.307 119.927 102.192C120.016 101.978 120.076 101.747 120.215 101.56C120.387 101.328 120.648 101.156 120.918 101.061C121.536 100.845 122.218 100.999 122.826 101.171C123.808 101.447 124.862 101.827 125.571 102.595C126.28 103.364 126.381 104.429 125.888 105.337C125.396 106.245 124.434 106.782 123.384 106.749C122.785 106.731 122.2 106.538 121.693 106.224C121.432 106.064 121.168 105.865 120.972 105.627C120.841 105.47 120.666 105.117 120.904 104.972C120.984 104.924 120.954 104.791 120.856 104.791L120.862 104.794Z" fill="black"/>
<path d="M20.3089 93.6409C21.4363 94.8514 23.0118 95.6881 24.5576 96.2281C26.1034 96.7681 27.8746 97.0588 29.5569 96.9431C29.7438 96.9313 29.7468 96.6435 29.5569 96.6494C27.8924 96.7117 26.2517 96.504 24.6733 95.964C23.8841 95.694 23.1156 95.3499 22.3887 94.9404C21.6618 94.531 21.015 94.0622 20.3475 93.5905C20.3178 93.5697 20.2881 93.6142 20.3118 93.6379L20.3089 93.6409Z" fill="black"/>
<path d="M101.814 96.8601C102.894 96.6316 103.939 96.2697 104.947 95.8157C105.443 95.5932 105.926 95.341 106.398 95.068C106.647 94.9227 106.891 94.7743 107.131 94.6171C107.339 94.4806 107.564 94.3589 107.668 94.1245C107.686 94.08 107.668 94.0148 107.609 94.0207C107.368 94.0385 107.196 94.175 107 94.3026C106.772 94.4509 106.541 94.5963 106.306 94.7357C105.837 95.0117 105.354 95.2639 104.861 95.4953C103.858 95.9641 102.811 96.3231 101.743 96.6079C101.577 96.6524 101.648 96.8987 101.814 96.8631V96.8601Z" fill="black"/>
<path d="M18.3001 98.1269C18.4217 98.2693 18.5226 98.4028 18.665 98.5304C18.7985 98.6491 18.935 98.7648 19.0774 98.8716C19.3711 99.0971 19.6856 99.3018 20.012 99.4769C20.6262 99.8092 21.3382 100.103 22.0444 100.121C22.0889 100.121 22.0948 100.058 22.0533 100.044C21.3857 99.8032 20.7181 99.6193 20.0862 99.284C19.7836 99.1238 19.4958 98.9399 19.2228 98.7381C19.0774 98.6283 18.935 98.5156 18.7985 98.3939C18.662 98.2723 18.5137 98.1655 18.3831 98.0438C18.3268 97.9934 18.2526 98.0705 18.3001 98.1269Z" fill="black"/>
<path d="M18.941 97.2042C19.2495 97.6879 19.6768 98.0884 20.1782 98.3673C20.6796 98.6462 21.2344 98.7797 21.8219 98.7411C21.8723 98.7382 21.8723 98.6699 21.8219 98.664C20.7508 98.5661 19.7005 98.0172 19.1101 97.1063C19.0418 96.9995 18.8727 97.0974 18.941 97.2042Z" fill="black"/>
<path d="M19.4809 95.8632C20.5074 96.4329 21.5666 96.9046 22.697 97.2191C22.7861 97.2429 22.8157 97.1183 22.7326 97.0856C21.6705 96.6613 20.6113 96.1955 19.6055 95.6437C19.4631 95.5665 19.3384 95.7831 19.4779 95.8603L19.4809 95.8632Z" fill="black"/>
<path d="M110.178 98.1685C109.487 98.483 108.709 98.6165 107.953 98.6224C107.87 98.6224 107.846 98.7589 107.932 98.7708C108.339 98.8242 108.727 98.8182 109.131 98.7411C109.534 98.6639 109.917 98.5275 110.282 98.3405C110.401 98.2812 110.297 98.1121 110.181 98.1655L110.178 98.1685Z" fill="black"/>
<path d="M109.273 96.9342C108.888 97.0084 108.499 97.0826 108.113 97.1568C107.728 97.2309 107.348 97.2843 106.995 97.4356C106.921 97.4683 106.962 97.5781 107.033 97.5781C107.419 97.584 107.805 97.4801 108.182 97.403L109.339 97.1627C109.49 97.133 109.425 96.9046 109.276 96.9342H109.273Z" fill="black"/>
<path d="M107.689 96.0857L106.98 96.2073L106.633 96.2667C106.576 96.2756 106.517 96.2874 106.461 96.2993C106.392 96.3141 106.324 96.323 106.277 96.3794C106.223 96.4417 106.226 96.5366 106.303 96.5811C106.375 96.6227 106.44 96.6108 106.517 96.5989C106.579 96.59 106.642 96.5811 106.704 96.5722L107.051 96.5129L107.772 96.3913C107.858 96.3764 107.906 96.2726 107.882 96.1954C107.858 96.1064 107.772 96.0708 107.686 96.0857H107.689Z" fill="black"/>
<path d="M56.1348 43.0749C56.6718 46.3356 57.8616 49.5043 59.532 52.3496C60.0067 53.1596 60.5348 53.9043 61.1341 54.6253C61.1786 54.6817 61.2706 54.6075 61.2321 54.5482C60.3598 53.1744 59.4993 51.774 58.7843 50.3084C58.0693 48.8427 57.4699 47.2761 57.019 45.6888C56.7668 44.8017 56.565 43.9056 56.3929 43.0007C56.3603 42.8286 56.1051 42.9028 56.1318 43.0719L56.1348 43.0749Z" fill="black"/>
<path d="M64.4246 57.7228C65.3503 58.604 66.8338 58.8918 68.0681 58.874C69.4092 58.8532 70.7087 58.4646 71.8806 57.8237C74.3254 56.4856 76.2391 54.1981 77.6514 51.8334C78.0757 51.1243 78.4554 50.3885 78.7907 49.6319C79.1052 48.9228 79.485 48.1544 79.5591 47.377C79.571 47.2405 79.3722 47.199 79.3099 47.3088C78.9658 47.917 78.7907 48.6261 78.5118 49.267C78.2329 49.9078 77.9421 50.5012 77.6128 51.0946C76.9482 52.2933 76.162 53.4237 75.2659 54.4621C73.5599 56.4381 71.3228 58.2183 68.6407 58.5031C67.9257 58.5803 67.1958 58.5565 66.4897 58.4082C65.7835 58.2598 65.1397 57.9631 64.4781 57.6546C64.4336 57.6338 64.3831 57.6872 64.4246 57.7258V57.7228Z" fill="black"/>
<path d="M11.7906 17.8053C11.5325 16.6808 11.4019 15.5534 11.4969 14.4022C11.5918 13.251 11.8648 12.0701 12.3217 11.005C12.3365 10.9664 12.2861 10.9338 12.2653 10.9724C11.2269 13.076 10.9331 15.586 11.6334 17.8468C11.663 17.9447 11.8114 17.9062 11.7876 17.8053H11.7906Z" fill="black"/>
<path d="M14.6596 12.797C14.6744 11.4767 14.9978 10.1802 15.52 8.96963C15.5586 8.88359 15.437 8.80645 15.3895 8.89249C14.7367 10.0911 14.4401 11.4352 14.4312 12.797C14.4312 12.9454 14.6566 12.9454 14.6596 12.797Z" fill="black"/>
<path d="M21.8188 8.93699C22.4182 6.45364 24.139 4.35896 26.3969 3.18997C27.0437 2.85471 27.7261 2.60548 28.4322 2.42153C28.5123 2.40076 28.4767 2.28802 28.3996 2.29988C25.8213 2.66779 23.5486 4.53401 22.3796 6.81857C22.0443 7.47427 21.804 8.17151 21.6586 8.89248C21.6379 8.99633 21.7951 9.0438 21.8188 8.93699Z" fill="black"/>
<path d="M26.5986 8.04394C28.6606 5.39147 31.3991 3.31163 34.5263 2.06847C34.5916 2.04176 34.5679 1.93792 34.4967 1.95869C33.6985 2.21978 32.9182 2.51351 32.1765 2.90812C31.4348 3.30273 30.6752 3.78931 29.9809 4.31446C28.628 5.33806 27.4353 6.54562 26.471 7.94603C26.4176 8.02317 26.5422 8.11811 26.5986 8.0469V8.04394Z" fill="black"/>
<path d="M32.1827 8.15969C33.322 7.14795 34.6037 6.31423 36.0338 5.77425C37.4639 5.23426 38.9622 4.99097 40.4516 4.9969C40.5436 4.9969 40.5376 4.86635 40.4516 4.85745C38.885 4.70317 37.3452 4.93756 35.8765 5.50722C34.4079 6.07688 33.1024 6.90169 32.064 8.03804C31.9898 8.11815 32.1026 8.22793 32.1827 8.15672V8.15969Z" fill="black"/>
<path d="M40.0125 10.5095C41.0687 10.0348 42.2258 9.80929 43.3829 9.83896C43.9467 9.85379 44.5074 9.92797 45.0533 10.0615C45.5993 10.195 46.1511 10.4027 46.703 10.5629C46.7861 10.5866 46.8217 10.4769 46.7593 10.4294C45.8099 9.73215 44.4956 9.52446 43.3414 9.50369C42.1873 9.48292 40.9471 9.73511 39.8523 10.2306C39.6624 10.3166 39.8285 10.5926 40.0154 10.5095H40.0125Z" fill="black"/>
<path d="M43.1365 14.6929C44.1186 15.1172 45.0739 15.5563 45.9788 16.1319C46.8838 16.7075 47.759 17.3899 48.5482 18.1168C48.6105 18.1732 48.6936 18.0871 48.6402 18.0248C47.9074 17.1911 47.1004 16.4969 46.1687 15.8946C45.2371 15.2923 44.261 14.7938 43.2225 14.4942C43.1068 14.4615 43.0208 14.6455 43.1395 14.6929H43.1365Z" fill="black"/>
<path d="M46.3024 22.2231C49.0261 23.4277 50.7647 26.0623 51.1623 28.97C51.1801 29.0946 51.3818 29.062 51.3789 28.9403C51.3225 25.9081 49.1566 23.1191 46.4033 21.9828C46.2668 21.9264 46.1659 22.1638 46.3024 22.2231Z" fill="black"/>
<path d="M99.7729 29.8096C101.277 28.0561 102.814 26.2463 104.781 24.9913C106.63 23.8134 109.003 23.1725 111.148 23.8638C113.154 24.5106 114.492 26.3027 115.16 28.2342C115.964 30.5632 115.812 33.0733 115.7 35.4943C115.563 38.3871 115.56 41.357 116.231 44.1905C116.251 44.2825 116.409 44.2647 116.397 44.1668C116.26 42.8079 116.1 41.455 116.023 40.0931C115.946 38.7313 115.955 37.3605 116.014 35.9928C116.124 33.4798 116.34 30.8777 115.581 28.4359C114.973 26.4807 113.741 24.6085 111.81 23.7629C109.775 22.8729 107.404 23.2615 105.478 24.2525C103.075 25.4897 101.328 27.6408 99.6661 29.7058C99.6098 29.777 99.7047 29.8749 99.767 29.8066L99.7729 29.8096Z" fill="black"/>
<path d="M106.211 29.1569C106.849 28.0621 108.428 28.1986 109.294 28.9106C110.341 29.7711 110.81 31.213 111.19 32.4621C112.056 35.3134 112.249 38.2951 112.371 41.2562C112.492 44.2172 112.546 47.1842 113.124 50.0948C113.703 53.0054 114.818 55.7201 116.418 58.1679C117.24 59.4259 118.189 60.6898 119.503 61.4701C120.741 62.2059 122.355 62.4433 123.627 61.663C123.758 61.5829 123.642 61.393 123.509 61.4612C122.236 62.111 120.69 61.8499 119.518 61.1111C118.346 60.3723 117.406 59.1351 116.631 57.9394C115.002 55.4234 113.896 52.5989 113.356 49.6557C112.285 43.8107 113.273 37.6543 111.338 31.9547C110.893 30.6463 110.303 29.1005 109.012 28.4063C108.051 27.89 106.624 28.0354 106.072 29.0768C106.021 29.1688 106.161 29.2518 106.214 29.1599L106.211 29.1569Z" fill="black"/>
<path d="M110.65 49.3886C110.057 54.2337 112.033 59.236 115.468 62.648C116.43 63.6034 117.51 64.4667 118.744 65.0394C118.839 65.0839 118.913 64.9593 118.827 64.897C117.839 64.2086 116.857 63.4995 115.979 62.6747C115.1 61.8499 114.353 60.9657 113.688 59.9896C112.35 58.0284 111.418 55.7854 111.003 53.4474C110.766 52.1182 110.689 50.7356 110.775 49.3886C110.781 49.3055 110.659 49.3115 110.65 49.3886Z" fill="black"/>
<path d="M116.934 46.1753C115.964 49.0711 117.065 52.6374 119.702 54.2663C119.782 54.3167 119.883 54.1951 119.806 54.1328C117.486 52.2903 116.311 49.1215 117.18 46.2436C117.228 46.0834 116.984 46.0181 116.931 46.1753H116.934Z" fill="black"/>
<path d="M15.4933 29.7443C16.0125 29.6078 16.4842 29.3201 16.8699 28.9492C17.0598 28.7682 17.2289 28.5635 17.3743 28.341C17.4485 28.2252 17.5108 28.1066 17.5612 27.982C17.6117 27.8573 17.6354 27.7268 17.6502 27.5903C17.6591 27.5013 17.5345 27.4865 17.493 27.5488C17.4248 27.6526 17.3535 27.7535 17.2912 27.8603C17.2289 27.9671 17.1696 28.068 17.1043 28.1659C16.9738 28.3706 16.8195 28.5575 16.6474 28.7267C16.3003 29.0679 15.876 29.3171 15.4191 29.4803C15.2559 29.5396 15.3212 29.7859 15.4903 29.7414L15.4933 29.7443Z" fill="black"/>
<path d="M15.3746 41.1553C15.4013 41.1256 15.431 41.0989 15.4606 41.0722L15.3924 41.09C15.4933 41.1316 15.5704 41.0455 15.6505 41.0188C15.7217 40.9951 15.7781 40.9862 15.8404 40.9832C15.9769 40.9773 16.1163 41.007 16.2321 41.0633C16.3596 41.1256 16.4694 41.2117 16.5377 41.3126C16.5822 41.3808 16.597 41.4164 16.6178 41.4846C16.6326 41.5291 16.6504 41.5588 16.6593 41.5914C16.6682 41.633 16.6741 41.6805 16.7097 41.7101C16.7394 41.7339 16.778 41.7428 16.8106 41.722C16.8492 41.7012 16.864 41.6656 16.8759 41.6241C16.8789 41.6063 16.8818 41.5914 16.8848 41.5736C16.8848 41.5677 16.8937 41.5232 16.8907 41.5351C16.9056 41.449 16.8848 41.3749 16.8522 41.2948C16.7987 41.1672 16.7097 41.0574 16.6029 40.9714C16.3863 40.7963 16.0956 40.6925 15.8137 40.7192C15.6476 40.734 15.5022 40.7933 15.3716 40.8942C15.336 40.9209 15.3301 40.9743 15.339 41.0129L15.3449 41.0366L15.3627 40.9684C15.3331 41.001 15.3064 41.0396 15.2797 41.0782C15.2441 41.1375 15.3301 41.2057 15.3746 41.1523V41.1553Z" fill="black"/>
<path d="M38.6179 17.8112C39.8136 19.2828 40.6681 20.9591 41.4128 22.6948C42.2347 24.6144 43.012 26.5548 43.8131 28.4833C44.267 29.5782 44.6943 30.6997 45.2372 31.7529C45.2728 31.8241 45.3915 31.7737 45.3678 31.6995C45.0355 30.6641 44.5875 29.6553 44.1691 28.6495C43.7508 27.6437 43.3295 26.626 42.9082 25.6173C42.1545 23.8104 41.4514 21.9679 40.5168 20.2441C40.0213 19.3332 39.4457 18.452 38.7425 17.6895C38.6654 17.6064 38.5497 17.7281 38.6209 17.8112H38.6179Z" fill="black"/>
<path d="M49.7232 68.0716C52.254 70.1218 55.4079 71.4095 58.5974 71.9969C59.5112 72.1661 60.4339 72.264 61.3626 72.2669C61.4872 72.2669 61.4813 72.0889 61.3626 72.077C59.7575 71.9079 58.1642 71.6617 56.6125 71.2166C55.0608 70.7716 53.5802 70.1396 52.1531 69.383C51.3461 68.9558 50.5658 68.4751 49.8033 67.9708C49.744 67.9322 49.6668 68.0242 49.7262 68.0716H49.7232Z" fill="black"/>
<path d="M103.553 46.4335C103.532 47.4601 103.6 48.4867 103.571 49.5132C103.541 50.5398 103.464 51.5011 103.339 52.4891C103.215 53.4771 103.034 54.5037 102.808 55.4946C102.583 56.4856 102.268 57.4766 102.016 58.4705C102.004 58.5239 102.084 58.5625 102.108 58.5091C102.731 57.0582 103.072 55.4472 103.345 53.8984C103.618 52.3497 103.767 50.7238 103.79 49.1275C103.802 48.2285 103.805 47.3088 103.657 46.4187C103.648 46.3594 103.553 46.3742 103.553 46.4335Z" fill="black"/>
<path d="M99.4496 70.2939C99.1143 73.5575 99.7107 76.9221 100.998 79.9306C101.179 80.3548 101.378 80.7732 101.592 81.1797C101.805 81.5861 102.016 81.9985 102.301 82.3457C102.378 82.4406 102.494 82.319 102.455 82.227C102.298 81.8591 102.081 81.512 101.9 81.1529C101.719 80.7939 101.544 80.432 101.378 80.0641C101.04 79.3164 100.752 78.545 100.512 77.7587C100.037 76.2189 99.7463 74.6227 99.6484 73.0146C99.595 72.1067 99.6069 71.1988 99.6603 70.2909C99.6692 70.1544 99.4644 70.1603 99.4526 70.2909L99.4496 70.2939Z" fill="black"/>
<path d="M22.7979 107.654C24.0262 108.342 25.3109 108.933 26.5926 109.508C27.8743 110.084 29.1353 110.615 30.4259 111.122C33.0191 112.146 35.6567 113.057 38.3299 113.849C43.6675 115.436 49.1445 116.564 54.6749 117.213C57.7962 117.581 60.9501 117.842 64.0921 117.81C64.1722 117.81 64.1692 117.691 64.0921 117.688C61.3061 117.552 58.5231 117.418 55.749 117.121C52.9867 116.828 50.2364 116.412 47.5097 115.884C42.0683 114.828 36.7159 113.303 31.5326 111.336C30.0462 110.772 28.5746 110.17 27.1178 109.538C25.6788 108.915 24.2665 108.229 22.8335 107.6C22.7949 107.583 22.7593 107.636 22.8008 107.66L22.7979 107.654Z" fill="black"/>
<path d="M69.5337 118.112C73.7646 117.902 77.9748 117.35 82.1285 116.513C86.3149 115.671 90.4449 114.519 94.4681 113.083C95.5896 112.683 96.7052 112.262 97.8089 111.817C98.9126 111.371 100.016 110.932 101.058 110.381C101.129 110.342 101.079 110.22 101.001 110.247C100.004 110.609 99.0313 111.042 98.0463 111.437C97.0613 111.831 96.094 112.202 95.109 112.558C93.1241 113.276 91.1125 113.929 89.0831 114.511C85.0213 115.674 80.8794 116.558 76.699 117.16C74.3195 117.501 71.9281 117.756 69.5308 117.928C69.4151 117.937 69.4121 118.118 69.5308 118.112H69.5337Z" fill="black"/>
</svg>
