<svg width="188" height="97" viewBox="0 0 188 97" fill="none" xmlns="http://www.w3.org/2000/svg">
<path d="M26.6903 14.3716C25.3589 14.767 24.7517 16.4738 24.7447 17.9718C24.74 18.9742 24.944 19.9598 25.1409 20.926C25.3495 21.9618 25.5604 22.9976 25.7691 24.0333C26.1793 26.0604 26.5895 28.0874 26.9997 30.1144C27.2036 31.1251 27.3958 32.1442 27.6162 33.1494C27.7873 33.9234 28.0405 34.6696 28.5468 35.2237C29.4282 36.1899 30.715 36.382 31.866 36.3848C32.527 36.3848 33.1998 36.3402 33.8561 36.24C34.5476 36.1342 35.2203 35.9059 35.7571 35.3546C36.7088 34.3773 37.0136 32.7818 37.2269 31.3757C37.5339 29.3459 37.8152 27.3078 38.1082 25.2752C38.4012 23.2426 38.7036 21.1404 39.0013 19.0744C39.1209 18.2474 39.2662 17.4205 39.2943 16.5796C39.3178 15.8779 39.2615 15.1317 38.9662 14.5108C38.8302 14.2268 38.6474 13.9901 38.427 13.798C38.3262 13.7117 38.2301 13.9094 38.3309 13.9957C39.3342 14.87 39.156 16.6492 38.9755 17.9161C38.6943 19.893 38.4059 21.8671 38.12 23.8412C37.834 25.8153 37.5503 27.7922 37.2667 29.7691C37.0511 31.2783 36.9221 32.9405 36.2564 34.2882C35.9353 34.9397 35.4665 35.466 34.8687 35.7388C34.2077 36.0423 33.4764 36.0841 32.7755 36.137C31.6245 36.2205 30.3494 36.2372 29.2969 35.5996C28.7671 35.2794 28.3429 34.7838 28.0827 34.149C27.9209 33.7508 27.8201 33.322 27.731 32.896C27.6326 32.4254 27.5388 31.9549 27.4427 31.4843C27.0442 29.5241 26.6457 27.5667 26.2449 25.6065C26.048 24.6376 25.8511 23.6714 25.6542 22.7024C25.4573 21.7335 25.2463 20.7868 25.0752 19.8206C24.9041 18.8544 24.7939 17.8715 24.9768 16.9165C25.1151 16.187 25.4292 15.4853 25.9074 14.9953C26.1418 14.7531 26.416 14.5776 26.7161 14.4802C26.7747 14.4607 26.7512 14.3521 26.6903 14.3716Z" fill="black"/>
<path d="M27.077 14.87C26.4676 14.4301 26.2707 13.5586 26.3973 12.7594C26.5473 11.8211 27.1192 11.1501 27.8131 10.7213C28.6124 10.2257 29.5313 10.0168 30.4126 9.83307C31.444 9.61868 32.4895 9.49895 33.5349 9.47389C34.4843 9.45161 35.4969 9.47667 36.3595 10.0141C37.0792 10.4623 37.6417 11.2503 37.9113 12.1608C38.0402 12.5979 38.1715 13.1827 38.0496 13.6393C37.9137 14.1488 37.3651 14.2407 36.9901 14.3437C36.0032 14.6166 35.014 14.8839 34.0155 15.0927C32.0371 15.5076 29.9837 15.6914 28.0053 15.1679C27.7662 15.1039 27.5294 15.0315 27.2927 14.948C27.1474 14.8978 27.0864 15.1651 27.2294 15.2153C29.3062 15.9392 31.4886 15.8195 33.6029 15.4157C34.6859 15.2097 35.7571 14.9285 36.826 14.6333C37.2292 14.5219 37.7214 14.4551 38.0332 14.0987C38.345 13.7423 38.3075 13.1437 38.2301 12.6676C38.0754 11.693 37.6019 10.7965 36.9456 10.1895C36.1626 9.46832 35.1711 9.27063 34.2053 9.24836C33.1083 9.22051 32.0066 9.32632 30.9236 9.52401C29.9509 9.69942 28.9453 9.91382 28.0381 10.3844C27.2997 10.7686 26.6012 11.3979 26.3363 12.3334C26.1253 13.0796 26.1816 14.0041 26.6293 14.6166C26.7418 14.7698 26.8754 14.8839 27.0278 14.9758C27.0841 15.0092 27.1333 14.9145 27.077 14.8756V14.87Z" fill="black"/>
<path d="M27.6584 31.7098C26.6223 31.8936 25.6191 32.3001 24.6111 32.6342C23.6032 32.9684 22.5671 33.2914 21.538 33.5976C19.4917 34.2046 17.4312 34.742 15.3591 35.2042C14.8879 35.31 14.4121 35.4103 13.9573 35.6024C13.5541 35.7722 13.083 36.02 12.8392 36.4572C12.7994 36.5296 12.8791 36.6242 12.94 36.5769C13.1041 36.4433 13.2565 36.2846 13.4276 36.162C13.6128 36.0284 13.8097 35.9226 14.0136 35.8363C14.4027 35.6692 14.8106 35.5718 15.2161 35.4771C16.2287 35.246 17.2367 35.0037 18.2446 34.742C20.2863 34.2102 22.3139 33.6116 24.3251 32.9322C25.4386 32.5563 26.545 32.0718 27.6889 31.8463C27.7615 31.8324 27.7311 31.7015 27.6584 31.7154V31.7098Z" fill="black"/>
<path d="M37.255 29.0759C38.4364 28.6081 39.5686 29.3738 40.4171 30.3149C41.3337 31.3312 42.0557 32.6037 42.719 33.8594C43.3824 35.1151 43.9942 36.5129 44.3646 37.9747C44.7349 39.4365 44.9365 40.9985 44.6224 42.4464C44.4724 43.1341 44.1794 43.7523 43.7434 44.2395C43.3449 44.685 42.8573 45.0052 42.3533 45.253C41.8494 45.5008 41.3079 45.6902 40.7711 45.8572C40.0796 46.0744 39.3858 46.2832 38.6919 46.4976C35.8204 47.3803 32.9513 48.2629 30.0798 49.1428C27.2083 50.0226 24.3392 50.9081 21.4677 51.7879C21.1091 51.8993 20.7504 52.0079 20.3918 52.1221C20.2558 52.1638 20.3121 52.4144 20.4504 52.3727C23.418 51.4761 26.3809 50.5517 29.3461 49.6384C32.3114 48.7251 35.2766 47.8146 38.2419 46.9042C38.9779 46.6786 39.7139 46.4503 40.4523 46.2248C41.0172 46.0521 41.5822 45.8767 42.1283 45.6345C43.1667 45.1778 44.1653 44.4511 44.6318 43.2037C45.1522 41.8116 45.0303 40.1493 44.7537 38.7042C44.4771 37.2591 43.9262 35.7778 43.2769 34.4497C42.9441 33.7731 42.5807 33.116 42.1986 32.4784C41.8166 31.8407 41.4626 31.2699 41.0383 30.7214C40.2648 29.7274 39.2146 28.7167 38.0145 28.725C37.7402 28.725 37.473 28.7891 37.2175 28.9004C37.1261 28.9394 37.1636 29.1121 37.2573 29.0759H37.255Z" fill="black"/>
<path d="M15.7178 37.5821C14.6044 36.5547 13.0995 36.4043 11.7891 36.9473C10.4788 37.4902 9.38646 38.8323 8.79575 40.3776C8.13004 42.115 8.02456 44.0474 8.25896 45.9185C8.39023 46.9571 8.61995 47.9761 8.90593 48.9702C9.14033 49.7888 9.41459 50.5934 9.7662 51.3536C10.4178 52.768 11.3766 54.0544 12.7103 54.5472C13.5331 54.8507 14.445 54.9009 15.3005 54.8674C16.0975 54.8368 16.8945 54.6781 17.6259 54.2883C19.9676 53.0437 21.142 49.786 21.0154 46.8652C20.8654 43.3652 18.9409 40.3303 16.7937 38.1139C16.5124 37.8243 16.2241 37.5431 15.9311 37.2702C15.8186 37.1644 15.6568 37.3538 15.7717 37.4596C18.0103 39.5172 20.0567 42.2431 20.6591 45.6206C21.1513 48.3882 20.3942 51.6738 18.4392 53.4196C17.2203 54.5083 15.699 54.7032 14.2176 54.589C13.4276 54.5278 12.6447 54.3663 11.9532 53.8846C11.3766 53.4836 10.8937 52.9156 10.4975 52.278C9.64196 50.8997 9.12861 49.2235 8.75825 47.5835C8.33866 45.7208 8.16286 43.73 8.57072 41.8394C8.91765 40.2328 9.67244 38.7014 10.8468 37.7603C12.0212 36.8192 13.4604 36.5881 14.7427 37.1366C15.0638 37.273 15.3615 37.4679 15.6334 37.7074C15.6967 37.7631 15.7811 37.635 15.7178 37.5765V37.5821Z" fill="black"/>
<path d="M22.8766 44.0892C25.2089 43.3402 27.5319 42.5466 29.8431 41.7085C32.1544 40.8704 34.4539 39.9934 36.7441 39.0745C38.0286 38.5594 39.3202 38.0527 40.5813 37.4679C40.6704 37.4262 40.6352 37.2591 40.5415 37.2953C39.3976 37.7352 38.2654 38.2253 37.1285 38.6875C35.9916 39.1497 34.829 39.6063 33.6757 40.0518C31.3785 40.9373 29.0673 41.7837 26.749 42.5884C25.448 43.0395 24.1424 43.485 22.8367 43.9138C22.7406 43.9444 22.7828 44.1198 22.8766 44.0892Z" fill="black"/>
<path d="M9.30435 46.9236C9.59736 48.8225 10.3756 50.5906 11.5218 51.9605C11.8383 52.3392 12.1946 52.729 12.6001 52.974C12.6259 52.9907 12.6564 52.949 12.6329 52.9239C12.3493 52.6009 12.0352 52.3169 11.7539 51.9939C11.4726 51.671 11.1937 51.3034 10.9475 50.9247C10.4623 50.1702 10.0568 49.3154 9.7802 48.4244C9.62549 47.926 9.50828 47.4109 9.42624 46.8902C9.41218 46.7955 9.29029 46.8345 9.30435 46.9292V46.9236Z" fill="black"/>
<path d="M19.6324 59.406C17.4875 58.9605 15.3333 58.579 13.1909 58.1335C11.0531 57.6908 8.92231 57.2202 6.7939 56.7135C5.59374 56.4267 4.39592 56.1315 3.1981 55.8225L3.27076 55.9339C3.24498 55.3742 3.9482 55.157 4.28575 55.0011C4.7991 54.7616 5.31714 54.5389 5.84221 54.3328C6.88766 53.918 7.95421 53.5699 9.03014 53.2887C9.6396 53.13 10.2561 52.9908 10.8726 52.8738C11.0062 52.8488 10.9499 52.6038 10.8163 52.6316C8.49335 53.0799 6.21257 53.8289 4.0279 54.873C3.63644 55.0596 3.04573 55.3241 3.07621 55.9366C3.07621 55.9868 3.10434 56.0369 3.14887 56.048C5.27963 56.591 7.41508 57.1033 9.55755 57.5794C11.7 58.0555 13.8472 58.4983 15.9991 58.902C17.2039 59.1303 18.4111 59.3447 19.6253 59.5118C19.6745 59.5173 19.6863 59.4171 19.637 59.406H19.6324Z" fill="black"/>
<path d="M18.7814 59.0857C21.6435 58.2393 24.4963 57.3539 27.349 56.4601C30.2017 55.5663 33.0779 54.6502 35.9377 53.7258C38.7834 52.8042 41.6267 51.8714 44.4654 50.9275C47.3181 49.9781 50.1709 49.0203 53.0189 48.0457C55.8669 47.0712 58.6869 46.1022 61.5138 45.111C61.8748 44.9857 62.2358 44.8576 62.5944 44.7323C62.7116 44.6906 62.66 44.4762 62.5452 44.5152C59.7159 45.5008 56.8819 46.4753 54.0479 47.4415C51.214 48.4077 48.3472 49.3711 45.4944 50.3206C42.6534 51.2645 39.8124 52.2 36.9667 53.1244C34.121 54.0488 31.2472 54.976 28.3851 55.8893C25.537 56.7998 22.6867 57.6991 19.8363 58.5957C19.4729 58.7099 19.112 58.8351 18.7486 58.9493C18.676 58.9716 18.7064 59.1024 18.7791 59.0802L18.7814 59.0857Z" fill="black"/>
<path d="M3.64574 55.9394C3.21912 58.4453 2.83938 61.1545 3.78404 63.5658C4.00907 64.1421 4.3138 64.7185 4.70995 65.1557C4.81543 65.2726 4.96311 65.0944 4.867 64.9691C4.55289 64.5542 4.27864 64.1282 4.06298 63.627C3.84733 63.1259 3.69965 62.6024 3.59417 62.0622C3.35039 60.826 3.38086 59.5479 3.50275 58.295C3.57776 57.5209 3.67856 56.7524 3.78404 55.984C3.7981 55.8809 3.66684 55.8336 3.64808 55.9394H3.64574Z" fill="black"/>
<path d="M7.02356 66.7678C8.14403 67.1353 9.33481 67.2606 10.4928 67.2021C11.6508 67.1437 12.8064 66.9126 13.8729 66.4086C15.6544 65.5705 16.939 63.8163 17.8696 61.8812C18.3993 60.7758 18.8283 59.6092 19.2221 58.4286C19.2737 58.2727 19.0627 58.2058 19.0111 58.359C18.3384 60.3776 17.5508 62.4242 16.3108 64.0474C15.706 64.841 14.9957 65.5092 14.1823 65.9742C13.1697 66.5562 12.0235 66.8374 10.9077 66.9543C9.61141 67.0907 8.32921 66.946 7.06341 66.6063C6.97434 66.584 6.93683 66.7399 7.02591 66.7678H7.02356Z" fill="black"/>
<path d="M3.38102 67.4416C3.23335 67.4054 3.20522 67.1994 3.20053 67.049C3.1935 66.8263 3.20991 66.6007 3.2146 66.3808C3.22632 65.9074 3.23569 65.4341 3.24507 64.9607C3.25444 64.4874 3.26148 64.0391 3.27085 63.5769C3.28023 63.1147 3.32008 62.633 3.25913 62.1764C3.2521 62.1179 3.1724 62.1207 3.16303 62.1764C3.07864 62.6748 3.11146 63.2094 3.10442 63.7161C3.09739 64.2591 3.08802 64.7992 3.08098 65.3422C3.07395 65.8851 3.06692 66.403 3.06458 66.9348C3.06458 67.1827 3.10911 67.5418 3.36696 67.5613C3.42322 67.5641 3.43728 67.4583 3.38102 67.4444V67.4416Z" fill="black"/>
<path d="M3.47711 70.1925C3.71386 70.9109 4.15455 71.4733 4.64446 71.9634C5.13437 72.4534 5.65709 72.8739 6.21029 73.2386C7.31669 73.9626 8.53326 74.4415 9.77562 74.7088C12.5111 75.2935 15.3029 74.8341 17.9447 73.9041C19.5434 73.3417 21.1209 72.6372 22.6446 71.8381C22.7477 71.7824 22.6727 71.5652 22.5672 71.6181C21.217 72.2585 19.8786 72.9212 18.4909 73.4475C17.1149 73.9709 15.7038 74.3858 14.2669 74.5946C11.7517 74.9622 9.10522 74.6726 6.79631 73.3639C6.17513 73.0103 5.58443 72.5871 5.03826 72.0887C4.45928 71.5597 3.89904 70.9387 3.60838 70.1257C3.57556 70.0366 3.44429 70.1006 3.47477 70.1925H3.47711Z" fill="black"/>
<path d="M22.1499 72.0776C22.0772 71.0028 22.0327 69.9476 22.1452 68.8728C22.2577 67.798 22.4874 66.765 22.8203 65.771C23.4836 63.7858 24.59 61.9843 26.0363 60.7063C27.4826 59.4282 29.175 58.7628 30.9425 58.682C32.7099 58.6013 34.4468 59.0913 35.9517 60.1438C36.7018 60.6673 37.3769 61.3327 37.9442 62.1179C38.6099 63.0396 39.1373 64.092 39.8429 64.9747C40.0187 65.1947 40.2062 65.4007 40.4055 65.5928C40.5227 65.7042 40.6891 65.5093 40.5719 65.3951C39.7327 64.596 39.1561 63.5101 38.5068 62.5077C37.9465 61.6446 37.3066 60.8845 36.5495 60.2691C35.0774 59.0746 33.2959 58.4509 31.5191 58.4064C29.7306 58.3618 27.935 58.9131 26.4278 60.0659C24.9205 61.2186 23.6758 62.9755 22.9 64.9413C22.1241 66.907 21.7631 69.1485 21.9365 71.3342C21.9576 71.5931 21.9928 71.8465 22.042 72.0999C22.0561 72.1751 22.1616 72.1584 22.1545 72.0804L22.1499 72.0776Z" fill="black"/>
<path d="M40.1547 65.1167C40.1617 65.3339 40.3352 65.423 40.4992 65.4508C40.7665 65.4926 41.0595 65.4257 41.3244 65.3951C41.9338 65.3199 42.5433 65.2141 43.1457 65.0749C44.3787 64.7909 45.5906 64.3788 46.7626 63.8414C47.0884 63.6939 47.4096 63.5352 47.7283 63.3681C48.0471 63.201 48.3941 63.0423 48.6918 62.8168C48.7855 62.7472 48.7269 62.5439 48.6121 62.594C48.3472 62.7138 48.094 62.8836 47.8362 63.0228C47.5619 63.1732 47.283 63.3152 47.004 63.4488C46.4672 63.7078 45.9211 63.9417 45.3702 64.1477C44.2568 64.5654 43.1176 64.8828 41.9643 65.0916C41.6361 65.1501 41.3079 65.2002 40.9798 65.242C40.7454 65.2726 40.3844 65.3756 40.2297 65.0916C40.2086 65.0554 40.1547 65.0666 40.157 65.1139L40.1547 65.1167Z" fill="black"/>
<path d="M48.4598 62.8363C48.3919 60.7675 48.4809 58.7182 48.8513 56.6912C48.9404 56.1956 49.0459 55.7027 49.1654 55.2183C49.2849 54.7338 49.3998 54.2855 49.5873 53.8511C49.953 53.0019 50.6093 52.4729 51.2797 51.9967C53.7856 50.2148 56.7625 49.4379 59.6668 49.6969C61.31 49.8416 62.9157 50.3317 64.4182 51.1336C64.5519 51.2032 64.6691 50.9721 64.5331 50.8997C61.8234 49.3934 58.694 49.023 55.7663 49.6885C54.3012 50.0226 52.8761 50.6241 51.5704 51.4789C50.9024 51.916 50.1898 52.4033 49.7069 53.1216C49.1959 53.8818 48.9896 54.8925 48.7927 55.8169C48.3098 58.0861 48.1035 60.5085 48.3286 62.8391C48.3379 62.9365 48.4622 62.9393 48.4575 62.8391L48.4598 62.8363Z" fill="black"/>
<path d="M64.3267 50.9777C64.3783 50.4125 64.2986 49.811 64.2681 49.2458C64.2377 48.6806 64.2001 48.068 64.1673 47.4777C64.0993 46.3111 64.0314 45.1445 63.961 43.9778C63.954 43.8442 63.7782 43.8442 63.7852 43.9778C63.8556 45.1556 63.9306 46.3334 64.0056 47.5112C64.0431 48.0875 64.0782 48.6667 64.1158 49.243C64.1533 49.8194 64.1486 50.4264 64.2681 50.9861C64.2775 51.0278 64.322 51.0139 64.3267 50.9777Z" fill="black"/>
<path d="M31.6526 77.6269C31.0713 77.4626 30.49 77.2983 29.9251 77.07C29.3601 76.8417 28.821 76.5716 28.2936 76.2542C27.2364 75.6138 26.2543 74.7924 25.3963 73.8178C24.9064 73.2638 24.4704 72.6568 24.0532 72.0247C23.9875 71.9245 23.8422 72.0581 23.9055 72.1611C25.3049 74.4694 27.4193 76.2235 29.6672 77.1591C30.3048 77.4236 30.9682 77.6408 31.6409 77.7327C31.6925 77.741 31.7019 77.6408 31.6526 77.6269Z" fill="black"/>
<path d="M23.5939 72.0999C23.3009 70.5351 23.2048 68.8951 23.458 67.3108C23.5799 66.5479 23.7885 65.8016 24.0979 65.1167C24.4284 64.3844 24.8761 63.744 25.3918 63.1871C27.2999 61.1239 29.9862 59.8041 32.5858 59.9851C33.8586 60.0742 35.0916 60.567 36.1136 61.4803C37.1989 62.4521 38.0404 63.8136 38.5772 65.2865C39.5828 68.0403 39.5594 71.4121 38.1459 73.9654C36.8567 76.2931 34.5032 77.8218 32.1427 77.6603C31.8474 77.6408 31.5567 77.5907 31.2684 77.5155C31.1254 77.4793 31.0645 77.7382 31.2075 77.7744C33.6265 78.3898 36.1839 77.1674 37.7802 74.9761C39.5125 72.5983 39.8852 69.2292 39.1234 66.2722C38.7249 64.7269 38.024 63.2929 37.0723 62.1346C36.1206 60.9763 34.9158 60.18 33.5773 59.8765C30.959 59.2807 28.1766 60.4028 26.0786 62.2571C25.4879 62.7806 24.9324 63.3625 24.48 64.0586C24.0721 64.6851 23.765 65.3951 23.5541 66.1441C23.1228 67.6755 23.0946 69.335 23.3056 70.9221C23.3595 71.3258 23.4298 71.7296 23.5142 72.1249C23.5283 72.189 23.6103 72.1611 23.5963 72.0971L23.5939 72.0999Z" fill="black"/>
<path d="M37.2762 62.8307C36.9152 62.168 36.2354 61.9147 35.6095 61.7921C35.2509 61.7225 34.8899 61.6919 34.5289 61.6613C34.0953 61.6223 33.6593 61.5945 33.2233 61.6028C32.4216 61.6195 31.627 61.7838 30.9073 62.2181C30.2815 62.5968 29.74 63.1481 29.2782 63.7746C28.8164 64.4011 28.4062 65.1362 28.0569 65.8852C27.6655 66.7205 27.3186 67.5892 27.0584 68.4941C26.7982 69.399 26.6364 70.3541 26.6693 71.3091C26.6997 72.1945 26.9107 73.0493 27.2787 73.8178C27.6702 74.6392 28.2187 75.3437 28.8117 75.9646C29.4048 76.5855 30.0775 77.1841 30.755 77.7104C30.8651 77.7967 30.9612 77.5906 30.8581 77.5015C29.7447 76.5381 28.5797 75.6137 27.7663 74.2605C27.3701 73.6006 27.0771 72.86 26.9482 72.0609C26.8005 71.1365 26.8802 70.1787 27.0771 69.2737C27.274 68.3688 27.5998 67.4528 27.9679 66.598C28.282 65.8685 28.6289 65.1584 29.0414 64.5013C29.454 63.8442 29.9228 63.2595 30.483 62.7973C31.0925 62.2933 31.7864 61.987 32.5247 61.8785C33.4061 61.7476 34.3156 61.8311 35.197 61.9314C35.94 62.0149 36.6878 62.2042 37.2129 62.8808C37.2433 62.9198 37.2996 62.8697 37.2738 62.8251L37.2762 62.8307Z" fill="black"/>
<path d="M35.8018 64.4039C34.9954 63.6187 33.9219 63.6326 32.9491 63.8693C32.4193 63.9974 31.8942 64.1811 31.3856 64.3927C30.8769 64.6044 30.4339 64.9385 30.1174 65.4842C29.801 66.03 29.5783 66.7093 29.3486 67.3303C29.0954 68.0208 28.861 68.7224 28.7016 69.4519C28.4274 70.716 28.4016 72.0553 28.9149 73.2387C29.3814 74.3107 30.3026 75.2796 31.3762 75.1766C31.484 75.1655 31.4887 74.9733 31.3762 74.9733C30.455 74.9622 29.6861 74.3218 29.2126 73.4085C28.6594 72.3393 28.5985 71.0947 28.8118 69.8891C28.929 69.2153 29.1235 68.5637 29.3415 67.9289C29.5595 67.2941 29.7775 66.6926 30.0354 66.0996C30.2768 65.5399 30.5862 65.0638 31.0715 64.7826C31.5567 64.5013 32.0536 64.3538 32.5482 64.2006C33.5749 63.8832 34.8056 63.6827 35.701 64.5208C35.7713 64.5877 35.8745 64.4707 35.8018 64.4011V64.4039Z" fill="black"/>
<path d="M51.0241 63.1342C50.7381 60.7981 50.4474 58.3368 51.1624 56.0675C51.7296 54.2688 52.8477 52.7458 54.2143 51.735C55.7005 50.638 57.4585 50.2064 59.1955 50.3818C61.0121 50.5656 62.8147 51.3953 64.2423 52.7485C64.9455 53.414 65.5526 54.2215 65.9651 55.1765C66.3777 56.1315 66.6144 57.2704 66.6684 58.373C66.7551 60.1828 66.3613 61.9954 65.6206 63.5714C64.8798 65.1473 63.7852 66.5284 62.4608 67.45C61.1481 68.3633 59.6385 68.7837 58.1195 68.6445C56.624 68.5053 55.1731 67.8537 53.9424 66.8402C52.7118 65.8267 51.6851 64.4317 51.0709 62.8001C50.9233 62.4075 50.785 61.9926 50.6889 61.575C50.656 61.4358 50.4755 61.4942 50.506 61.6335C50.7146 62.5272 51.0147 63.3598 51.439 64.1394C51.8632 64.919 52.3672 65.6123 52.9438 66.2221C54.0995 67.4444 55.527 68.3187 57.0436 68.6974C58.5649 69.0789 60.1565 68.9369 61.5935 68.2241C63.0304 67.5113 64.2891 66.2778 65.2127 64.777C66.1363 63.2762 66.7363 61.4692 66.8653 59.6037C67.0129 57.4708 66.5277 55.2461 65.3276 53.62C64.111 51.9717 62.3365 50.8802 60.5527 50.393C58.7712 49.9057 56.8608 50.031 55.1731 50.8969C53.6635 51.671 52.3555 53.0214 51.5257 54.7087C51.092 55.5914 50.799 56.5603 50.6678 57.5711C50.5084 58.8157 50.567 60.0826 50.7029 61.3272C50.7709 61.9397 50.8576 62.5467 50.9444 63.1565C50.9537 63.2178 51.0311 63.1927 51.0241 63.1314V63.1342Z" fill="black"/>
<path d="M64.5448 52.6427C63.7454 52.1916 62.8852 52.0301 62.0132 51.9271C61.1412 51.8241 60.2551 51.7573 59.4042 52.0246C58.6026 52.2752 57.9064 52.8487 57.3086 53.5114C56.7578 54.1212 56.2843 54.8312 55.9022 55.5997C55.1427 57.1283 54.7325 58.9159 54.7794 60.6951C54.8263 62.4743 55.3138 64.0642 56.1483 65.4508C56.9828 66.8374 58.1033 67.9149 59.4206 68.5303C59.5847 68.6083 59.7511 68.6751 59.9199 68.7363C60.0535 68.7837 60.1098 68.5359 59.9785 68.4885C57.3344 67.5307 55.3302 64.5876 55.0325 61.3327C54.8755 59.6148 55.1661 57.855 55.8155 56.3125C56.1342 55.5551 56.5351 54.8451 57.0133 54.2186C57.529 53.542 58.1337 52.9184 58.8323 52.523C59.716 52.0218 60.7146 52.0218 61.6686 52.1053C62.6226 52.1888 63.6142 52.3086 64.5049 52.7513C64.5588 52.7763 64.5963 52.6705 64.5448 52.6399V52.6427Z" fill="black"/>
<path d="M64.069 55.363C63.565 54.8925 62.9603 54.6335 62.3344 54.4999C61.6734 54.3606 60.9795 54.3022 60.3091 54.3105C59.6387 54.3189 59.0293 54.5806 58.5019 55.0957C58.0049 55.5774 57.5947 56.2039 57.2618 56.8554C56.6032 58.1418 56.2258 59.6649 56.2937 61.1768C56.3617 62.6887 56.8446 63.9723 57.7025 64.9997C58.1643 65.551 58.7175 65.9965 59.327 66.2833C59.9364 66.5701 60.6045 66.7177 61.235 66.5729C61.3476 66.5478 61.3218 66.3334 61.2093 66.339C60.6514 66.3557 60.1193 66.3195 59.5872 66.1079C59.0551 65.8963 58.5651 65.5538 58.1432 65.125C57.2736 64.2452 56.711 63.0312 56.5539 61.6863C56.3852 60.2552 56.6571 58.7711 57.2103 57.4931C57.4869 56.8554 57.8338 56.254 58.2487 55.7306C58.6636 55.2071 59.1957 54.7365 59.8216 54.6085C60.213 54.5277 60.6162 54.5639 61.0124 54.5862C61.3522 54.6057 61.6945 54.6307 62.032 54.6781C62.7259 54.7755 63.4197 54.9899 63.9823 55.505C64.0503 55.5691 64.144 55.4271 64.0761 55.3602L64.069 55.363Z" fill="black"/>
<path d="M46.1462 16.6771C46.1345 20.8453 46.1345 25.0135 46.1392 29.1789C46.1438 33.3471 46.1485 37.5153 46.1532 41.6807C46.1556 44.0195 46.1579 46.3584 46.1603 48.6973C46.1603 48.8337 46.3384 48.8337 46.3384 48.6973C46.3314 44.5291 46.3243 40.3609 46.3173 36.1955C46.3103 32.0301 46.3079 27.8591 46.2939 23.6937C46.2868 21.3548 46.2775 19.0159 46.2634 16.6771C46.2634 16.5852 46.1438 16.5852 46.1415 16.6771H46.1462Z" fill="black"/>
<path d="M39.2686 47.0072C40.9024 47.9344 42.705 48.4718 44.5029 48.6806C44.7537 48.7112 45.0069 48.7335 45.2577 48.7502C45.5085 48.7669 45.7757 48.7948 46.0312 48.7447C46.0922 48.7335 46.0898 48.6138 46.0312 48.6027C45.7593 48.547 45.4804 48.5581 45.2038 48.5414C44.9272 48.5247 44.6271 48.4941 44.3411 48.4606C43.7575 48.3883 43.1761 48.2741 42.6018 48.1321C41.4697 47.8509 40.3773 47.4193 39.3037 46.907C39.2545 46.8847 39.2194 46.9821 39.2686 47.0072Z" fill="black"/>
<path d="M46.1414 48.6611C48.4269 47.8759 50.6959 47.0183 52.9673 46.1746C55.2293 45.3338 57.4914 44.4929 59.7534 43.652C61.0286 43.1787 62.3037 42.7053 63.5789 42.2292C63.7078 42.1819 63.6539 41.9368 63.5226 41.9869C61.2512 42.8334 58.9798 43.6798 56.7084 44.5263C54.4464 45.37 52.1844 46.2108 49.9247 47.0601C48.6495 47.539 47.3744 48.0151 46.1086 48.5246C46.0383 48.5525 46.0664 48.6833 46.139 48.6583L46.1414 48.6611Z" fill="black"/>
<path d="M63.7712 42.193C63.7759 40.1911 63.7102 38.1835 63.6633 36.1816C63.6165 34.1796 63.5672 32.1749 63.518 30.1701C63.4219 26.1857 63.3258 22.2013 63.2297 18.2168C63.1758 15.9699 63.1219 13.7229 63.0656 11.4759C63.0633 11.3339 62.8757 11.3339 62.8781 11.4759C62.9765 15.4826 63.075 19.4921 63.1734 23.4988C63.2719 27.4832 63.3703 31.4676 63.4664 35.4521C63.5227 37.6991 63.5532 39.9516 63.668 42.193C63.6727 42.271 63.7712 42.271 63.7712 42.193Z" fill="black"/>
<path d="M46.6781 38.384C46.5469 38.4452 46.4226 38.3979 46.3359 38.267L46.3101 38.384C48.4479 37.66 50.5904 36.9584 52.7376 36.2873C54.8847 35.6163 57.0249 34.9815 59.1767 34.3801C60.398 34.0404 61.6216 33.7062 62.8475 33.386C62.9507 33.3582 62.9061 33.1716 62.8053 33.1995C60.6347 33.7619 58.4712 34.3633 56.3146 34.9982C54.1581 35.633 52.0273 36.2985 49.8965 37.0029C48.687 37.4039 47.4822 37.8187 46.282 38.2475C46.2351 38.2642 46.2281 38.3255 46.2562 38.3645C46.3711 38.5315 46.5563 38.5677 46.718 38.4814C46.7649 38.4564 46.7321 38.3589 46.6828 38.3812L46.6781 38.384Z" fill="black"/>
<path d="M44.7748 37.8271C44.9272 37.8717 45.0796 37.8884 45.2366 37.9134L45.7101 37.983C45.7851 37.9942 45.7968 37.8522 45.7289 37.8299C45.5062 37.7575 45.2811 37.6963 45.0538 37.6489C44.8264 37.6016 44.6014 37.557 44.3763 37.5431C44.2873 37.5375 44.292 37.6907 44.3763 37.7046C44.599 37.738 44.8217 37.7631 45.0444 37.8104C45.2671 37.8577 45.4804 37.9134 45.6937 37.9803L45.7125 37.8271L45.2507 37.7631C45.096 37.7408 44.9459 37.713 44.7889 37.7157C44.735 37.7157 44.7209 37.8132 44.7748 37.8299V37.8271Z" fill="black"/>
<path d="M39.1748 15.9336C40.3375 15.9893 41.5002 16.0366 42.6628 16.1118C43.2441 16.148 43.8255 16.1898 44.4045 16.2343C44.9834 16.2789 45.5671 16.3708 46.1461 16.3652C46.2211 16.3652 46.2422 16.2204 46.1648 16.2037C45.607 16.0979 45.0256 16.0895 44.4631 16.0478C43.9005 16.006 43.2816 15.9642 42.6909 15.9308C41.5189 15.864 40.3469 15.8028 39.1725 15.7833C39.0905 15.7833 39.0905 15.9308 39.1725 15.9364L39.1748 15.9336Z" fill="black"/>
<path d="M46.5775 15.9197C48.6496 15.2375 50.7311 14.5971 52.8244 14.018C54.9176 13.4388 57.0203 12.9126 59.1346 12.4476C59.7324 12.3167 60.3324 12.1887 60.9325 12.0689C61.5326 11.9492 62.1374 11.8573 62.7328 11.707C62.8265 11.6819 62.8078 11.4926 62.7093 11.5037C62.1819 11.5677 61.6568 11.6903 61.1341 11.7933C60.6114 11.8963 60.0652 12.0105 59.5331 12.1246C58.4759 12.3529 57.4211 12.5952 56.3686 12.8513C54.2543 13.3692 52.1516 13.9512 50.0607 14.5944C48.8817 14.9563 47.7096 15.3461 46.5423 15.7554C46.4556 15.7861 46.4931 15.9448 46.5798 15.9169L46.5775 15.9197Z" fill="black"/>
<path d="M36.662 9.74397C36.8941 9.27063 37.1543 8.83348 37.4965 8.46038C37.8387 8.08727 38.2232 7.78935 38.6404 7.55824C39.6015 7.02643 40.6891 6.89557 41.7346 7.02086C42.78 7.14616 43.7599 7.49142 44.5311 8.31559C45.2132 9.0451 45.6867 10.028 45.9727 11.0582C46.1672 11.7599 46.2868 12.4894 46.3641 13.2216C46.4415 13.9539 46.4438 14.6779 46.5235 15.399C46.5352 15.5104 46.6806 15.477 46.6829 15.374C46.6993 14.6834 46.6337 13.9734 46.5634 13.2885C46.493 12.6035 46.3946 11.9353 46.2305 11.2782C45.9609 10.2006 45.5132 9.16204 44.8405 8.36014C44.088 7.46079 43.1152 7.032 42.0721 6.85937C41.029 6.68674 39.8593 6.75635 38.8467 7.24918C37.9114 7.70582 36.9832 8.55505 36.5706 9.67993C36.5448 9.74954 36.6245 9.8108 36.6597 9.74119L36.662 9.74397Z" fill="black"/>
<path d="M40.0164 7.13223C40.8181 6.49182 41.7276 6.08252 42.6535 5.77346C43.6427 5.4449 44.6506 5.19152 45.6492 4.91309C47.7964 4.31445 49.9459 3.71859 52.093 3.11995C53.3096 2.78026 54.5262 2.44057 55.7427 2.10088C55.8459 2.07303 55.8013 1.88648 55.7005 1.91432C53.5346 2.52131 51.3687 3.12552 49.2028 3.7353C48.1198 4.03879 47.0369 4.34508 45.9539 4.64857C44.9319 4.93536 43.9029 5.20266 42.8879 5.52843C41.8729 5.8542 40.8392 6.28578 39.9672 7.0292C39.9156 7.07375 39.9648 7.17399 40.0164 7.12944V7.13223Z" fill="black"/>
<path d="M55.6161 2.11763C56.3427 1.80857 57.1397 2.38215 57.7422 2.81651C58.3446 3.25087 58.8837 3.76041 59.3783 4.33677C60.3769 5.50064 61.1692 6.89839 61.7716 8.39359C62.1584 9.3542 62.5405 10.3844 62.4631 11.4731C62.4514 11.6318 62.6506 11.6235 62.667 11.4731C62.7772 10.4819 62.4209 9.49342 62.0857 8.61078C61.7786 7.80609 61.42 7.03204 61.0051 6.29975C60.1917 4.86302 59.1603 3.58778 57.9109 2.68286C57.5663 2.43227 57.203 2.20116 56.8256 2.02575C56.4224 1.8392 55.9677 1.73617 55.5645 1.97285C55.4989 2.01183 55.5458 2.14548 55.6161 2.11485V2.11763Z" fill="black"/>
<path d="M46.521 4.84067C46.9781 5.75394 47.8267 6.33309 48.7151 6.39434C49.6035 6.4556 50.4497 5.92936 50.9818 5.09126C51.1295 4.86016 51.2467 4.604 51.3381 4.33391C51.385 4.19748 51.4225 4.05548 51.4506 3.91069C51.4764 3.77704 51.5186 3.6239 51.474 3.49303C51.4529 3.42621 51.3826 3.41229 51.3475 3.47354C51.2935 3.56543 51.2912 3.66845 51.2724 3.77704C51.2513 3.89677 51.2232 4.0165 51.1904 4.13344C51.1248 4.35619 51.0357 4.57058 50.9302 4.77106C50.7122 5.17758 50.4145 5.52562 50.0652 5.77343C49.3409 6.28854 48.4408 6.29411 47.6907 5.85418C47.2664 5.60637 46.9054 5.2277 46.6523 4.75435C46.6007 4.65968 46.4741 4.746 46.5234 4.84345L46.521 4.84067Z" fill="black"/>
<path d="M47.2407 10.3649C50.1052 9.91661 52.9462 9.24279 55.7356 8.3323C56.5326 8.07057 57.3413 7.81998 58.1149 7.47193C58.2016 7.43295 58.1688 7.27424 58.075 7.30209C57.3718 7.5137 56.6826 7.78378 55.9841 8.01488C55.2856 8.24599 54.5823 8.46317 53.8791 8.66921C52.4797 9.07851 51.0686 9.43491 49.6504 9.73562C48.8441 9.90547 48.0354 10.0614 47.2243 10.1978C47.1446 10.2117 47.1634 10.376 47.2431 10.3649H47.2407Z" fill="black"/>
<path d="M55.4989 21.3297C54.7348 21.2601 54.0269 21.7502 53.5158 22.3878C52.9697 23.07 52.5946 23.9526 52.4188 24.8687C52.243 25.7847 52.2665 26.7954 52.5571 27.6892C52.815 28.4855 53.265 29.1816 53.844 29.6884C54.423 30.1952 55.1403 30.4847 55.8599 30.443C56.5795 30.4012 57.2476 30.0838 57.7797 29.5408C58.3915 28.9199 58.6775 28.0595 58.7783 27.1268C58.8861 26.1383 58.9072 25.0858 58.7384 24.1057C58.5814 23.2064 58.211 22.385 57.5851 21.8281C57.0202 21.3269 56.2889 21.068 55.5833 21.1348C55.4052 21.1515 55.2317 21.1877 55.0606 21.2434C54.9153 21.2907 54.9762 21.558 55.1239 21.5107C55.7685 21.3019 56.467 21.4021 57.0624 21.7641C57.6977 22.1511 58.1548 22.8054 58.3868 23.6073C58.6329 24.4621 58.647 25.3838 58.6095 26.2748C58.572 27.1658 58.4735 28.1821 57.9625 28.931C57.1093 30.1757 55.5763 30.5098 54.3878 29.7775C53.1033 28.984 52.4141 27.3133 52.5243 25.626C52.6438 23.7772 53.7596 21.5051 55.5036 21.4773C55.5857 21.4773 55.5833 21.3353 55.5036 21.3269L55.4989 21.3297Z" fill="black"/>
<path d="M53.1361 23.8134C54.0034 23.7661 54.8707 24.0557 55.5669 24.6849C56.2631 25.3142 56.6991 26.2358 56.8444 27.2437C56.8843 27.5278 56.9007 27.8145 56.8913 28.1013C56.8866 28.2517 56.8749 28.4048 56.8561 28.5524C56.8421 28.6666 56.8022 28.7863 56.8679 28.8893C56.8866 28.9199 56.9171 28.9339 56.9475 28.9144C57.1046 28.8169 57.0929 28.4466 57.1046 28.2628C57.1234 27.9816 57.1187 27.7004 57.0905 27.4219C57.0343 26.8846 56.9007 26.3639 56.6897 25.8822C56.2678 24.9244 55.5341 24.1893 54.6738 23.8385C54.1815 23.638 53.6541 23.56 53.1384 23.638C53.0494 23.6519 53.0423 23.8162 53.1384 23.8106L53.1361 23.8134Z" fill="black"/>
<path d="M8.95044 62.711L9.43098 62.5439C9.50364 62.5189 9.84822 62.3407 9.91151 62.3769C10.1928 62.5328 9.93964 63.1314 9.8365 63.3375C9.52474 63.964 8.97154 64.3788 8.47225 64.7714C7.53228 65.5093 6.6345 66.3168 5.79064 67.2022C4.94677 68.0876 4.09588 69.1095 3.34109 70.1648C2.63084 71.1588 1.94637 72.214 1.48693 73.4058C-0.425828 78.3591 2.63318 83.5687 5.82111 86.5508C7.47837 88.1016 9.33253 89.3268 11.2242 90.4266C13.4112 91.6963 15.6474 92.8796 17.9353 93.8681C22.7429 95.9508 27.8507 96.8418 32.9607 96.6107C35.286 96.5049 37.6606 96.2487 39.9085 95.4997C41.8611 94.8482 43.9356 93.7261 45.239 91.8076C45.8132 90.9612 46.2235 89.8669 45.9562 88.7699C45.7406 87.8872 45.1382 87.2663 44.456 86.8849C43.6942 86.4616 42.8386 86.2862 42.0018 86.2612C41.165 86.2361 40.0937 86.3503 39.5124 87.2079C39.0084 87.9513 39.0975 88.9815 39.4936 89.7611C39.9789 90.7106 40.8555 91.1561 41.7557 91.287C42.9043 91.454 44.1091 91.2285 45.239 90.9946C46.4907 90.7357 47.7237 90.3626 48.9449 89.9532C53.7878 88.3327 58.4384 86.0217 63.0867 83.7608C65.3909 82.6415 67.6975 81.5278 70.0368 80.517C72.3762 79.5063 74.8914 78.4622 77.3949 77.819C79.7132 77.2231 82.2776 77.1535 84.2747 78.891C85.1584 79.6622 85.8148 80.7481 86.0538 82.0262C86.3164 83.4183 86.0656 84.8606 85.6319 86.1665C85.1983 87.4724 84.5372 88.7448 83.8575 89.9365C83.7731 90.0841 83.9723 90.2205 84.0591 90.0758C85.2452 88.0515 86.457 85.6737 86.4266 83.1176C86.3984 80.8623 85.2334 79.0079 83.5738 78.0111C81.6306 76.8417 79.399 76.9837 77.3269 77.521C74.9758 78.1308 72.6692 79.0719 70.4095 80.0381C65.9183 81.9621 61.5513 84.262 57.1093 86.3252C54.8918 87.3554 52.6509 88.3272 50.3748 89.1625C48.0354 90.0173 45.6257 90.8248 43.1738 91.028C42.0815 91.1199 40.7547 91.0698 39.9578 90.034C39.1608 88.9982 39.1631 87.4668 40.2859 86.8487C41.1462 86.3725 42.2878 86.4728 43.1949 86.69C44.0482 86.8932 44.9905 87.3165 45.4898 88.2186C46.8634 90.6883 43.8935 93.1608 42.33 94.1075C40.4102 95.2714 38.2489 95.7726 36.1229 96.0594C31.2191 96.7165 26.2004 96.3935 21.4185 94.9094C19.0018 94.1576 16.6648 93.0884 14.3816 91.8939C12.4126 90.8637 10.4483 89.789 8.59414 88.4915C5.04757 86.0162 1.21502 82.0206 1.10954 76.7331C1.05328 73.8735 2.50894 71.5681 4.05603 69.5494C4.80848 68.5665 5.61952 67.6477 6.47511 66.7957C7.33069 65.9437 8.29879 65.242 9.1825 64.415C9.7568 63.8776 10.3147 63.1509 10.1201 62.221C10.1108 62.1764 10.0686 62.1486 10.0334 62.1625C9.6607 62.2961 9.28799 62.4298 8.91294 62.5634C8.8309 62.5941 8.86606 62.7444 8.9481 62.7166L8.95044 62.711Z" fill="black"/>
<path d="M66.4458 56.4211C68.0749 55.3742 69.7532 54.447 71.4855 53.6646C71.7316 53.5532 71.9801 53.4446 72.2286 53.3388C72.3481 53.2887 72.47 53.2386 72.5896 53.1884C72.6997 53.1439 72.8099 53.1105 72.8966 53.0158C72.9435 52.9629 72.9037 52.8822 72.8474 52.8738C72.7466 52.8627 72.6575 52.9072 72.5614 52.9462C72.4419 52.9963 72.32 53.0464 72.2005 53.0993C71.9871 53.1912 71.7715 53.2859 71.5605 53.3806C71.1362 53.5727 70.7143 53.7732 70.2947 53.9848C69.4391 54.4136 68.5976 54.8813 67.7702 55.3797C67.299 55.6637 66.8349 55.9645 66.3754 56.2735C66.2957 56.3264 66.3661 56.4712 66.4481 56.4211H66.4458Z" fill="black"/>
<path d="M63.5016 38.9241C64.8588 39.4559 66.3942 39.2694 67.6576 38.487C67.946 38.3088 68.2999 38.0944 68.4593 37.738C68.6328 37.3482 68.5718 36.8331 68.5718 36.4071C68.5718 35.3685 68.5718 34.3299 68.5718 33.2914C68.5718 32.1136 68.5718 30.9358 68.5718 29.758C68.5718 29.6578 68.4757 29.5909 68.403 29.6438C67.6881 30.1645 66.8724 30.4708 66.0355 30.5376C65.6183 30.571 65.1987 30.5488 64.7862 30.4652C64.5822 30.4235 64.383 30.3678 64.1837 30.2982C63.9845 30.2286 63.797 30.1367 63.593 30.0893C63.504 30.0698 63.4618 30.1979 63.5321 30.2592C63.8743 30.5515 64.3595 30.6573 64.7697 30.7353C65.18 30.8133 65.6277 30.8411 66.0566 30.8021C66.9239 30.727 67.7702 30.4123 68.5132 29.8694L68.3444 29.7552C68.3468 31.7182 68.3491 33.6812 68.3538 35.6414C68.3538 36.1203 68.3632 36.5992 68.3538 37.0781C68.3515 37.2925 68.3351 37.5152 68.2249 37.6934C68.1147 37.8716 67.953 37.983 67.8006 38.0916C67.2123 38.5093 66.5606 38.7821 65.8832 38.9074C65.1026 39.0522 64.3033 38.9882 63.5415 38.7404C63.4453 38.7097 63.4055 38.8824 63.4993 38.9186L63.5016 38.9241Z" fill="black"/>
<path d="M63.5038 28.8197C64.1484 28.4382 64.8001 28.1876 65.5291 28.2016C66.2581 28.2155 66.9238 28.4438 67.5216 28.8698C67.6903 28.9895 67.8521 29.126 68.0021 29.2791C68.1427 29.4239 68.2646 29.6439 68.4264 29.7497C68.4826 29.7886 68.5694 29.7246 68.5436 29.6411C68.485 29.4517 68.3256 29.3014 68.2037 29.1733C68.0677 29.0285 67.9247 28.8976 67.7724 28.7779C67.4606 28.5329 67.116 28.3408 66.7574 28.2099C66.0471 27.9482 65.2759 27.912 64.554 28.1208C64.1578 28.235 63.7617 28.4243 63.4405 28.7222C63.3913 28.7668 63.4546 28.8475 63.5038 28.8169V28.8197Z" fill="black"/>
<path d="M63.6702 42.051C67.4442 42.051 71.2182 41.9953 74.9921 41.9842C78.766 41.973 82.54 41.9925 86.3139 42.012C93.8243 42.051 101.332 42.1568 108.843 42.3211C113.079 42.413 117.314 42.5215 121.55 42.6524C121.686 42.658 121.686 42.4046 121.55 42.399C114.004 42.1624 106.457 41.9953 98.9086 41.8895C91.3982 41.7837 83.8902 41.7503 76.3798 41.7725C72.1441 41.7837 67.906 41.7837 63.6702 41.8811C63.5788 41.8811 63.5788 42.051 63.6702 42.051Z" fill="black"/>
<path d="M64.3525 49.0202C64.962 49.0871 65.5761 49.0787 66.1879 49.0954C66.7997 49.1121 67.4115 49.1205 68.0233 49.1344C69.2469 49.1595 70.4705 49.1845 71.6965 49.2068C72.395 49.2207 73.0959 49.2346 73.7944 49.2486C73.9257 49.2486 73.9257 49.0091 73.7944 49.0063C71.3472 48.9757 68.8977 48.9451 66.4505 48.9116C65.7519 48.9033 65.0487 48.8699 64.3525 48.9228C64.301 48.9256 64.301 49.0119 64.3525 49.0175V49.0202Z" fill="black"/>
<path d="M88.4379 49.1846C89.4904 49.2319 90.5499 49.1957 91.6024 49.1874C92.6549 49.179 93.7308 49.1734 94.795 49.1679C96.914 49.1539 99.0331 49.1428 101.152 49.1261L102.91 49.115C103.515 49.1122 104.124 49.1345 104.727 49.0927C104.849 49.0843 104.849 48.8755 104.727 48.8699C104.202 48.8421 103.672 48.8699 103.145 48.8727L101.562 48.8866C100.498 48.895 99.4339 48.9061 98.3697 48.9145C96.2507 48.934 94.1316 48.9535 92.0126 48.973C91.4266 48.9785 90.8405 48.9841 90.2545 48.9925C89.6685 49.0008 89.0426 48.9925 88.4379 49.0287C88.3558 49.0342 88.3558 49.1762 88.4379 49.1818V49.1846Z" fill="black"/>
<path d="M117.312 49.2152C118.168 49.243 119.026 49.2263 119.879 49.1483C120.296 49.1094 120.713 49.062 121.128 48.998C121.325 48.9674 121.524 48.9367 121.721 48.9005C121.892 48.8699 122.178 48.8811 122.3 48.7251C122.326 48.6945 122.324 48.6332 122.289 48.6137C122.141 48.5246 121.937 48.6193 121.78 48.6499C121.564 48.6917 121.346 48.7307 121.128 48.7641C120.704 48.8309 120.277 48.8866 119.851 48.9284C119.007 49.0119 118.158 49.0509 117.312 49.037C117.216 49.037 117.216 49.2124 117.312 49.2152Z" fill="black"/>
<path d="M68.3234 32.7958C70.6816 32.896 73.0421 32.9489 75.4025 33.0102L76.3941 33.0352C76.7152 33.0436 77.0621 33.0965 77.3809 33.0352C77.4723 33.0185 77.47 32.8403 77.3809 32.818C77.1114 32.7512 76.816 32.7818 76.5394 32.7763L75.6369 32.7568C75.0439 32.7429 74.4532 32.7289 73.8601 32.7178C72.6858 32.6955 71.5114 32.6732 70.3347 32.651C69.6643 32.6371 68.9939 32.6287 68.3234 32.6259C68.232 32.6259 68.232 32.793 68.3234 32.7958Z" fill="black"/>
<path d="M80.3625 32.3614C85.6976 32.5062 91.035 32.5591 96.3701 32.6371C101.679 32.7123 106.986 32.793 112.296 32.8626C115.291 32.9016 118.285 32.9434 121.281 32.9823C121.421 32.9823 121.421 32.7262 121.281 32.7234C115.945 32.6482 110.608 32.5703 105.273 32.5006C99.9378 32.431 94.6566 32.3586 89.3473 32.2946C86.3516 32.2584 83.3582 32.2222 80.3625 32.2194C80.2851 32.2194 80.2851 32.3614 80.3625 32.3642V32.3614Z" fill="black"/>
<path d="M81.1851 12.4782C86.5038 12.4921 91.8202 12.4281 97.1389 12.3863C102.458 12.3446 107.72 12.3084 113.011 12.261C115.995 12.2332 118.979 12.2081 121.965 12.1803C122.096 12.1803 122.096 11.938 121.965 11.938C116.646 11.977 111.33 12.016 106.011 12.0606C100.721 12.1079 95.43 12.1524 90.1395 12.1998C87.1555 12.2248 84.1715 12.2527 81.1851 12.3112C81.0937 12.3112 81.0937 12.4782 81.1851 12.4782Z" fill="black"/>
<path d="M78.4472 2.78582C80.6811 2.85543 82.915 2.86657 85.1489 2.81366C85.7865 2.79696 86.4334 2.80531 87.071 2.74684C87.2117 2.73292 87.2164 2.48233 87.071 2.48233C86.5085 2.47676 85.9435 2.52409 85.381 2.5408C84.8184 2.5575 84.2746 2.57143 83.7214 2.57978C82.6056 2.59927 81.4875 2.60762 80.3717 2.59927C79.7317 2.59648 79.0895 2.58813 78.4495 2.57421C78.3347 2.57421 78.3347 2.78025 78.4495 2.78582H78.4472Z" fill="black"/>
<path d="M94.8676 2.4434C95.2989 2.4963 95.7513 2.4434 96.1826 2.43504C96.6139 2.42669 97.0405 2.41555 97.4695 2.40442L100.071 2.33759L105.219 2.20394L106.682 2.16774C107.167 2.15661 107.661 2.17053 108.144 2.12041C108.271 2.10649 108.276 1.88931 108.144 1.88096C107.699 1.8559 107.247 1.89488 106.799 1.9088L105.512 1.945C104.654 1.97005 103.796 1.99233 102.938 2.01739C101.204 2.06751 99.469 2.11484 97.732 2.16496C97.2445 2.17888 96.7569 2.1928 96.2693 2.20951C95.7818 2.22622 95.3106 2.19559 94.8465 2.27912C94.7597 2.29304 94.7926 2.43783 94.8652 2.44618L94.8676 2.4434Z" fill="black"/>
<path d="M116.339 2.48514C116.566 2.53248 116.824 2.4573 117.054 2.42946C117.295 2.39883 117.537 2.3682 117.778 2.33757L118.503 2.2429L118.878 2.19278C118.978 2.17886 119.068 2.18443 119.145 2.1009C119.18 2.06192 119.171 1.98674 119.131 1.96168C119.032 1.89764 118.932 1.93384 118.826 1.94776L118.451 2.00066L117.727 2.10368C117.485 2.1371 117.244 2.17329 117.002 2.20949C116.782 2.2429 116.531 2.23733 116.325 2.34314C116.273 2.3682 116.288 2.47679 116.341 2.48793L116.339 2.48514Z" fill="black"/>
<path d="M104.345 12.2026C104.523 12.055 104.532 11.8072 104.471 11.5761C104.382 11.2336 104.188 10.919 104.035 10.6127C103.67 9.87763 103.306 9.14256 102.941 8.4047C102.221 6.95404 101.494 5.50896 100.768 4.06109C100.559 3.64343 100.35 3.22856 100.142 2.81091C100.043 2.61322 99.9425 2.41553 99.844 2.21505C99.7456 2.01458 99.6705 1.80854 99.5135 1.68046C99.476 1.64983 99.4103 1.68881 99.415 1.74728C99.4291 1.9227 99.5018 2.05078 99.5791 2.20113C99.6682 2.37933 99.7573 2.55753 99.8487 2.73573C100.022 3.08378 100.198 3.42904 100.371 3.77708C100.716 4.45925 101.058 5.14421 101.403 5.82638C102.094 7.20464 102.788 8.57733 103.487 9.95281C103.677 10.3287 103.866 10.7046 104.059 11.0777C104.178 11.3088 104.52 11.8239 104.263 12.0689C104.202 12.1274 104.281 12.2527 104.347 12.1998L104.345 12.2026Z" fill="black"/>
<path d="M87.2282 5.87373C86.9681 6.53363 87.2423 7.27427 87.6994 7.70306C88.2503 8.21817 89.0168 8.427 89.6895 8.59127C91.0702 8.9254 92.4719 8.79732 93.7635 8.11793C94.1128 7.93416 94.448 7.7142 94.7621 7.46082C94.9144 7.33831 95.0621 7.20744 95.2051 7.06822C95.3481 6.92901 95.4981 6.79814 95.5919 6.61437C95.6364 6.52806 95.5497 6.43339 95.477 6.47794C95.3551 6.5559 95.2637 6.67006 95.1606 6.77587C95.034 6.90395 94.9051 7.02646 94.7691 7.14062C94.523 7.34945 94.2651 7.53878 93.9979 7.70306C93.4564 8.03718 92.8728 8.27664 92.2727 8.41307C91.6304 8.55786 90.9717 8.57178 90.3224 8.47711C89.6426 8.37688 88.9183 8.19311 88.2901 7.86177C87.9783 7.69749 87.676 7.46639 87.4908 7.12113C87.3056 6.77587 87.2306 6.34986 87.3712 5.97675C87.4134 5.86259 87.2728 5.75957 87.2282 5.87652V5.87373Z" fill="black"/>
<path d="M108.299 5.45051C107.959 5.39482 107.697 5.71224 107.629 6.09091C107.547 6.56147 107.797 6.95685 108.112 7.20745C108.512 7.52486 109.016 7.69192 109.476 7.83393C109.989 7.98985 110.514 8.08731 111.042 8.14299C112.12 8.25715 113.203 8.19311 114.281 8.10123C115.207 8.02048 116.4 8.06225 116.986 7.0376C117.237 6.59767 117.291 6.01017 116.998 5.58138C116.747 5.21384 116.299 5.0245 115.938 5.28066C115.819 5.36419 115.927 5.58416 116.046 5.50063C116.332 5.30015 116.681 5.48949 116.862 5.7902C117.089 6.17166 116.97 6.67285 116.738 7.00976C116.173 7.82557 115.116 7.77267 114.309 7.84228C112.523 7.99542 110.669 8.08731 108.948 7.39678C108.559 7.24086 108.076 7.04317 107.872 6.58096C107.718 6.22735 107.877 5.59808 108.276 5.65655C108.374 5.67047 108.397 5.46722 108.299 5.45051Z" fill="black"/>
<path d="M110.285 19.3918C109.591 20.5306 109.877 22.3098 110.744 23.2064C111.311 23.7939 112.089 24.0306 112.818 24.1475C113.613 24.2728 114.434 24.2227 115.198 23.9276C115.845 23.6798 116.445 23.2537 116.923 22.6774C117.155 22.3989 117.359 22.0815 117.521 21.7391C117.692 21.3771 117.849 20.9594 117.863 20.539C117.877 20.1185 117.689 19.7454 117.46 19.428C117.23 19.1106 116.963 18.8294 116.677 18.5844C116.1 18.0887 115.427 17.7435 114.727 17.5876C113.147 17.2339 111.438 17.8883 110.345 19.2972C110.247 19.4252 110.404 19.6146 110.507 19.4893C111.428 18.3588 112.713 17.6989 114.044 17.7658C114.71 17.7992 115.371 18.0136 115.964 18.3783C116.524 18.7236 117.099 19.2248 117.457 19.854C117.687 20.2606 117.666 20.6754 117.525 21.1209C117.415 21.4662 117.256 21.7947 117.068 22.0871C116.693 22.6746 116.187 23.1396 115.627 23.4542C114.968 23.8245 114.23 23.9749 113.505 23.961C112.781 23.9471 112.005 23.7967 111.358 23.4013C110.76 23.0366 110.343 22.4129 110.177 21.6416C110.01 20.8703 110.111 20.1492 110.409 19.4781C110.453 19.3779 110.338 19.3027 110.285 19.3918Z" fill="black"/>
<path d="M108.953 22.2068C109.031 23.3846 109.631 24.4037 110.378 25.1415C111.126 25.8794 112.066 26.3917 113.034 26.5978C114.002 26.8038 115.01 26.7259 115.925 26.2943C116.782 25.8905 117.507 25.1889 118.027 24.2867C118.548 23.3846 118.831 22.3739 118.852 21.3158C118.873 20.1631 118.548 18.9463 117.809 18.1611C117.42 17.7463 116.956 17.4539 116.487 17.1894C115.971 16.897 115.451 16.5963 114.9 16.4098C113.944 16.084 112.901 16.1397 111.963 16.5323C111.025 16.9249 110.221 17.646 109.656 18.6122C109.092 19.5784 108.789 20.72 108.78 21.8783C108.78 22.1678 108.796 22.4518 108.831 22.7386C108.852 22.9224 109.089 22.8444 109.068 22.6607C108.801 20.4499 109.762 18.1584 111.429 17.1142C112.258 16.5935 113.222 16.3847 114.152 16.5128C114.67 16.5852 115.163 16.7829 115.639 17.0307C116.114 17.2785 116.586 17.5291 117.031 17.8382C117.476 18.1472 117.861 18.5231 118.13 19.041C118.376 19.5171 118.529 20.0684 118.592 20.6197C118.702 21.6026 118.529 22.6161 118.156 23.496C117.783 24.3758 117.188 25.1777 116.454 25.6901C115.657 26.2469 114.724 26.4836 113.805 26.4391C112.887 26.3945 111.949 26.0632 111.147 25.4924C110.346 24.9216 109.61 24.0668 109.281 23.0032C109.202 22.7442 109.148 22.4741 109.122 22.2013C109.11 22.0732 108.944 22.0704 108.951 22.2013L108.953 22.2068Z" fill="black"/>
<path d="M73.1473 51.6014C72.7465 53.3917 72.8496 55.2907 73.3442 57.042C73.8388 58.7934 74.7155 60.4139 75.8946 61.6307C77.0736 62.8474 78.5317 63.6131 80.0834 63.8554C81.6352 64.0976 83.2573 63.8387 84.7083 63.1147C86.2132 62.3657 87.4907 61.1295 88.4002 59.5173C88.9253 58.5901 89.3237 57.5627 89.605 56.4963C89.9121 55.3324 90.0926 54.0989 90.034 52.8738C89.9332 50.7939 89.0612 48.8977 87.7532 47.5334C86.3632 46.0855 84.5723 45.331 82.7463 45.1389C80.9203 44.9467 78.8387 45.2753 77.1065 46.2359C75.5078 47.1213 74.1483 48.6388 73.5036 50.6157C73.3513 51.0835 73.2458 51.5707 73.1895 52.0691C73.1708 52.2446 73.3958 52.3197 73.4146 52.1443C73.6396 50.1479 74.6874 48.3938 76.0657 47.2633C77.6011 46.0048 79.4927 45.4563 81.3399 45.3783C83.187 45.3003 85.0763 45.7319 86.6515 46.9041C88.0228 47.926 89.1386 49.5075 89.5886 51.373C90.1207 53.5783 89.6613 56.048 88.8338 58.0695C88.1072 59.8459 86.9937 61.3411 85.5475 62.3267C84.2324 63.2233 82.7111 63.6883 81.1969 63.6855C79.6802 63.6855 78.1707 63.1927 76.8955 62.207C75.6274 61.2269 74.6218 59.8041 73.9631 58.192C73.3044 56.5798 72.9926 54.7561 73.1005 52.9657C73.1262 52.5174 73.1801 52.0719 73.2575 51.632C73.2716 51.5512 73.1708 51.5178 73.1544 51.5986L73.1473 51.6014Z" fill="black"/>
<path d="M102.655 54.5584C102.781 56.538 103.384 58.4258 104.377 60.0213C105.371 61.6167 106.785 62.8975 108.372 63.6521C109.999 64.4234 111.822 64.6684 113.547 64.2814C114.417 64.0865 115.266 63.7161 116.009 63.1453C116.712 62.6052 117.305 61.8896 117.79 61.0821C118.81 59.3892 119.438 57.262 119.52 55.1821C119.597 53.2386 119.112 51.3452 118.05 49.8528C117.12 48.5413 115.842 47.6197 114.492 47.0433C113.051 46.428 111.499 46.2108 109.975 46.3612C108.273 46.5282 106.564 47.1575 105.228 48.4578C104.005 49.6495 103.147 51.4454 103.053 53.3388C103.03 53.801 103.058 54.2632 103.133 54.7171C103.163 54.9008 103.4 54.8229 103.37 54.6391C103.074 52.8153 103.641 50.9275 104.642 49.5381C105.723 48.0402 107.286 47.1798 108.897 46.815C110.395 46.4753 111.961 46.5227 113.44 46.957C114.802 47.358 116.121 48.0847 117.178 49.1929C118.289 50.3567 119.035 51.9132 119.234 53.6646C119.471 55.7334 119.014 57.8912 118.212 59.7261C117.837 60.5809 117.371 61.3801 116.789 62.0511C116.177 62.7583 115.446 63.2957 114.644 63.641C113.046 64.3343 111.25 64.3398 109.612 63.8442C107.973 63.3486 106.489 62.3601 105.322 60.9373C104.192 59.5619 103.384 57.8216 103.006 55.9505C102.912 55.4911 102.837 55.0289 102.798 54.5556C102.788 54.447 102.645 54.4442 102.652 54.5556L102.655 54.5584Z" fill="black"/>
<path d="M89.2559 57.3093C92.8704 57.4847 96.4897 57.5042 100.104 57.3817C100.611 57.365 101.115 57.3455 101.621 57.3205C101.865 57.3093 102.106 57.2982 102.35 57.2843C102.594 57.2704 102.856 57.2843 103.095 57.2035C103.154 57.184 103.161 57.0699 103.095 57.056C102.877 57.0086 102.657 57.0392 102.437 57.0532C102.205 57.0671 101.97 57.0782 101.738 57.0894C101.29 57.1116 100.845 57.1311 100.397 57.1506C99.5042 57.1868 98.6087 57.2091 97.7133 57.2258C95.906 57.2564 94.0964 57.2481 92.2868 57.2035C91.2765 57.1785 90.2638 57.1395 89.2536 57.0922C89.1363 57.0866 89.1363 57.3038 89.2536 57.3093H89.2559Z" fill="black"/>
<path d="M119.912 57.0865C119.743 57.081 119.574 57.0754 119.405 57.0503C119.309 57.0364 119.311 57.2118 119.405 57.2258C119.651 57.2647 119.912 57.248 120.162 57.2536C120.413 57.2592 120.648 57.2619 120.889 57.2647C121.384 57.2703 121.878 57.2703 122.373 57.2647C123.362 57.2564 124.351 57.2285 125.34 57.1812C125.903 57.1534 126.463 57.1199 127.026 57.0782C127.148 57.0698 127.148 56.8443 127.026 56.8526C125.05 56.9946 123.071 57.0698 121.093 57.0643C120.821 57.0643 120.549 57.0615 120.277 57.0587C119.989 57.0559 119.691 57.0197 119.405 57.0503V57.2258C119.574 57.209 119.74 57.2118 119.912 57.2118C119.979 57.2118 119.979 57.0893 119.912 57.0865Z" fill="black"/>
<path d="M122.373 48.6137C123.268 48.4745 124.171 48.3548 125.071 48.2573C125.971 48.1599 126.838 48.1153 127.722 48.1654C129.49 48.2629 131.231 48.7724 132.926 49.3516C133.395 49.5131 133.861 49.6829 134.325 49.8639C134.548 49.9502 134.771 50.0393 134.993 50.1312C135.232 50.2287 135.467 50.3484 135.715 50.4096C135.797 50.4291 135.854 50.2983 135.774 50.2454C135.397 49.9948 134.949 49.8611 134.539 49.6996C134.128 49.5381 133.699 49.3767 133.275 49.2291C132.417 48.9284 131.55 48.6555 130.676 48.43C129.801 48.2044 128.946 48.0346 128.067 47.9622C127.188 47.8898 126.259 47.9176 125.359 48.0095C124.351 48.1125 123.357 48.3075 122.359 48.4884C122.3 48.4996 122.312 48.6249 122.373 48.6137Z" fill="black"/>
<path d="M75.8735 61.6863C74.9805 60.0686 74.7226 58.0416 75.1023 56.1677C75.4821 54.2938 76.4338 52.7791 77.6808 51.6765C79.0544 50.4653 80.8008 49.7776 82.5166 49.953C84.0918 50.1145 85.5921 51.0612 86.6164 52.4868C87.6408 53.9123 88.1776 56.0006 87.9947 57.9413C87.9713 58.1947 87.9338 58.4453 87.8892 58.6931C87.8611 58.8546 88.065 58.9242 88.0979 58.7627C88.4893 56.7886 88.1377 54.614 87.179 52.9378C86.2671 51.3396 84.8115 50.2036 83.2152 49.8305C81.4501 49.4184 79.5725 49.9558 78.0653 51.0918C76.7268 52.0997 75.6368 53.6033 75.1094 55.3881C74.582 57.1728 74.6429 59.3975 75.4352 61.1239C75.536 61.3438 75.6485 61.5554 75.7704 61.7587C75.8149 61.8339 75.9204 61.7643 75.8759 61.6863H75.8735Z" fill="black"/>
<path d="M78.8646 61.3884C79.7601 62.7332 81.3446 63.1843 82.6995 62.697C83.4074 62.4409 84.0497 61.9564 84.5748 61.3411C85.0998 60.7257 85.5874 59.9015 85.7468 59.0133C85.8359 58.5177 85.8124 58.0026 85.6741 57.5209C85.5499 57.0893 85.3296 56.5826 84.9826 56.3487C84.917 56.3041 84.8279 56.396 84.8748 56.4768C85.0787 56.8304 85.3108 57.1311 85.435 57.5404C85.5546 57.9302 85.5991 58.3507 85.5499 58.7627C85.4491 59.6259 85.0014 60.4111 84.5091 61.032C83.5832 62.1959 82.226 62.8975 80.8735 62.5801C80.1304 62.4047 79.4506 61.962 78.9724 61.2575C78.9115 61.1684 78.806 61.2937 78.867 61.3828L78.8646 61.3884Z" fill="black"/>
<path d="M106.398 62.3657C105.608 61.096 105.292 59.4895 105.43 57.9274C105.568 56.3654 106.222 54.8117 107.279 53.7704C107.884 53.1773 108.587 52.7318 109.314 52.3865C110.081 52.0246 110.882 51.7545 111.698 51.6014C113.247 51.3146 114.928 51.4955 116.283 52.4979C117.638 53.5003 118.564 55.1431 118.533 57.0058C118.531 57.1757 118.751 57.1757 118.756 57.0058C118.782 55.3018 118.001 53.723 116.895 52.6873C115.615 51.49 113.972 51.1002 112.371 51.2533C111.508 51.3368 110.657 51.5624 109.837 51.8937C109.061 52.2083 108.304 52.6093 107.626 53.1606C106.429 54.1323 105.603 55.5663 105.324 57.262C105.062 58.8491 105.261 60.5587 105.964 61.9536C106.053 62.129 106.15 62.2989 106.253 62.4632C106.316 62.5662 106.464 62.466 106.398 62.3629V62.3657Z" fill="black"/>
<path d="M79.2961 41.8812C79.6079 38.125 79.8352 34.3578 80.0814 30.5933C80.3275 26.8289 80.5689 23.0672 80.8033 19.3027C80.9346 17.1783 81.0893 15.0538 81.1901 12.9293C81.1971 12.7873 81.0143 12.7901 81.0049 12.9293C80.8666 14.8199 80.7752 16.7161 80.658 18.6094C80.5408 20.5028 80.4283 22.3516 80.3087 24.2199C80.072 27.9844 79.8282 31.7461 79.5774 35.5077C79.4367 37.6294 79.2891 39.7539 79.1742 41.8784C79.1695 41.9703 79.2867 41.9703 79.2961 41.8784V41.8812Z" fill="black"/>
<path d="M78.9959 41.547C78.4169 39.1719 77.9035 36.7746 77.4371 34.3661C77.4136 34.2381 77.2472 34.2937 77.273 34.419C77.7394 36.8275 78.2809 39.2165 78.8763 41.586C78.8998 41.6779 79.0193 41.6389 78.9959 41.547Z" fill="black"/>
<path d="M78.4192 3.18121C78.2551 7.09324 78.1472 11.0081 78.0183 14.9201C77.8894 18.8321 77.7605 22.747 77.6315 26.659C77.5589 28.8586 77.4862 31.0583 77.4135 33.2579C77.4089 33.386 77.5776 33.386 77.5823 33.2579C77.7112 29.3459 77.8378 25.4311 77.9667 21.519C78.0957 17.607 78.2246 13.6922 78.3488 9.78016C78.4192 7.58051 78.5012 5.38086 78.5528 3.18121C78.5551 3.07819 78.4215 3.07819 78.4168 3.18121H78.4192Z" fill="black"/>
<path d="M78.5318 3.05873C79.0452 4.27828 79.4882 5.5396 79.8515 6.83433C80.0274 7.4636 80.1868 8.10122 80.3274 8.74441C80.4001 9.07575 80.4657 9.40987 80.529 9.744C80.5595 9.91106 80.5899 10.0781 80.6204 10.248C80.6462 10.3955 80.6509 10.571 80.7259 10.6962C80.7517 10.7408 80.815 10.7408 80.829 10.6795C80.8736 10.4624 80.7845 10.1867 80.7446 9.97231C80.6978 9.71058 80.6462 9.44885 80.5923 9.18991C80.4844 8.66923 80.3649 8.15412 80.2336 7.6418C79.9711 6.61994 79.6593 5.61756 79.3054 4.63468C79.1015 4.07502 78.8835 3.52094 78.6514 2.97798C78.6115 2.88332 78.4943 2.96685 78.5318 3.06152V3.05873Z" fill="black"/>
<path d="M104.382 12.0634C104.213 14.5916 104.173 17.1393 104.148 19.6731C104.122 22.2068 104.143 24.749 104.206 27.2855C104.241 28.7167 104.291 30.1451 104.354 31.5734C104.359 31.7071 104.534 31.7071 104.527 31.5734C104.415 29.0397 104.345 26.5003 104.319 23.9638C104.293 21.4272 104.312 18.8879 104.366 16.3485C104.396 14.9174 104.452 13.489 104.481 12.0606C104.481 11.9854 104.387 11.9854 104.382 12.0606V12.0634Z" fill="black"/>
<path d="M122.115 12.5005C122.084 13.7034 122.101 14.9062 122.092 16.1091C122.082 17.3119 122.07 18.5148 122.052 19.7176C122.014 22.1233 121.96 24.5262 121.902 26.9319C121.787 31.7321 121.672 36.5324 121.559 41.3326C121.496 44.0418 121.433 46.7482 121.367 49.4574C121.365 49.5799 121.524 49.5799 121.529 49.4574C121.646 44.6321 121.766 39.8068 121.881 34.9815C121.995 30.1562 122.129 25.3977 122.206 20.603C122.227 19.2526 122.246 17.905 122.251 16.5546C122.256 15.2041 122.272 13.8509 122.213 12.5061C122.211 12.4309 122.117 12.4309 122.117 12.5061L122.115 12.5005Z" fill="black"/>
<path d="M118.99 2.3431C120.148 4.74044 120.774 7.40508 121.695 9.92493C121.956 10.6405 122.244 11.3394 122.577 12.0132C122.64 12.1413 122.806 12.0243 122.746 11.8963C121.578 9.51284 120.966 6.8315 120.024 4.32557C119.757 3.61555 119.457 2.92225 119.108 2.26235C119.063 2.17604 118.951 2.254 118.993 2.34031L118.99 2.3431Z" fill="black"/>
<path d="M116.904 23.0143C116.913 22.3989 116.921 21.7864 116.923 21.171C116.925 20.5557 116.946 19.9403 116.928 19.3278C116.923 19.2192 116.789 19.2192 116.785 19.3278C116.764 19.9403 116.785 20.5585 116.789 21.171C116.794 21.7836 116.799 22.3989 116.808 23.0143C116.808 23.0895 116.904 23.0895 116.904 23.0143Z" fill="black"/>
<path d="M116.168 7.51925C116.086 5.68156 116.081 3.83275 116.133 1.99228C116.138 1.85585 115.957 1.85585 115.953 1.99228C115.896 3.8411 115.95 5.67878 116.093 7.51925C116.098 7.57493 116.171 7.57772 116.168 7.51925Z" fill="black"/>
<path d="M109.066 7.41069C109.07 6.46957 109.087 5.52846 109.113 4.59012C109.124 4.1307 109.141 3.67407 109.159 3.21465C109.169 2.97519 109.181 2.73295 109.19 2.4935C109.199 2.25404 109.227 2.0118 109.213 1.77235C109.206 1.68046 109.084 1.64426 109.068 1.75007C108.991 2.19835 109.007 2.69119 108.991 3.14782C108.974 3.60446 108.96 4.08615 108.951 4.55671C108.932 5.50896 108.93 6.45843 108.941 7.41069C108.941 7.50536 109.066 7.50536 109.066 7.41069Z" fill="black"/>
<path d="M95.0597 6.87053C95.048 5.02728 95.1113 3.18124 95.259 1.34634C95.2707 1.20991 95.0902 1.20991 95.0785 1.34634C94.9331 3.18403 94.8745 5.02728 94.912 6.87053C94.912 6.9819 95.0597 6.9819 95.0574 6.87053H95.0597Z" fill="black"/>
<path d="M87.7229 6.87053C87.7393 5.13587 87.7417 3.404 87.7417 1.66934C87.7417 1.54683 87.58 1.54683 87.58 1.66934C87.58 3.404 87.58 5.13587 87.5987 6.87053C87.5987 6.9652 87.7229 6.9652 87.7229 6.87053Z" fill="black"/>
<path d="M87.7112 1.52453C89.3731 2.92785 91.5906 3.29817 93.5362 2.61044C94.0261 2.4378 94.5043 2.19556 94.945 1.88928C95.1091 1.77513 95.3083 1.59971 95.2591 1.34076C95.2099 1.08182 94.9497 0.945384 94.7621 0.850715C94.4996 0.717066 94.223 0.641888 93.9464 0.569494C93.63 0.485963 93.3135 0.402432 92.9947 0.32447C92.3688 0.174114 91.7383 0.0516022 91.1007 0.0126211C89.8748 -0.0625568 88.5433 0.185252 87.5518 1.10409C87.4557 1.19319 87.5823 1.39367 87.6831 1.30735C89.5771 -0.290875 91.9329 0.271567 94.0378 0.847931C94.2886 0.91754 94.5418 0.992718 94.7739 1.12915C94.8653 1.18205 95.0223 1.26002 95.0505 1.3881C95.0809 1.53845 94.9122 1.63312 94.8231 1.69438C94.4152 1.97838 93.9792 2.20392 93.5292 2.37098C92.6384 2.69953 91.6914 2.80256 90.7632 2.68283C89.699 2.54639 88.6652 2.10646 87.7768 1.39924C87.7088 1.34633 87.6502 1.47163 87.7135 1.52732L87.7112 1.52453Z" fill="black"/>
<path d="M109.342 1.87261C110.357 2.17053 111.396 2.33203 112.443 2.34316C112.971 2.34873 113.498 2.32089 114.023 2.25685C114.272 2.22622 114.52 2.18724 114.766 2.14269C114.989 2.10092 115.249 2.08143 115.456 1.96449C115.587 1.88931 115.706 1.73617 115.662 1.54962C115.606 1.3213 115.331 1.21271 115.172 1.11804C114.745 0.861881 114.3 0.655838 113.84 0.497129C112.917 0.179711 111.942 0.0599833 110.983 0.163005C110.203 0.246536 109.141 0.483207 108.89 1.52456C108.85 1.68605 109.063 1.75566 109.101 1.59417C109.298 0.764428 110.151 0.530541 110.779 0.441441C111.632 0.321714 112.502 0.380185 113.339 0.605719C113.754 0.717094 114.162 0.870234 114.555 1.05957C114.752 1.15424 114.945 1.26283 115.132 1.37699C115.212 1.42711 115.327 1.47444 115.395 1.54684C115.514 1.6777 115.374 1.74453 115.266 1.78072C114.823 1.92551 114.34 1.97563 113.885 2.03131C113.43 2.087 112.961 2.11763 112.497 2.11763C111.45 2.1232 110.399 1.99233 109.375 1.73339C109.298 1.7139 109.265 1.85033 109.342 1.87261Z" fill="black"/>
<path d="M79.957 31.7655C79.8539 31.398 79.6898 31.0639 79.5351 30.7214C79.3804 30.3789 79.2093 30.0086 79.0452 29.6522L78.567 28.6164C78.4006 28.2572 78.2505 27.8591 78.0489 27.5277C78.0044 27.4525 77.8778 27.4943 77.9106 27.5973C78.0302 27.9537 78.2201 28.2934 78.3771 28.6303L78.8905 29.7246C79.0569 30.0782 79.2233 30.4346 79.3921 30.7854C79.5609 31.1363 79.7132 31.4843 79.9242 31.7906C79.9359 31.8101 79.964 31.7906 79.957 31.7683V31.7655Z" fill="black"/>
<path d="M145.197 63.6994C145.307 63.8331 145.438 63.8637 145.584 63.9222C145.769 63.9974 145.954 64.0698 146.139 64.1449L147.197 64.5598C147.9 64.8355 148.605 65.1139 149.309 65.3895C150.699 65.9353 152.089 66.4838 153.479 67.0267C153.851 67.1715 154.224 67.3191 154.599 67.4528C154.794 67.5224 154.991 67.5864 155.187 67.6477C155.375 67.7033 155.565 67.7757 155.757 67.7618C155.823 67.7563 155.865 67.6393 155.795 67.6003C155.652 67.5196 155.504 67.4917 155.349 67.45C155.169 67.3999 154.991 67.3414 154.812 67.2801C154.472 67.166 154.137 67.0351 153.804 66.9042C153.101 66.6314 152.398 66.3557 151.695 66.0828C150.302 65.5427 148.912 65.0025 147.52 64.4623L146.35 64.0085C146.146 63.9305 145.942 63.8498 145.739 63.7718C145.563 63.705 145.394 63.6048 145.209 63.641C145.185 63.6465 145.181 63.6827 145.195 63.6994H145.197Z" fill="black"/>
<path d="M122.15 43.8163C122.132 44.3314 122.422 44.7797 122.732 45.1082C123.095 45.4953 123.529 45.7904 123.953 46.0688C124.888 46.6814 125.884 47.1464 126.899 47.539C127.914 47.9316 128.986 48.2601 130.036 48.5859C131.212 48.9507 132.387 49.3154 133.564 49.6774C134.89 50.0867 136.217 50.496 137.544 50.8997C137.647 50.9303 137.691 50.741 137.588 50.7076C135.3 50.0087 133.013 49.3126 130.725 48.6137C128.66 47.9817 126.545 47.4109 124.616 46.3027C124.103 46.0076 123.592 45.6818 123.128 45.292C122.664 44.9022 122.331 44.4567 122.209 43.8079C122.202 43.7689 122.155 43.7801 122.153 43.8163H122.15Z" fill="black"/>
<path d="M143.561 54.0544C145.574 54.5417 147.553 55.157 149.501 55.9394C151.453 56.7246 153.373 57.6212 155.295 58.5066C155.858 58.7656 156.42 59.0245 156.983 59.2835C157.264 59.4115 157.546 59.5424 157.827 59.6705C158.108 59.7986 158.404 59.9656 158.706 60.038C158.783 60.0575 158.835 59.9322 158.762 59.8821C158.539 59.7234 158.286 59.6287 158.045 59.5173C157.803 59.406 157.536 59.2835 157.283 59.1665C156.774 58.9354 156.266 58.7043 155.757 58.4732C154.777 58.0277 153.8 57.5794 152.818 57.1423C150.886 56.2791 148.938 55.4549 146.946 54.8118C145.837 54.4526 144.714 54.1435 143.573 53.9681C143.53 53.9625 143.521 54.0488 143.563 54.0572L143.561 54.0544Z" fill="black"/>
<path d="M173.119 62.7416C173.487 62.9699 173.879 63.0924 174.294 63.1119C174.709 63.1314 175.145 63.059 175.56 62.9588C176.507 62.7304 177.44 62.3935 178.365 62.0761C180.259 61.4301 182.132 60.7034 183.982 59.9015C185.03 59.4477 186.073 58.9688 187.104 58.4676C187.219 58.4119 187.167 58.1891 187.053 58.2448C185.264 59.1135 183.452 59.9127 181.619 60.6394C179.786 61.3661 177.944 62.0288 176.078 62.6079C175.152 62.8947 174.066 63.1843 173.164 62.6441C173.11 62.6107 173.061 62.7082 173.115 62.7416H173.119Z" fill="black"/>
<path d="M174.51 70.2984C174.381 70.2872 174.252 70.2761 174.123 70.2566V70.3708C174.566 70.3179 175.002 70.1898 175.436 70.0756C175.89 69.9531 176.345 69.8223 176.797 69.683C177.683 69.4074 178.563 69.0983 179.432 68.7531C181.169 68.0653 182.866 67.2217 184.507 66.2527C184.964 65.9826 185.419 65.7014 185.867 65.4118C186.314 65.1222 186.811 64.8271 187.238 64.4651C187.332 64.3872 187.252 64.2229 187.149 64.2841C186.739 64.5236 186.352 64.8215 185.951 65.086C185.55 65.3506 185.161 65.5928 184.76 65.835C183.944 66.3279 183.112 66.7901 182.271 67.2189C180.595 68.0709 178.867 68.792 177.112 69.3768C176.619 69.541 176.125 69.6942 175.628 69.8362C175.131 69.9782 174.608 70.084 174.111 70.2594C174.06 70.2761 174.069 70.3736 174.123 70.3708C174.252 70.3652 174.381 70.3708 174.51 70.3708C174.549 70.3708 174.547 70.3012 174.51 70.2984Z" fill="black"/>
<path d="M122.996 36.5017C124.431 39.4727 127.22 40.837 129.862 41.7503C131.437 42.2932 133.041 42.7276 134.625 43.2399C136.416 43.8218 138.195 44.4511 139.967 45.1138C143.516 46.4391 147.03 47.8842 150.549 49.3098C154.076 50.7382 157.611 52.1443 161.193 53.3778C164.775 54.6113 168.342 55.661 171.992 56.3988C172.449 56.4907 172.906 56.577 173.366 56.6606C173.495 56.6828 173.551 56.4489 173.42 56.4267C169.789 55.7779 166.207 54.7978 162.672 53.6312C159.128 52.4589 155.628 51.1057 152.143 49.7108C148.648 48.313 145.164 46.8735 141.653 45.5314C138.24 44.2284 134.801 43.0812 131.327 42.0287C128.615 41.2073 125.587 40.191 123.737 37.5097C123.503 37.17 123.294 36.8052 123.109 36.4238C123.067 36.3402 122.957 36.4154 122.999 36.5017H122.996Z" fill="black"/>
<path d="M156.435 42.1067C158.6 42.7527 160.769 43.3931 162.937 44.0307C165.105 44.6683 167.276 45.2976 169.456 45.8823C170.061 46.0438 170.663 46.2025 171.27 46.3556C171.582 46.4336 171.894 46.5143 172.208 46.5895C172.498 46.6619 172.787 46.7454 173.084 46.7594C173.162 46.7621 173.166 46.6368 173.101 46.609C172.848 46.4976 172.58 46.4475 172.316 46.3835C172.051 46.3194 171.767 46.2498 171.49 46.1802C170.951 46.0466 170.412 45.9073 169.873 45.7681C168.788 45.4841 167.702 45.1862 166.62 44.8799C164.456 44.2701 162.297 43.6297 160.136 42.9949C158.915 42.6357 157.693 42.2821 156.472 41.9285C156.376 41.9006 156.334 42.0788 156.43 42.1067H156.435Z" fill="black"/>
<path d="M140.949 28.5301C143.038 29.2429 145.129 29.9418 147.227 30.6044C149.325 31.2671 151.451 31.9159 153.57 32.5396C155.689 33.1633 157.792 33.7591 159.908 34.3383C162.025 34.9174 164.167 35.4799 166.303 36.0173C168.429 36.5518 170.557 37.0642 172.688 37.557C172.96 37.621 173.232 37.6823 173.504 37.7436C173.64 37.7742 173.701 37.5264 173.562 37.493C171.429 37.0057 169.299 36.4989 167.173 35.9699C165.046 35.4409 162.904 34.8868 160.776 34.3132C158.647 33.7396 156.542 33.1521 154.433 32.5396C152.311 31.9242 150.197 31.2894 148.085 30.6295C145.973 29.9696 143.884 29.3125 141.791 28.6248C141.524 28.5357 141.257 28.4493 140.992 28.3602C140.9 28.3296 140.86 28.4995 140.952 28.5301H140.949Z" fill="black"/>
<path d="M146.72 17.3759C147.761 17.7323 148.816 18.0442 149.869 18.3477C149.993 18.3839 150.044 18.1583 149.92 18.1221C148.872 17.8019 147.815 17.4873 146.758 17.2172C146.671 17.1949 146.636 17.3453 146.72 17.3759Z" fill="black"/>
<path d="M156.282 19.4252C159.163 20.113 162.023 20.9455 164.843 21.9228C165.244 22.062 165.642 22.204 166.043 22.3488C166.444 22.4936 166.835 22.6607 167.238 22.786C167.344 22.8194 167.381 22.6412 167.283 22.5938C166.596 22.282 165.869 22.0592 165.164 21.8114C164.458 21.5636 163.743 21.3242 163.028 21.0931C161.62 20.6392 160.202 20.2271 158.774 19.8512C157.958 19.6368 157.14 19.4419 156.32 19.2554C156.228 19.2359 156.191 19.4002 156.282 19.4224V19.4252Z" fill="black"/>
<path d="M173.279 23.8384C175.105 24.6069 176.978 25.2278 178.851 25.8125C179.121 25.8961 179.39 25.9796 179.66 26.0603C179.791 26.0993 179.92 26.1383 180.051 26.1773C180.171 26.2135 180.281 26.258 180.403 26.2357C180.468 26.2246 180.461 26.1216 180.419 26.0854C180.332 26.013 180.232 25.9935 180.131 25.9629C180.009 25.9267 179.889 25.8905 179.768 25.8543C179.535 25.7847 179.303 25.7123 179.071 25.6427C178.607 25.5007 178.143 25.3531 177.681 25.2027C176.746 24.8992 175.818 24.5735 174.885 24.2533C174.36 24.0723 173.835 23.8885 173.31 23.7103C173.242 23.6881 173.213 23.8078 173.281 23.8356L173.279 23.8384Z" fill="black"/>
<path d="M167.374 24.0695C166.999 24.1475 166.877 24.7044 167.02 25.0747C167.227 25.6148 167.81 25.8181 168.246 25.9712C169.35 26.3583 170.55 26.3666 171.662 26.0019C172.025 25.8821 172.89 25.5842 172.686 24.9299C172.641 24.7907 172.482 24.8464 172.501 24.9911C172.564 25.4951 171.87 25.6789 171.582 25.7763C171.122 25.9295 170.649 26.0158 170.173 26.0381C169.697 26.0603 169.235 26.0158 168.774 25.91C168.345 25.8097 167.869 25.6761 167.491 25.4004C167.299 25.2584 167.128 25.0468 167.116 24.7656C167.105 24.5262 167.198 24.27 167.405 24.2004C167.475 24.1781 167.445 24.0584 167.374 24.0723V24.0695Z" fill="black"/>
<path d="M150.605 19.1078C150.509 20.28 151.435 21.0151 152.262 21.3158C153.186 21.6499 154.313 21.9145 155.204 21.327C155.584 21.0791 155.968 20.6448 156.022 20.1102C156.034 20.0072 155.893 19.9682 155.856 20.0573C155.689 20.4582 155.509 20.7924 155.183 21.0374C154.817 21.3102 154.39 21.4161 153.962 21.4133C153.486 21.4133 153.015 21.2991 152.555 21.1627C152.138 21.0374 151.716 20.8675 151.371 20.5473C151.001 20.2049 150.738 19.6758 150.769 19.105C150.776 18.9769 150.612 18.9797 150.602 19.105L150.605 19.1078Z" fill="black"/>
<path d="M151.235 14.4635C151.402 15.1819 151.986 15.5605 152.529 15.8195C153.226 16.1508 154.018 16.5072 154.777 16.3207C155.084 16.2455 155.387 16.0784 155.609 15.8111C155.832 15.5438 155.987 15.1624 155.727 14.8533C155.607 14.7085 155.448 14.6055 155.3 14.5053C155.131 14.3883 154.958 14.2825 154.78 14.1878C154.444 14.0096 154.095 13.8676 153.739 13.7702C152.909 13.5419 152.042 13.5363 151.21 13.7563C151.069 13.7925 151.128 14.0542 151.271 14.0152C152.562 13.6616 153.955 13.8927 155.117 14.6528C155.244 14.7364 155.37 14.8227 155.49 14.9201C155.56 14.9786 155.645 15.0538 155.673 15.1568C155.706 15.2793 155.642 15.4046 155.586 15.5021C155.415 15.7944 155.143 15.9838 154.859 16.0812C154.168 16.3207 153.453 16.0172 152.804 15.7443C152.239 15.5076 151.554 15.1735 151.374 14.4245C151.348 14.3215 151.214 14.366 151.238 14.4691L151.235 14.4635Z" fill="black"/>
<path d="M168.009 18.4201C167.82 18.7124 167.869 19.1273 168.049 19.4113C168.26 19.7454 168.612 19.9069 168.933 20.0462C169.718 20.3886 170.555 20.5641 171.392 20.5613C171.926 20.5613 172.885 20.4972 172.869 19.6062C172.85 18.6317 171.882 18.4452 171.256 18.3282C170.25 18.1417 169.235 18.0358 168.218 18.0136C168.077 18.0108 168.077 18.2725 168.218 18.2753C168.978 18.292 169.737 18.3533 170.494 18.4563C170.874 18.5092 171.254 18.5677 171.629 18.6484C171.948 18.718 172.301 18.821 172.515 19.1357C172.707 19.4225 172.745 19.8345 172.484 20.0796C172.273 20.2773 171.976 20.319 171.715 20.3357C170.984 20.3859 170.25 20.294 169.543 20.0712C169.179 19.9571 168.792 19.8234 168.467 19.5951C168.16 19.3807 167.881 18.9157 168.131 18.5064C168.185 18.4173 168.063 18.3366 168.007 18.4201H168.009Z" fill="black"/>
<path d="M174.282 47.0823C175.803 46.5394 177.315 45.9574 178.837 45.4117C180.358 44.866 181.849 44.3509 183.361 43.8525C183.785 43.7132 184.209 43.574 184.636 43.4376C184.859 43.3652 185.079 43.2956 185.302 43.226C185.51 43.1591 185.726 43.109 185.925 43.0004C185.991 42.9642 185.958 42.8306 185.888 42.8389C185.506 42.8807 185.121 43.0533 184.753 43.1731C184.385 43.2928 183.996 43.4181 183.619 43.5434C182.852 43.7968 182.088 44.0529 181.326 44.3174C179.819 44.8381 178.314 45.3783 176.818 45.9407C175.961 46.2637 175.103 46.5923 174.254 46.9514C174.186 46.9821 174.212 47.1102 174.285 47.0823H174.282Z" fill="black"/>
<path d="M174.125 37.4345C177.189 36.6577 180.238 35.8028 183.293 34.9731C184.165 34.7364 185.037 34.4998 185.911 34.2631C186.026 34.2325 185.979 34.0209 185.862 34.0515C182.81 34.884 179.756 35.7137 176.706 36.5574C175.834 36.7997 174.964 37.0391 174.095 37.2925C174.017 37.3148 174.05 37.4512 174.128 37.4317L174.125 37.4345Z" fill="black"/>
<path d="M173.841 56.8833C176.884 56.0146 179.924 55.1208 182.962 54.2243L184.207 53.8567C184.641 53.7286 185.081 53.6201 185.503 53.4474C185.588 53.4112 185.552 53.2748 185.466 53.2887C185.081 53.3583 184.706 53.4864 184.329 53.5978L183.197 53.9319C182.432 54.1574 181.668 54.3858 180.904 54.6113C179.385 55.0624 177.869 55.5106 176.35 55.9673C175.501 56.2206 174.655 56.4824 173.809 56.7413C173.731 56.7636 173.764 56.9028 173.841 56.8805V56.8833Z" fill="black"/>
<path d="M128.116 35.3852C127.582 35.4019 127.333 36.0729 127.401 36.6354C127.495 37.4066 128.165 37.7798 128.732 37.9607C129.129 38.086 129.539 38.1724 129.944 38.2503C130.385 38.3338 130.833 38.3951 131.28 38.3923C132.035 38.3895 132.811 38.1974 133.453 37.7074C133.777 37.4623 134.143 37.1115 134.276 36.6716C134.391 36.2929 134.241 35.7806 133.854 35.7778C133.746 35.7778 133.716 35.9866 133.828 36.0061C133.971 36.0312 134.072 36.1704 134.091 36.3375C134.117 36.5574 133.997 36.769 133.882 36.9277C133.688 37.1978 133.444 37.4178 133.184 37.5932C132.624 37.9663 131.977 38.1222 131.337 38.1334C130.598 38.1473 129.867 37.9914 129.147 37.8187C128.634 37.6962 127.987 37.5208 127.694 36.9444C127.469 36.5017 127.582 35.5968 128.116 35.5662C128.214 35.5606 128.214 35.3796 128.116 35.3824V35.3852Z" fill="black"/>
<path d="M128.383 28.1208C128.09 28.2266 127.98 28.6415 128.083 28.9645C128.221 29.3905 128.631 29.5993 128.96 29.7664C129.764 30.1729 130.652 30.3427 131.522 30.2564C131.948 30.2147 132.384 30.1172 132.787 29.9446C133.087 29.8137 133.402 29.5325 133.289 29.1037C133.177 28.6749 132.773 28.4744 132.457 28.3296C132.047 28.1431 131.615 28.0178 131.179 27.9482C130.181 27.7923 129.152 27.9454 128.221 28.402C128.09 28.4661 128.149 28.725 128.282 28.661C128.976 28.3157 129.721 28.1403 130.474 28.1487C131.226 28.157 131.981 28.3157 132.644 28.6944C132.891 28.8336 133.305 29.2151 132.987 29.5436C132.862 29.6717 132.687 29.7302 132.532 29.7831C132.356 29.8471 132.176 29.8972 131.993 29.9362C131.252 30.1005 130.479 30.0643 129.75 29.8388C129.363 29.719 128.974 29.5548 128.629 29.3153C128.472 29.2067 128.308 29.0592 128.254 28.842C128.207 28.6526 128.263 28.402 128.434 28.3352C128.549 28.2907 128.5 28.0763 128.385 28.118L128.383 28.1208Z" fill="black"/>
<path d="M140.471 33.1076C138.284 32.4421 136.097 31.7906 133.908 31.1362C133.774 31.0973 133.718 31.3395 133.852 31.3785C136.043 32.0189 138.235 32.6621 140.429 33.2913C140.53 33.3192 140.572 33.1382 140.471 33.1076Z" fill="black"/>
<path d="M140.828 45.2502C141.805 44.5736 142.745 43.8218 143.694 43.0951L146.547 40.9121C148.441 39.4643 150.333 38.0081 152.224 36.5546C153.298 35.7304 154.369 34.9035 155.441 34.0765C155.558 33.9846 155.45 33.7591 155.33 33.851C153.429 35.3128 151.533 36.7746 149.634 38.2419C147.736 39.7093 145.858 41.1627 143.971 42.6273C142.902 43.4571 141.812 44.259 140.774 45.1444C140.717 45.1917 140.767 45.2975 140.828 45.2558V45.2502Z" fill="black"/>
<path d="M123.444 36.563C122.889 35.6135 123.601 34.419 124.15 33.7285C124.773 32.9433 125.528 32.3141 126.358 31.8741C126.836 31.6207 127.34 31.437 127.856 31.3228C127.966 31.2978 127.919 31.0973 127.809 31.1223C126.85 31.3451 125.934 31.8073 125.134 32.4728C124.384 33.0965 123.611 33.9318 123.268 34.9676C123.088 35.5133 123.057 36.1258 123.367 36.6159C123.4 36.6688 123.477 36.6187 123.444 36.563Z" fill="black"/>
<path d="M122.439 44.1476C122.424 42.8668 122.455 41.586 122.551 40.3107C122.6 39.6648 122.664 39.0216 122.741 38.3812C122.778 38.0665 122.821 37.7547 122.865 37.44C122.91 37.1254 122.971 36.8219 122.992 36.5101C122.999 36.4154 122.879 36.4043 122.856 36.4878C122.771 36.7996 122.732 37.1282 122.685 37.4512C122.638 37.7742 122.593 38.0999 122.556 38.4257C122.481 39.0411 122.424 39.6592 122.382 40.2773C122.293 41.5665 122.27 42.8584 122.319 44.1504C122.321 44.2395 122.436 44.2395 122.436 44.1504L122.439 44.1476Z" fill="black"/>
<path d="M140.921 45.1584C140.919 40.7173 140.905 36.279 140.985 31.8407C141.006 30.7409 141.029 29.6383 141.06 28.5385C141.09 27.4387 141.097 26.4001 141.177 25.3392C141.252 24.3452 141.414 23.354 141.791 22.4546C142.098 21.7251 142.52 21.0736 143.008 20.5028C144.144 19.1719 145.579 18.2614 146.983 17.3982C147.086 17.3342 146.995 17.1504 146.892 17.2145C145.619 18.0024 144.334 18.8238 143.249 19.9571C142.74 20.4889 142.279 21.0931 141.918 21.778C141.5 22.5688 141.245 23.4487 141.116 24.3647C140.975 25.3754 140.961 26.4029 140.933 27.4247C140.903 28.5608 140.877 29.6968 140.853 30.83C140.809 33.077 140.783 35.3268 140.774 37.5765C140.762 40.1019 140.769 42.6302 140.83 45.1584C140.83 45.228 140.919 45.228 140.919 45.1584H140.921Z" fill="black"/>
<path d="M156.127 51.6292C156.155 50.418 156.127 49.2013 156.123 47.9901C156.118 46.7789 156.109 45.5871 156.102 44.3843C156.085 41.9703 156.069 39.5534 156.052 37.1394C156.036 34.8562 155.982 32.5535 156.261 30.2871C156.505 28.3046 157.018 26.3639 158.003 24.7183C158.868 23.2704 160.084 22.062 161.54 21.572C161.718 21.5135 161.896 21.4634 162.079 21.4244C162.189 21.4021 162.142 21.1989 162.032 21.2239C160.546 21.5414 159.254 22.5883 158.293 23.9443C157.234 25.4423 156.594 27.2577 156.261 29.1622C155.872 31.3897 155.87 33.6784 155.886 35.9449C155.905 38.3979 155.926 40.8537 155.945 43.3067C155.963 45.7598 155.987 48.2295 156.015 50.6909C156.017 51.0027 156.022 51.3146 156.034 51.6264C156.036 51.6988 156.127 51.6988 156.13 51.6264L156.127 51.6292Z" fill="black"/>
<path d="M173.956 56.1761C174.008 53.4725 174.029 50.7661 174.059 48.0624C174.09 45.3588 174.104 42.7192 174.163 40.0462C174.217 37.5765 174.367 35.0539 175.086 32.7122C175.682 30.7687 176.682 28.9255 178.122 27.7254C179.46 26.6089 181.15 26.169 182.751 26.6228C183.511 26.8372 184.23 27.2576 184.805 27.8925C185.456 28.6108 185.871 29.5687 186.113 30.5766C186.354 31.5846 186.441 32.7178 186.481 33.8009C186.525 35.0734 186.539 36.3514 186.57 37.6238C186.635 40.308 186.713 42.9921 186.804 45.6762C186.896 48.3715 187.001 51.0668 187.118 53.762C187.235 56.4573 187.367 59.1498 187.51 61.8423C187.545 62.4994 187.58 63.1593 187.618 63.8164C187.625 63.9472 187.798 63.9472 187.789 63.8164C187.636 61.0626 187.5 58.3089 187.378 55.5552C187.257 52.8014 187.146 50.07 187.048 47.3246C186.95 44.5792 186.867 41.8366 186.797 39.0912C186.762 37.7129 186.729 36.3347 186.701 34.9536C186.678 33.8427 186.652 32.7261 186.502 31.6235C186.352 30.5209 186.087 29.5186 185.578 28.6248C185.128 27.834 184.507 27.2103 183.778 26.8094C182.343 26.0158 180.616 26.0464 179.167 26.7787C177.571 27.5862 176.343 29.1984 175.536 30.9887C174.589 33.0937 174.212 35.4687 174.071 37.8299C173.992 39.1358 173.98 40.4444 173.968 41.7531C173.956 43.0617 173.947 44.4929 173.938 45.8628C173.921 48.6277 173.893 51.3953 173.877 54.1602C173.872 54.834 173.87 55.5078 173.87 56.1789C173.87 56.2485 173.959 56.2485 173.959 56.1789L173.956 56.1761Z" fill="black"/>
<path d="M167.899 19.1134C167.869 20.138 167.864 21.1655 167.888 22.1901C167.899 22.6969 167.918 23.2036 167.946 23.7104C167.96 23.9637 167.974 24.2171 167.991 24.4705C168.005 24.6849 167.988 24.9494 168.068 25.1471C168.082 25.1805 168.127 25.1694 168.134 25.136C168.183 24.9216 168.124 24.6543 168.11 24.4343C168.094 24.1809 168.077 23.9275 168.063 23.6742C168.035 23.1674 168.014 22.6607 168 22.1539C167.972 21.1404 167.972 20.1241 168 19.1106C168 19.0326 167.902 19.0326 167.899 19.1106V19.1134Z" fill="black"/>
<path d="M172.393 20.0907C172.487 21.8253 172.592 23.5572 172.695 25.2891C172.7 25.3865 172.829 25.3865 172.824 25.2891C172.721 23.5572 172.618 21.8225 172.505 20.0907C172.501 20.0071 172.388 20.0044 172.393 20.0907Z" fill="black"/>
<path d="M155.591 15.7025C155.534 17.4316 155.518 19.1802 155.6 20.9093C155.605 21.0095 155.736 21.0123 155.734 20.9093C155.696 19.1719 155.661 17.44 155.682 15.7025C155.682 15.6329 155.593 15.6329 155.591 15.7025Z" fill="black"/>
<path d="M151.057 14.7252C151.041 15.619 151.045 16.5128 151.043 17.4066L151.038 18.7124C151.038 19.1663 151.003 19.6368 151.043 20.0879C151.052 20.1937 151.172 20.1937 151.181 20.0879C151.219 19.648 151.186 19.1886 151.186 18.7458L151.181 17.4038C151.179 16.51 151.181 15.6162 151.167 14.7224C151.167 14.6389 151.059 14.6389 151.057 14.7224V14.7252Z" fill="black"/>
<path d="M133.308 29.6076C133.453 29.5993 133.329 29.2512 133.174 29.4016C133.038 29.5352 133.099 29.8694 133.106 30.042C133.118 30.365 133.132 30.6908 133.146 31.0137C133.198 32.3196 133.252 33.6283 133.306 34.9341C133.336 35.6748 133.352 36.4154 133.402 37.1561C133.409 37.2674 133.552 37.2702 133.549 37.1561C133.521 35.8613 133.425 34.5638 133.362 33.2691C133.329 32.6203 133.299 31.9744 133.266 31.3256C133.249 31.0026 133.233 30.6768 133.217 30.3538C133.209 30.2035 133.2 30.0531 133.193 29.9028C133.188 29.8304 133.181 29.7552 133.181 29.6828C133.181 29.6411 133.181 29.5993 133.191 29.5575C133.308 29.4573 133.343 29.4601 133.301 29.5659C133.282 29.5714 133.287 29.6049 133.306 29.6049L133.308 29.6076Z" fill="black"/>
<path d="M128.16 29.0285C128.116 30.3789 128.116 31.7321 128.141 33.0825C128.156 33.7536 128.177 34.4218 128.205 35.0901C128.219 35.4242 128.235 35.7583 128.254 36.0924C128.263 36.2539 128.273 36.4154 128.282 36.5769C128.292 36.7245 128.277 36.8971 128.348 37.0252C128.367 37.0642 128.427 37.0725 128.444 37.0252C128.495 36.8804 128.465 36.7301 128.456 36.5769C128.446 36.4154 128.437 36.2539 128.427 36.0924C128.409 35.7695 128.392 35.4465 128.376 35.1235C128.343 34.4441 128.317 33.7619 128.301 33.0798C128.266 31.7293 128.261 30.3761 128.275 29.0257C128.275 28.9422 128.167 28.9422 128.165 29.0257L128.16 29.0285Z" fill="black"/>
<path d="M158.338 30.2981C161.287 30.9636 164.224 31.7015 167.147 32.5089C167.559 32.6231 167.972 32.7372 168.382 32.8542C168.792 32.9711 169.177 33.1076 169.58 33.1549C169.629 33.1605 169.629 33.0797 169.592 33.0602C169.238 32.8904 168.849 32.8041 168.478 32.701C168.108 32.598 167.766 32.5006 167.409 32.4031C166.678 32.2026 165.947 32.0049 165.213 31.81C163.767 31.4286 162.316 31.0666 160.862 30.7214C160.033 30.5237 159.2 30.3315 158.368 30.145C158.286 30.1255 158.249 30.2759 158.333 30.2953L158.338 30.2981Z" fill="black"/>
<path d="M142.736 25.2613C145.335 25.9963 147.935 26.7453 150.523 27.5389C151.254 27.7616 151.983 28.0039 152.726 28.1793C152.801 28.196 152.832 28.0707 152.757 28.0428C151.491 27.5444 150.176 27.1992 148.882 26.8149C147.588 26.4307 146.287 26.0464 144.986 25.69C144.25 25.4896 143.512 25.2891 142.775 25.097C142.684 25.0719 142.644 25.239 142.736 25.264V25.2613Z" fill="black"/>
<path d="M128.582 60.5336C128.139 62.1262 128.751 63.7412 129.63 64.9468C130.509 66.1524 131.803 67.1019 133.102 67.6922C134.4 68.2825 135.882 68.5804 137.312 68.5024C138.741 68.4245 140.202 68.0207 141.43 67.1576C142.611 66.3251 143.43 64.9969 143.727 63.4015C144.025 61.806 143.826 60.2663 143.207 58.888C142.588 57.5098 141.587 56.3904 140.434 55.647C139.088 54.7783 137.537 54.4442 136.015 54.5249C134.494 54.6057 132.898 55.0623 131.533 55.9227C130.251 56.7329 129.149 58.0249 128.718 59.7066C128.62 60.0909 128.563 60.489 128.547 60.8928C128.54 61.0793 128.786 61.0793 128.793 60.8928C128.861 59.2082 129.728 57.7186 130.856 56.7552C132.047 55.7361 133.519 55.182 134.958 54.9231C136.397 54.6641 138.041 54.7672 139.47 55.4187C140.656 55.9589 141.742 56.8833 142.508 58.0917C143.275 59.3001 143.685 60.7647 143.629 62.2794C143.573 63.7941 143.054 65.2698 142.093 66.2805C141.05 67.3776 139.62 67.9233 138.261 68.1544C136.901 68.3855 135.504 68.2741 134.18 67.8509C132.855 67.4277 131.618 66.7177 130.577 65.6986C129.536 64.6795 128.671 63.2957 128.61 61.6947C128.596 61.3188 128.634 60.9457 128.725 60.5837C128.753 60.4751 128.613 60.4306 128.582 60.5364V60.5336Z" fill="black"/>
<path d="M128.474 60.4C127.818 57.9469 128.908 55.3268 130.539 53.8177C131.435 52.988 132.49 52.4228 133.568 52.019C134.646 51.6153 135.734 51.3452 136.838 51.2004C138.882 50.9331 141.156 51.1447 142.813 52.743C144.47 54.3412 145.218 56.9195 145.202 59.3363C145.185 61.4413 144.536 63.7328 143.022 64.9719C142.841 65.1195 142.651 65.2475 142.457 65.3617C142.318 65.4425 142.44 65.6875 142.579 65.6067C144.304 64.6044 145.188 62.3991 145.375 60.2134C145.586 57.7632 144.965 55.0735 143.551 53.2386C142.047 51.2839 139.763 50.7494 137.623 50.883C136.493 50.9526 135.368 51.1893 134.274 51.5262C133.132 51.877 132.009 52.3726 131.013 53.1328C130.082 53.8428 129.288 54.7839 128.76 55.9478C128.268 57.0364 128.015 58.3006 128.167 59.534C128.205 59.8431 128.273 60.1466 128.362 60.4417C128.388 60.5253 128.5 60.4918 128.477 60.4055L128.474 60.4Z" fill="black"/>
<path d="M156.16 65.9186C156.132 67.7284 156.645 69.4909 157.513 70.9694C158.38 72.4479 159.604 73.6758 160.994 74.4471C162.595 75.3325 164.376 75.6778 166.134 75.6026C167.02 75.5636 167.906 75.4244 168.774 75.1989C169.641 74.9733 170.473 74.7144 171.209 74.1881C171.945 73.6619 172.452 72.8266 172.798 71.8966C173.169 70.9026 173.406 69.839 173.49 68.7586C173.645 66.804 173.251 64.8549 172.341 63.2122C171.523 61.7309 170.349 60.5336 169.01 59.7568C167.522 58.8936 165.844 58.5901 164.2 58.7655C162.475 58.9493 160.792 59.6343 159.315 60.7062C157.993 61.6668 156.772 63.0033 156.163 64.7297C156.013 65.1501 155.907 65.59 155.846 66.0411C155.82 66.2304 156.064 66.314 156.092 66.1218C156.341 64.3064 157.344 62.8084 158.535 61.7003C159.822 60.503 161.373 59.6788 162.97 59.2695C164.566 58.8602 166.296 58.8936 167.874 59.5062C169.254 60.0436 170.513 61.0292 171.474 62.3212C172.435 63.6131 173.12 65.3144 173.258 67.0908C173.342 68.1683 173.253 69.2598 173.023 70.3067C172.81 71.2813 172.494 72.2892 171.955 73.08C171.415 73.8707 170.644 74.319 169.833 74.6197C169.022 74.9204 168.169 75.1404 167.318 75.2685C165.621 75.5219 163.868 75.4021 162.231 74.784C160.741 74.2216 159.393 73.2275 158.338 71.8493C157.351 70.5601 156.636 68.9535 156.395 67.2244C156.336 66.7929 156.308 66.3585 156.31 65.9214C156.31 65.8016 156.156 65.8016 156.153 65.9214L156.16 65.9186Z" fill="black"/>
<path d="M157.576 70.368C156.688 68.5637 156.953 66.1831 157.968 64.5348C158.983 62.8864 160.797 61.859 162.548 61.6585C164.409 61.4469 166.324 62.0288 167.855 63.3096C169.386 64.5905 170.384 66.4281 170.785 68.5081C171.144 70.3652 170.987 72.6484 169.756 74.0267C169.608 74.1937 169.447 74.3385 169.273 74.4666C169.154 74.5557 169.261 74.7785 169.383 74.6921C170.884 73.6174 171.331 71.298 171.139 69.3573C170.921 67.1576 169.979 65.0805 168.57 63.6326C167.091 62.1096 165.124 61.3077 163.174 61.3439C161.336 61.3801 159.442 62.182 158.179 63.8081C156.915 65.4341 156.442 67.7813 157.147 69.7833C157.229 70.0172 157.325 70.2455 157.438 70.4627C157.492 70.5657 157.628 70.4738 157.576 70.368Z" fill="black"/>
<path d="M167.231 71.3286C167.672 69.5382 167.245 67.5697 166.235 66.1608C165.225 64.7519 163.537 64.0614 161.945 64.3565C161.507 64.4373 161.08 64.5904 160.675 64.8076C160.469 64.919 160.265 65.0442 160.077 65.1974C159.89 65.3505 159.728 65.5343 159.566 65.7348C159.529 65.7821 159.58 65.8712 159.627 65.8294C159.777 65.693 159.946 65.5789 160.105 65.4563C160.265 65.3338 160.419 65.2252 160.583 65.125C160.926 64.919 161.287 64.7658 161.662 64.6656C162.417 64.4623 163.211 64.4762 163.957 64.7129C165.447 65.1835 166.587 66.5979 167.041 68.3298C167.29 69.2765 167.341 70.3346 167.149 71.3063C167.137 71.3676 167.215 71.3954 167.231 71.3341V71.3286Z" fill="black"/>
<path d="M130.797 61.7504C131.034 59.793 132.19 58.1947 133.697 57.4179C135.352 56.5631 137.232 56.9028 138.774 57.933C139.682 58.54 140.425 59.3725 141.118 60.2858C141.168 60.3498 141.266 60.2635 141.222 60.1911C140.685 59.2806 139.939 58.5261 139.147 57.9414C138.355 57.3566 137.441 56.9278 136.498 56.7747C134.764 56.4907 132.98 57.2119 131.803 58.7739C131.182 59.5981 130.753 60.6283 130.708 61.7392C130.706 61.7977 130.788 61.8144 130.797 61.7532V61.7504Z" fill="black"/>
<path d="M107.162 60.2189C106.616 58.4425 107.193 56.4211 108.435 55.2795C109.752 54.0711 111.534 53.8706 113.104 54.3857C113.585 54.5444 114.049 54.7616 114.497 55.0261C114.717 55.157 114.933 55.299 115.146 55.4465C115.359 55.5941 115.575 55.7751 115.802 55.9087C115.866 55.9449 115.936 55.8531 115.882 55.7862C115.561 55.4076 115.12 55.1236 114.719 54.8785C114.319 54.6335 113.89 54.4135 113.454 54.2493C112.605 53.9263 111.7 53.7843 110.814 53.9124C109.159 54.149 107.624 55.2878 107.026 57.1923C106.717 58.1836 106.686 59.3001 107.054 60.2718C107.082 60.3442 107.188 60.2941 107.164 60.2162L107.162 60.2189Z" fill="black"/>
<path d="M10.2045 62.3991C9.93022 62.0371 9.41218 62.0705 9.15433 62.4381C8.88008 62.8251 8.89883 63.4182 9.19184 63.7857C9.48485 64.1532 9.93491 64.2507 10.2936 64.014C10.6522 63.7774 10.8538 63.2428 10.7436 62.7722C10.6827 62.5077 10.5256 62.2849 10.3311 62.1401C10.1553 62.0093 9.85287 61.8812 9.67003 62.0566C9.62784 62.0956 9.65831 62.168 9.69816 62.1847C9.77317 62.2181 9.85287 62.2153 9.93256 62.2265C10.0123 62.2376 10.0966 62.271 10.1693 62.3156C10.31 62.4019 10.4272 62.5327 10.4998 62.697C10.6498 63.0367 10.542 63.4599 10.3123 63.7077C10.0826 63.9556 9.71691 63.9528 9.45672 63.7467C9.18012 63.5295 9.06995 63.1063 9.2059 62.7444C9.36061 62.3295 9.8388 62.1847 10.1271 62.4993C10.1834 62.5606 10.2607 62.4687 10.2092 62.4019L10.2045 62.3991Z" fill="black"/>
<path d="M3.15118 66.5116C3.09492 67.2022 3.09023 67.8982 3.14649 68.5888C3.17227 68.9145 3.20978 69.2375 3.26135 69.5605C3.28713 69.7331 3.31761 69.9058 3.35277 70.0784C3.38324 70.2288 3.3973 70.4125 3.477 70.5378C3.51685 70.5991 3.59186 70.5796 3.59889 70.4988C3.61062 70.3429 3.54498 70.1759 3.51451 70.0255C3.48404 69.8751 3.45356 69.7276 3.42543 69.5744C3.36449 69.2264 3.31526 68.8756 3.28245 68.5219C3.2215 67.8537 3.20744 67.1827 3.24728 66.5116C3.25197 66.4392 3.15821 66.4392 3.15118 66.5116Z" fill="black"/>
<path d="M86.3681 25.7068C88.5176 23.3094 90.6648 20.9093 92.8143 18.512C93.4261 17.8298 94.0262 17.1337 94.6333 16.4432C94.6802 16.3903 94.6099 16.3095 94.563 16.3596C92.3947 18.7319 90.2476 21.132 88.0957 23.5294L86.258 25.5759C86.1853 25.6566 86.2955 25.7847 86.3658 25.704L86.3681 25.7068Z" fill="black"/>
<path d="M91.0562 25.6288C92.6665 24.0528 94.2816 22.4825 95.8826 20.8954C96.3373 20.4443 96.7827 19.9849 97.2328 19.531C97.2773 19.4865 97.214 19.4113 97.1671 19.4531C95.5357 21.0012 93.9183 22.5688 92.3032 24.1419C91.8461 24.5874 91.389 25.0357 90.9319 25.4812C90.8452 25.5648 90.9694 25.7123 91.0538 25.626L91.0562 25.6288Z" fill="black"/>
<path d="M177.126 34.7977C177.372 32.8375 177.756 30.3984 179.526 29.6048C179.962 29.4072 180.403 29.3821 180.86 29.4795C180.899 29.4879 180.914 29.4266 180.876 29.4072C180.11 29.0535 179.238 29.4768 178.642 30.0643C177.937 30.7631 177.55 31.7878 177.341 32.8291C177.212 33.4695 177.142 34.1239 177.067 34.7782C177.062 34.8255 177.121 34.845 177.128 34.7977H177.126Z" fill="black"/>
</svg>
