<svg width="30" height="24" viewBox="0 0 30 24" fill="none" xmlns="http://www.w3.org/2000/svg">
<path d="M12.4378 16.0986C12.2315 16.0986 12.0315 16.0342 11.8628 15.8994L0.307242 6.6353C-0.0614853 6.33645 -0.105233 5.81495 0.213498 5.46923C0.532229 5.11765 1.08845 5.08249 1.45717 5.37547L13.0065 14.6454C13.3752 14.9443 13.419 15.4658 13.1002 15.8115C12.9252 16.0049 12.6752 16.1045 12.4315 16.1045L12.4378 16.0986Z" fill="#808080"/>
<path d="M17.2499 16.3516C16.9999 16.3516 16.7562 16.252 16.5812 16.0586C16.2624 15.7129 16.3062 15.1855 16.6749 14.8925L28.543 5.37059C28.9179 5.07761 29.4741 5.11276 29.7866 5.46434C30.1054 5.81006 30.0616 6.33743 29.6929 6.63041L17.8248 16.1523C17.6561 16.2871 17.4561 16.3516 17.2499 16.3516Z" fill="#808080"/>
<path d="M14.9881 17.101C13.9195 17.101 12.8695 16.7142 11.9321 15.9466C11.8446 15.888 11.7696 15.8177 11.7071 15.7298C11.4634 15.3841 11.5259 14.9153 11.8633 14.6399C12.2008 14.3645 12.7445 14.4055 13.0695 14.6751C13.8757 15.3431 15.1694 15.9173 16.738 14.8509C17.1318 14.5813 17.6817 14.6634 17.9692 15.0384C18.2567 15.4075 18.163 15.929 17.7692 16.1927C16.8818 16.7963 15.9318 17.0951 14.9881 17.0951V17.101Z" fill="#808080"/>
<path d="M26.9869 23.1602H3.0133C1.3509 23.1602 0.000976562 21.8945 0.000976562 20.33V3.6183C0.000976562 2.05963 1.3509 0.788086 3.0133 0.788086H26.9806C28.643 0.788086 29.9929 2.05963 29.9929 3.6183V20.33C29.9929 21.8887 28.643 23.1602 26.9806 23.1602H26.9869ZM3.0133 2.44637C2.32584 2.44637 1.76337 2.97373 1.76337 3.6183V20.33C1.76337 20.9746 2.32584 21.5019 3.0133 21.5019H26.9806C27.6681 21.5019 28.2305 20.9746 28.2305 20.33V3.6183C28.2305 2.97373 27.6681 2.44637 26.9806 2.44637H3.0133Z" fill="#808080"/>
</svg>
