<svg width="82" height="13" viewBox="0 0 82 13" fill="none" xmlns="http://www.w3.org/2000/svg">
<path d="M13.9688 4.92067C13.8939 4.69667 13.6948 4.53351 13.455 4.49976L9.38904 3.9258L7.57069 0.344909C7.4635 0.133925 7.24229 0 7.00002 0C6.75776 0 6.53655 0.133659 6.42936 0.344909L4.61101 3.92554L0.545007 4.4995C0.305203 4.53325 0.105868 4.69667 0.0312197 4.92041C-0.0437019 5.14441 0.0186416 5.3902 0.192274 5.55442L3.13445 8.34107L2.43965 12.2767C2.39863 12.5087 2.4968 12.7433 2.69285 12.8818C2.80387 12.9601 2.93512 13 3.06691 13C3.16808 13 3.2698 12.9766 3.36304 12.9291L7.00002 11.0711L10.637 12.9291C10.7308 12.9769 10.8328 13 10.9348 13C11.2859 12.9995 11.5702 12.7229 11.5702 12.3814C11.5702 12.3338 11.5648 12.2876 11.5544 12.2432L10.8656 8.34133L13.8078 5.55442C13.9811 5.3902 14.0437 5.14441 13.9688 4.92041V4.92067Z" fill="#848372"/>
<path d="M30.9688 4.92067C30.8939 4.69667 30.6948 4.53351 30.455 4.49976L26.389 3.9258L24.5707 0.344909C24.4635 0.133925 24.2423 0 24 0C23.7578 0 23.5365 0.133659 23.4294 0.344909L21.611 3.92554L17.545 4.4995C17.3052 4.53325 17.1059 4.69667 17.0312 4.92041C16.9563 5.14441 17.0186 5.3902 17.1923 5.55442L20.1345 8.34107L19.4396 12.2767C19.3986 12.5087 19.4968 12.7433 19.6929 12.8818C19.8039 12.9601 19.9351 13 20.0669 13C20.1681 13 20.2698 12.9766 20.363 12.9291L24 11.0711L27.637 12.9291C27.7308 12.9769 27.8328 13 27.9348 13C28.2859 12.9995 28.5702 12.7229 28.5702 12.3814C28.5702 12.3338 28.5648 12.2876 28.5544 12.2432L27.8656 8.34133L30.8078 5.55442C30.9811 5.3902 31.0437 5.14441 30.9688 4.92041V4.92067Z" fill="#848372"/>
<path d="M47.9688 4.92067C47.8939 4.69667 47.6948 4.53351 47.455 4.49976L43.389 3.9258L41.5707 0.344909C41.4635 0.133925 41.2423 0 41 0C40.7578 0 40.5365 0.133659 40.4294 0.344909L38.611 3.92554L34.545 4.4995C34.3052 4.53325 34.1059 4.69667 34.0312 4.92041C33.9563 5.14441 34.0186 5.3902 34.1923 5.55442L37.1345 8.34107L36.4396 12.2767C36.3986 12.5087 36.4968 12.7433 36.6929 12.8818C36.8039 12.9601 36.9351 13 37.0669 13C37.1681 13 37.2698 12.9766 37.363 12.9291L41 11.0711L44.637 12.9291C44.7308 12.9769 44.8328 13 44.9348 13C45.2859 12.9995 45.5702 12.7229 45.5702 12.3814C45.5702 12.3338 45.5648 12.2876 45.5544 12.2432L44.8656 8.34133L47.8078 5.55442C47.9811 5.3902 48.0437 5.14441 47.9688 4.92041V4.92067Z" fill="#848372"/>
<path d="M64.9688 4.92067C64.8939 4.69667 64.6948 4.53351 64.455 4.49976L60.389 3.9258L58.5707 0.344909C58.4635 0.133925 58.2423 0 58 0C57.7578 0 57.5365 0.133659 57.4294 0.344909L55.611 3.92554L51.545 4.4995C51.3052 4.53325 51.1059 4.69667 51.0312 4.92041C50.9563 5.14441 51.0186 5.3902 51.1923 5.55442L54.1345 8.34107L53.4396 12.2767C53.3986 12.5087 53.4968 12.7433 53.6929 12.8818C53.8039 12.9601 53.9351 13 54.0669 13C54.1681 13 54.2698 12.9766 54.363 12.9291L58 11.0711L61.637 12.9291C61.7308 12.9769 61.8328 13 61.9348 13C62.2859 12.9995 62.5702 12.7229 62.5702 12.3814C62.5702 12.3338 62.5648 12.2876 62.5544 12.2432L61.8656 8.34133L64.8078 5.55442C64.9811 5.3902 65.0437 5.14441 64.9688 4.92041V4.92067Z" fill="#848372"/>
<path d="M81.9688 4.92067C81.8939 4.69667 81.6948 4.53351 81.455 4.49976L77.389 3.9258L75.5707 0.344909C75.4635 0.133925 75.2423 0 75 0C74.7578 0 74.5365 0.133659 74.4294 0.344909L72.611 3.92554L68.545 4.4995C68.3052 4.53325 68.1059 4.69667 68.0312 4.92041C67.9563 5.14441 68.0186 5.3902 68.1923 5.55442L71.1345 8.34107L70.4396 12.2767C70.3986 12.5087 70.4968 12.7433 70.6929 12.8818C70.8039 12.9601 70.9351 13 71.0669 13C71.1681 13 71.2698 12.9766 71.363 12.9291L75 11.0711L78.637 12.9291C78.7308 12.9769 78.8328 13 78.9348 13C79.2859 12.9995 79.5702 12.7229 79.5702 12.3814C79.5702 12.3338 79.5648 12.2876 79.5544 12.2432L78.8656 8.34133L81.8078 5.55442C81.9811 5.3902 82.0437 5.14441 81.9688 4.92041V4.92067Z" fill="#B0B0A0"/>
<path d="M74.4294 0.344909L72.611 3.92554L68.545 4.4995C68.3052 4.53325 68.1059 4.69667 68.0312 4.92041C67.9563 5.14441 68.0186 5.3902 68.1923 5.55442L71.1345 8.34107L70.4396 12.2767C70.3986 12.5087 70.4968 12.7433 70.6929 12.8818C70.8039 12.9601 70.9351 13 71.0669 13C71.1681 13 71.2698 12.9766 71.363 12.9291L75 11.0711V0C74.7578 0 74.5365 0.133659 74.4294 0.344909Z" fill="#848372"/>
</svg>
