<svg width="18" height="30" viewBox="0 0 18 30" fill="none" xmlns="http://www.w3.org/2000/svg">
<path d="M10.7062 30H5.09375C4.60625 30 4.21875 29.6063 4.21875 29.1187V18.7062H0.875C0.3875 18.7062 0 18.3125 0 17.825V12.175C0 11.6875 0.39375 11.2937 0.875 11.2937H4.2125V7.94375C4.2125 3.5625 7.75625 0 12.1063 0H16.3188C16.8062 0 17.1938 0.39375 17.1938 0.88125V6.53125C17.1938 7.01875 16.8 7.4125 16.3188 7.4125H12.1063C11.8188 7.4125 11.5813 7.65 11.5813 7.94375V11.2937H16.3188C16.5875 11.2937 16.8438 11.4188 17.0125 11.6313C17.1812 11.8438 17.2375 12.125 17.1687 12.3875L15.7625 18.0375C15.6625 18.4312 15.3125 18.7062 14.9125 18.7062H11.5813V29.1187C11.5813 29.6063 11.1875 30 10.7062 30ZM5.96875 28.2375H9.83125V17.825C9.83125 17.3375 10.225 16.9438 10.7062 16.9438H14.2313L15.2 13.0625H10.7062C10.2187 13.0625 9.83125 12.6687 9.83125 12.1812V7.94375C9.83125 6.68125 10.8562 5.65 12.1125 5.65H15.45V1.7625H12.1125C8.725 1.7625 5.96875 4.53125 5.96875 7.9375V12.175C5.96875 12.6625 5.575 13.0562 5.09375 13.0562H1.75625V16.9375H5.09375C5.58125 16.9375 5.96875 17.3312 5.96875 17.8188V28.2312V28.2375Z" fill="#2C2C2C" fill-opacity="0.760784"/>
</svg>
