<svg width="30" height="30" viewBox="0 0 30 30" fill="none" xmlns="http://www.w3.org/2000/svg">
<path d="M22.0517 29.9938H7.9421C3.56176 29.9938 0 26.432 0 22.0517V7.9421C0 3.56176 3.56176 0 7.9421 0H22.0579C26.4382 0 30 3.56176 30 7.9421V22.0579C30 26.4382 26.4382 30 22.0579 30L22.0517 29.9938ZM7.9421 1.76213C4.53656 1.76213 1.76213 4.53656 1.76213 7.9421V22.0579C1.76213 25.4634 4.53031 28.2316 7.93585 28.2316H22.0517C25.4572 28.2316 28.2254 25.4634 28.2254 22.0579V7.9421C28.2254 4.53656 25.4572 1.76838 22.0517 1.76838H7.9421V1.76213Z" fill="#2C2C2C" fill-opacity="0.760784"/>
<path d="M15.0404 21.4642C13.647 21.4642 12.3035 21.0205 11.1662 20.1769C9.76654 19.1397 8.85423 17.615 8.59803 15.8903C8.34184 14.1657 8.773 12.4473 9.81028 11.0413C10.8476 9.64164 12.3722 8.72933 14.0969 8.47313C14.7343 8.3794 15.3779 8.3794 16.0152 8.47313C18.8834 8.89804 21.0892 11.1101 21.5141 13.972C21.7703 15.6966 21.3391 17.415 20.3018 18.821C19.2646 20.2207 17.7399 21.133 16.0152 21.3892C15.6903 21.4392 15.3654 21.4579 15.0404 21.4579V21.4642ZM15.0592 10.1728C14.828 10.1728 14.5905 10.1915 14.3593 10.2228C13.1033 10.4102 11.9911 11.0726 11.235 12.0974C10.4789 13.1222 10.1602 14.3781 10.3477 15.6341C10.5351 16.8964 11.1975 18.0024 12.2223 18.7647C13.2471 19.5208 14.5031 19.8333 15.759 19.6521C17.015 19.4646 18.1273 18.8022 18.8834 17.7774C19.6395 16.7527 19.9582 15.4967 19.7707 14.2407C19.4645 12.1474 17.8524 10.5352 15.759 10.229C15.5278 10.1915 15.2966 10.179 15.0592 10.179V10.1728Z" fill="#2C2C2C" fill-opacity="0.760784"/>
<path d="M22.439 7.79882C22.967 7.79882 23.395 7.37078 23.395 6.84277C23.395 6.31476 22.967 5.88672 22.439 5.88672C21.9109 5.88672 21.4829 6.31476 21.4829 6.84277C21.4829 7.37078 21.9109 7.79882 22.439 7.79882Z" fill="#2C2C2C" fill-opacity="0.760784"/>
<path d="M22.4389 8.68592C22.014 8.68592 21.6016 8.5422 21.2704 8.26726C20.8893 7.95483 20.6581 7.51117 20.6081 7.02377C20.5143 6.01148 21.2579 5.11167 22.2702 5.01794C22.7389 4.9742 23.2325 5.11792 23.6137 5.43035C23.9949 5.74279 24.2261 6.18645 24.2761 6.67384C24.3698 7.68613 23.6262 8.58595 22.6202 8.67968C22.5639 8.67968 22.5014 8.68592 22.4452 8.68592H22.4389Z" fill="#2C2C2C" fill-opacity="0.760784"/>
</svg>
