<svg width="138" height="34" viewBox="0 0 138 34" fill="none" xmlns="http://www.w3.org/2000/svg">
<g clip-path="url(#clip0_391_36663)">
<path d="M101.495 19.4971C101.753 19.6842 101.664 19.5947 102.18 19.8794C104.45 21.2947 106.914 24.6459 107.477 28.0703C107.719 29.5345 108.218 30.9335 108.741 32.3163C109.112 33.2923 108.838 33.6014 108.041 33.6096C106.882 33.6177 105.722 33.6096 104.563 33.6096C103.693 33.6096 103.484 33.2517 103.798 32.4139C104.804 29.7541 104.587 27.1024 103.589 24.4914C102.622 21.9617 100.819 20.3837 98.1217 20.1316C95.9317 19.9282 93.4116 19.7249 91.584 18.0737C91.5035 18.5699 91.5115 18.8545 91.5115 19.0742C91.584 22.7182 91.6564 26.3622 91.8175 30.0062C91.8577 30.8359 92.1878 31.6737 92.4777 32.4708C92.7595 33.2679 92.5018 33.5852 91.7289 33.5933C90.5212 33.6014 89.3216 33.5933 88.1139 33.5933C87.4536 33.5933 87.0269 33.333 87.3168 32.6091C88.5245 29.6321 88.3312 26.5086 88.3312 23.4014C88.3312 18.4885 88.4279 13.5675 88.291 8.66268C88.2266 6.44211 87.7274 4.22967 87.349 2.02536C87.2363 1.39091 86.89 1.00861 87.9287 0.862202C91.5357 0.357896 95.2554 0.16268 98.8221 0.601915C104.917 1.38278 109.49 8.11771 106.809 14.5679C106.101 16.2761 104.82 17.366 103.17 18.5129C102.687 18.8464 102.204 19.0579 101.495 19.4727V19.4971ZM91.5276 9.65503C91.5276 10.867 91.4552 12.0871 91.5437 13.299C91.7772 16.5608 93.5405 18.6593 96.3423 19.1067C99.3857 19.5866 102.244 17.9191 103.347 14.934C104.313 12.2986 104.184 9.60622 103.323 6.98708C102.212 3.58708 99.8286 1.64306 96.294 1.21196C93.8867 0.91914 92.2603 2.01723 91.8336 4.42488L91.5357 9.66316L91.5276 9.65503Z" fill="#2C2C2C" fill-opacity="0.760784"/>
<path d="M85.0221 16.9837C84.9818 20.5871 84.4826 24.0928 82.7274 27.2976C80.3442 31.6412 76.6889 34.0325 71.7454 34C66.7938 33.9756 63.0258 31.6005 60.9083 27.1187C57.7361 20.3919 57.728 13.478 60.9486 6.75934C63.0258 2.44834 66.6811 0.122023 71.4636 1.33617e-05C76.3427 -0.121996 80.0463 2.08231 82.5262 6.32011C84.4585 9.60623 84.9818 13.2421 85.0221 16.9837ZM80.8998 25.5C81.6003 22.3766 81.6888 19.1474 81.3024 15.9751C81.1574 14.8038 81.0125 13.7383 80.8112 12.6809C80.1671 9.32154 79.0399 6.1493 76.5037 3.70097C71.8501 -0.797116 65.2238 0.797143 63.1063 6.92202C62.905 7.5158 62.7199 8.12585 62.6152 8.74403C61.6088 14.511 62.0435 20.1885 64.2174 25.6058C64.9823 27.501 66.2624 29.3718 67.768 30.7302C72.156 34.6914 78.42 33.0809 80.3362 27.4684C80.5616 26.8177 80.7388 26.1589 80.8837 25.5H80.8998Z" fill="#2C2C2C" fill-opacity="0.760784"/>
<path d="M123.363 19.8225C121.849 19.8225 120.327 19.7737 118.814 19.855C118.403 19.8794 117.791 20.2455 117.662 20.5952C116.599 23.5153 115.384 26.3866 114.659 29.4124C114.265 31.0555 114.281 31.1612 114.248 31.934C114.265 32.9101 114.289 33.2598 113.854 33.2761C113.033 33.3168 112.187 33.2924 111.358 33.1866C110.996 33.1378 110.972 32.7392 111.294 32.3813C113.17 30.0876 116.922 18.8952 119.683 12.1359C120.553 10.0129 121.157 7.78422 122.026 5.66125C122.566 4.34355 122.525 3.278 121.543 2.22058C121.543 2.22058 121.543 2.22058 121.535 2.21245C121.06 1.68374 121.398 0.813403 122.082 0.675125C122.163 0.658857 122.252 0.650723 122.332 0.650723C125.995 0.650723 125.11 0.170818 126.301 3.43254C128.821 10.322 131.197 17.2684 133.813 24.1172C134.844 26.8258 135.794 29.2823 137.646 31.9584C137.815 32.3 138.145 32.6416 137.936 33.0239C137.815 33.2598 137.267 33.3656 136.905 33.3737C135.746 33.4144 134.578 33.4225 133.427 33.3493C132.541 33.2924 132.533 32.9263 132.453 32.6091C131.921 30.3967 131.591 28.1354 131.003 25.9392C130.528 24.166 129.828 22.4416 129.119 20.7416C128.934 20.2943 128.387 19.912 127.904 19.8794C126.398 19.7737 124.876 19.8388 123.363 19.8388V19.8225ZM118.242 18.7976H128.306C127.654 15.422 124.087 6.39331 122.952 5.62058C121.39 9.99666 119.844 14.3158 118.242 18.7976Z" fill="#2C2C2C" fill-opacity="0.760784"/>
<path d="M12.2943 19.8225C10.7807 19.8225 9.25899 19.7737 7.74534 19.855C7.33472 19.8794 6.72282 20.2455 6.59399 20.5952C5.53122 23.5153 4.31546 26.3866 3.59084 29.4124C3.19633 31.0555 3.21243 31.1612 3.18023 31.934C3.19633 32.9101 3.22048 33.2598 2.78571 33.2761C1.96447 33.3168 1.11908 33.2924 0.289794 33.1866C-0.0725163 33.1378 -0.0966704 32.7392 0.225383 32.3813C2.10135 30.0876 5.85327 18.8952 8.61488 12.1359C9.48443 10.0129 10.0883 7.78422 10.9578 5.66125C11.4973 4.34355 11.457 3.278 10.4747 2.22058C10.4747 2.22058 10.4747 2.22058 10.4667 2.21245C9.99166 1.68374 10.3298 0.813403 11.0142 0.675125C11.0947 0.658857 11.1833 0.650723 11.2638 0.650723C14.9271 0.650723 14.0415 0.170818 15.2331 3.43254C17.7532 10.322 20.1283 17.2684 22.745 24.1172C23.7756 26.8258 24.7256 29.2823 26.5774 31.9584C26.7465 32.3 27.0766 32.6416 26.8673 33.0239C26.7465 33.2598 26.199 33.3656 25.8367 33.3737C24.6773 33.4144 23.5099 33.4225 22.3585 33.3493C21.4729 33.2924 21.4648 32.9263 21.3843 32.6091C20.8529 30.3967 20.5228 28.1354 19.9351 25.9392C19.46 24.166 18.7596 22.4416 18.0511 20.7416C17.8659 20.2943 17.3184 19.912 16.8353 19.8794C15.3297 19.7737 13.808 19.8388 12.2943 19.8388V19.8225ZM7.18174 18.7976H17.2459C16.5938 15.422 13.027 6.39331 11.8918 5.62058C10.3298 9.99666 8.78396 14.3158 7.18174 18.7976Z" fill="#2C2C2C" fill-opacity="0.760784"/>
<path d="M55.6589 0.650736C55.6589 0.650736 55.6186 0.650736 55.6025 0.650736C54.3545 0.601932 53.0985 0.57753 51.8586 0.675137C51.5124 0.699539 51.0937 0.878487 50.9005 1.4804C50.3611 3.1804 49.8055 4.9292 48.9279 6.45839C46.899 10.0048 44.8218 13.5187 42.7365 17.0326C40.6512 13.5187 38.5739 10.0048 36.545 6.45839C35.6674 4.9292 35.1118 3.18853 34.5724 1.4804C34.3792 0.878487 33.9605 0.707673 33.6143 0.675137C32.3744 0.57753 31.1184 0.601932 29.8704 0.650736C29.8543 0.650736 29.8302 0.650736 29.814 0.650736C29.1941 0.723941 28.8881 1.48853 29.2988 1.96031C29.3068 1.96844 29.3149 1.98471 29.331 1.99284C30.0395 2.73303 30.6192 4.17275 30.6111 5.19763C30.5548 12.079 30.6272 18.9603 30.5548 25.8416C30.6031 28.1761 30.3615 30.5431 30.0556 31.3239C29.8946 31.7388 29.6852 32.0885 29.4839 32.6498C29.3551 32.9995 29.6208 33.3818 29.9912 33.3818C30.6755 33.3818 31.2552 33.3818 31.8269 33.3818C32.5837 33.3818 32.7286 33.0565 32.5113 32.3488C32.1731 31.2345 31.7142 30.0957 31.6981 28.957C31.5612 21.4737 31.5209 13.9904 31.4726 6.5072C31.4807 6.22251 31.5048 6.13303 31.5612 5.87275C31.6176 5.60432 31.9718 5.53112 32.1248 5.75887C32.624 6.48279 33.099 7.08471 33.4291 7.64595C36.0297 11.9976 38.5014 16.3412 41.0698 20.701C41.3597 21.189 41.416 21.7584 41.3516 22.3278C41.3114 22.6613 41.4482 22.946 41.8589 22.9704C42.1648 22.9866 42.0682 22.9704 42.5513 22.9704H43.1712C43.8395 22.9704 43.9281 22.9134 43.9281 22.9134C43.9281 22.9134 44.2743 22.767 44.1776 22.1814C44.081 21.5957 44.081 21.0426 44.3709 20.5464C46.9312 16.2436 49.4835 11.9488 52.0438 7.65408C52.3739 7.10097 52.6235 6.74308 53.1307 6.01916C53.2918 5.79141 53.5414 5.86461 53.5977 6.13303C53.6541 6.40145 53.6219 6.43399 53.6299 6.71868C53.5816 14.2019 53.6541 21.4574 53.5172 28.9407C53.493 30.0794 53.2998 31.2426 52.9617 32.357C52.7443 33.0727 52.8892 33.3981 53.646 33.39C54.2257 33.39 54.7974 33.39 55.4817 33.39C55.8521 33.39 56.1178 33.0158 55.989 32.6579C55.7877 32.0967 55.5783 31.7469 55.4173 31.3321C55.1114 30.5431 54.8698 28.1842 54.9181 25.8498C54.8457 18.9684 54.9181 12.0871 54.8618 5.20576C54.8537 4.17275 55.4334 2.74117 56.1419 2.00098C56.15 1.99284 56.1661 1.97657 56.1741 1.96844C56.5848 1.48853 56.2788 0.723941 55.6589 0.65887V0.650736Z" fill="#2C2C2C" fill-opacity="0.760784"/>
</g>
<defs>
<clipPath id="clip0_391_36663">
<rect width="138" height="34" fill="white"/>
</clipPath>
</defs>
</svg>
