<?xml version="1.0" encoding="UTF-8"?>
<svg id="Camada_2" data-name="Camada 2" xmlns="http://www.w3.org/2000/svg" viewBox="0 0 171.4 41.8">
  <defs>
    <style>
      .cls-1 {
        fill: #f3ece3;
        stroke-width: 0px;
      }
    </style>
  </defs>
  <g id="Camada_1-2" data-name="Camada 1">
    <path class="cls-1" d="M126.06,23.97c.32.23.21.12.85.47h0c2.82,1.74,5.88,5.86,6.58,10.07.3,1.8.92,3.52,1.57,5.22.46,1.2.12,1.58-.87,1.59-1.44.01-2.88,0-4.32,0-1.08,0-1.34-.44-.95-1.47,1.25-3.27.98-6.53-.26-9.74-1.2-3.11-3.44-5.05-6.79-5.36-2.72-.25-5.85-.5-8.12-2.53-.1.61-.09.96-.09,1.23.09,4.48.18,8.96.38,13.44.05,1.02.46,2.05.82,3.03.35.98.03,1.37-.93,1.38-1.5.01-2.99,0-4.49,0-.82,0-1.35-.32-.99-1.21,1.5-3.66,1.26-7.5,1.26-11.32,0-6.04.12-12.09-.05-18.12-.08-2.73-.7-5.45-1.17-8.16-.14-.78-.57-1.25.72-1.43,4.48-.62,9.1-.86,13.53-.32,7.57.96,13.25,9.24,9.92,17.17-.88,2.1-2.47,3.44-4.52,4.85-.6.41-1.2.67-2.08,1.18ZM113.68,11.87c0,1.49-.09,2.99.02,4.48.29,4.01,2.48,6.59,5.96,7.14,3.78.59,7.33-1.46,8.7-5.13,1.2-3.24,1.04-6.55-.03-9.77-1.38-4.18-4.34-6.57-8.73-7.1-2.99-.36-5.01.99-5.54,3.95l-.37,6.44Z"/>
    <path class="cls-1" d="M105.6,20.88c-.05,4.43-.67,8.74-2.85,12.68-2.96,5.34-7.5,8.28-13.64,8.24-6.15-.03-10.83-2.95-13.46-8.46-3.94-8.27-3.95-16.77.05-25.03C78.28,3.01,82.82.15,88.76,0c6.06-.15,10.66,2.56,13.74,7.77,2.4,4.04,3.05,8.51,3.1,13.11ZM100.48,31.35c.87-3.84.98-7.81.5-11.71-.18-1.44-.36-2.75-.61-4.05-.8-4.13-2.2-8.03-5.35-11.04-5.78-5.53-14.01-3.57-16.64,3.96-.25.73-.48,1.48-.61,2.24-1.25,7.09-.71,14.07,1.99,20.73.95,2.33,2.54,4.63,4.41,6.3,5.45,4.87,13.23,2.89,15.61-4.01.28-.8.5-1.61.68-2.42Z"/>
    <path class="cls-1" d="M153.22,24.37c-1.88,0-3.77-.06-5.65.04-.51.03-1.27.48-1.43.91-1.32,3.59-2.83,7.12-3.73,10.84-.49,2.02-.47,2.15-.51,3.1.02,1.2.05,1.63-.49,1.65-1.02.05-2.07.02-3.1-.11-.45-.06-.48-.55-.08-.99,2.33-2.82,6.99-16.58,10.42-24.89,1.08-2.61,1.83-5.35,2.91-7.96.67-1.62.62-2.93-.6-4.23,0,0,0,0-.01-.01-.59-.65-.17-1.72.68-1.89.1-.02.21-.03.31-.03,4.55,0,3.45-.59,4.93,3.42,3.13,8.47,6.08,17.01,9.33,25.43,1.28,3.33,2.46,6.35,4.76,9.64.21.42.62.84.36,1.31-.15.29-.83.42-1.28.43-1.44.05-2.89.06-4.32-.03-1.1-.07-1.11-.52-1.21-.91-.66-2.72-1.07-5.5-1.8-8.2-.59-2.18-1.46-4.3-2.34-6.39-.23-.55-.91-1.02-1.51-1.06-1.87-.13-3.76-.05-5.64-.05ZM146.86,23.11h12.5c-.81-4.15-5.24-15.25-6.65-16.2-1.94,5.38-3.86,10.69-5.85,16.2Z"/>
    <path class="cls-1" d="M15.27,24.37c-1.88,0-3.77-.06-5.65.04-.51.03-1.27.48-1.43.91-1.32,3.59-2.83,7.12-3.73,10.84-.49,2.02-.47,2.15-.51,3.1.02,1.2.05,1.63-.49,1.65-1.02.05-2.07.02-3.1-.11-.45-.06-.48-.55-.08-.99,2.33-2.82,6.99-16.58,10.42-24.89,1.08-2.61,1.83-5.35,2.91-7.96.67-1.62.62-2.93-.6-4.23,0,0,0,0-.01-.01-.59-.65-.17-1.72.68-1.89.1-.02.21-.03.31-.03,4.55,0,3.45-.59,4.93,3.42,3.13,8.47,6.08,17.01,9.33,25.43,1.28,3.33,2.46,6.35,4.76,9.64.21.42.62.84.36,1.31-.15.29-.83.42-1.28.43-1.44.05-2.89.06-4.32-.03-1.1-.07-1.11-.52-1.21-.91-.66-2.72-1.07-5.5-1.8-8.2-.59-2.18-1.46-4.3-2.34-6.39-.23-.55-.91-1.02-1.51-1.06-1.87-.13-3.76-.05-5.64-.05ZM8.92,23.11h12.5c-.81-4.15-5.24-15.25-6.65-16.2-1.94,5.38-3.86,10.69-5.85,16.2Z"/>
    <path class="cls-1" d="M69.13.8s-.05,0-.07,0c-1.55-.06-3.11-.09-4.65.03-.43.03-.95.25-1.19.99-.67,2.09-1.36,4.24-2.45,6.12-2.52,4.36-5.1,8.68-7.69,13-2.59-4.32-5.17-8.64-7.69-13-1.09-1.88-1.78-4.02-2.45-6.12-.24-.74-.76-.95-1.19-.99-1.54-.12-3.1-.09-4.65-.03-.02,0-.05,0-.07,0-.77.09-1.15,1.03-.64,1.61.01.01.02.03.04.04.88.91,1.6,2.68,1.59,3.94-.07,8.46.02,16.92-.07,25.38.06,2.87-.24,5.78-.62,6.74-.2.51-.46.94-.71,1.63-.16.43.17.9.63.9.85,0,1.57,0,2.28,0,.94,0,1.12-.4.85-1.27-.42-1.37-.99-2.77-1.01-4.17-.17-9.2-.22-18.4-.28-27.6.01-.35.04-.46.11-.78.07-.33.51-.42.7-.14.62.89,1.21,1.63,1.62,2.32,3.23,5.35,6.3,10.69,9.49,16.05.36.6.43,1.3.35,2-.05.41.12.76.63.79.38.02.26,0,.86,0h.77c.83,0,.94-.07.94-.07,0,0,.43-.18.31-.9s-.12-1.4.24-2.01c3.18-5.29,6.35-10.57,9.53-15.85.41-.68.72-1.12,1.35-2.01.2-.28.51-.19.58.14s.03.37.04.72c-.06,9.2.03,18.12-.14,27.32-.03,1.4-.27,2.83-.69,4.2-.27.88-.09,1.28.85,1.27.72,0,1.43,0,2.28,0,.46,0,.79-.46.63-.9-.25-.69-.51-1.12-.71-1.63-.38-.97-.68-3.87-.62-6.74-.09-8.46,0-16.92-.07-25.38-.01-1.27.71-3.03,1.59-3.94.01-.01.03-.03.04-.04.51-.59.13-1.53-.64-1.61Z"/>
  </g>
</svg>