<svg width="24" height="30" viewBox="0 0 24 30" fill="none" xmlns="http://www.w3.org/2000/svg">
<path d="M11.8368 29.0881C11.5782 29.0881 11.3326 28.9851 11.158 28.8032C9.38025 26.9485 7.79641 25.1846 6.44529 23.5481L5.57902 22.4753C1.82304 17.7353 0 14.0319 0 11.1528C0 5.00056 5.3075 0 11.8368 0C18.3662 0 23.6737 5.00056 23.6737 11.1528C23.6737 14.0319 21.8506 17.7353 18.1011 22.4753L17.2348 23.5481C16.1811 24.827 14.9851 26.1787 13.6793 27.5849L12.5221 28.8032C12.3475 28.9851 12.1795 29.1245 11.8368 29.0881ZM11.8368 1.70928C6.31599 1.70928 1.82951 5.94612 1.82951 11.1528C1.82951 13.6197 3.58143 17.0868 7.04004 21.4509L7.89338 22.5056C9.03763 23.8875 10.3629 25.3786 11.8304 26.9424L12.3023 26.4454C13.5823 25.0695 14.7524 23.7421 15.7803 22.4995L16.6336 21.4388C20.0858 17.0746 21.8442 13.6137 21.8442 11.1467C21.8442 5.94006 17.3577 1.70322 11.8368 1.70322V1.70928Z" fill="#808080"/>
<path d="M11.8372 16.2201C8.82463 16.2201 6.37451 13.9229 6.37451 11.0983C6.37451 8.27379 8.82463 5.97656 11.8372 5.97656C14.8497 5.97656 17.2998 8.27379 17.2998 11.0983C17.2998 13.9229 14.8497 16.2201 11.8372 16.2201ZM11.8372 7.68585C9.83312 7.68585 8.19755 9.21935 8.19755 11.0983C8.19755 12.9773 9.83312 14.5109 11.8372 14.5109C13.8412 14.5109 15.4768 12.9773 15.4768 11.0983C15.4768 9.21935 13.8412 7.68585 11.8372 7.68585Z" fill="#808080"/>
</svg>
