<svg width="25" height="30" viewBox="0 0 25 30" fill="none" xmlns="http://www.w3.org/2000/svg">
<path d="M21.4251 3.02389C19.2587 1.07392 16.2686 0 13.0059 0C8.05361 0 4.99526 1.91491 3.30175 3.52144C1.20339 5.51193 0 8.16062 0 10.7884C0 14.1417 1.53078 16.7288 4.09374 17.7084C4.32411 17.797 4.55998 17.8418 4.79483 17.8418C5.30283 17.8418 5.75022 17.6355 6.05543 17.2848C5.5698 19.2139 5.05404 21.2616 4.89714 21.8817C4.82174 22.1826 4.5018 23.7401 4.43186 25.3181C4.33259 27.5597 4.79314 28.7776 5.83986 29.0412C5.97937 29.0764 6.1184 29.0939 6.25695 29.0939C7.23743 29.0939 8.19125 28.2144 9.09779 26.4714C9.76112 25.196 10.2485 23.7529 10.3804 23.304C10.4858 22.944 10.7876 21.839 11.0838 20.7463C12.0829 21.3549 13.3419 21.7135 14.5624 21.7135C17.476 21.7135 20.0942 20.4869 21.9345 18.2597C23.6868 16.1388 24.6519 13.1979 24.6519 9.97859C24.6519 7.40497 23.4758 4.86999 21.4251 3.02389ZM5.44398 11.1759C5.44398 8.04975 7.93331 4.72719 12.5467 4.72719C16.1992 4.72719 18.3798 6.57932 18.3798 9.68163C18.3798 11.7361 17.9139 13.6286 17.0681 15.0104C16.5247 15.898 15.5853 16.956 14.1952 16.956C13.6564 16.956 13.1778 16.7553 12.8826 16.4056C12.6079 16.0798 12.5231 15.668 12.6374 15.2146C12.8106 14.5271 13.049 13.8037 13.2811 13.0998C13.7217 11.7619 14.1377 10.4982 14.1377 9.43478C14.1377 7.44838 12.7623 6.06114 10.7931 6.06114C8.37391 6.06114 6.47889 8.28932 6.47895 11.1336C6.47895 12.3035 6.77283 13.2247 6.95967 13.6921L6.85804 14.0957C6.83489 14.1877 6.80986 14.2873 6.78307 14.3935C6.69943 14.0945 6.52083 13.8388 6.28246 13.5756C5.70265 12.9321 5.44398 12.192 5.44398 11.1759ZM20.9573 17.55C19.3564 19.4875 17.0852 20.5546 14.5624 20.5546C13.3156 20.5546 11.9751 20.0714 11.1471 19.3236C10.9884 19.1804 10.7604 19.1271 10.5486 19.1837C10.3368 19.2404 10.1732 19.3985 10.1191 19.5987C9.61397 21.4678 9.29209 22.6429 9.18846 22.9966C9.18409 23.0116 8.72446 24.5449 7.9867 25.9634C7.16585 27.5417 6.49016 28.0048 6.16065 27.9219C5.95307 27.8695 5.58277 27.2681 5.66695 25.3661C5.7281 23.9854 6.00616 22.5233 6.10016 22.1481C6.35913 21.1251 7.59579 16.2117 8.06125 14.3621L8.20737 13.7815C8.23737 13.6623 8.22634 13.5374 8.17591 13.4245C8.03743 13.1143 7.71513 12.2701 7.71513 11.1337C7.71513 8.93928 9.06712 7.22024 10.7931 7.22024C12.074 7.22024 12.9015 8.08953 12.9015 9.4349C12.9015 10.3235 12.5121 11.506 12.0986 12.7621C11.862 13.48 11.6172 14.2225 11.4343 14.9482C11.233 15.7471 11.4031 16.5201 11.9133 17.1249C12.4446 17.7542 13.2763 18.1151 14.1953 18.1151C15.7638 18.1151 17.1279 17.2412 18.1403 15.5875C19.0919 14.0329 19.616 11.9355 19.616 9.68174C19.616 7.83996 18.9472 6.29258 17.6818 5.20713C16.4319 4.13497 14.6563 3.56821 12.5468 3.56821C9.38706 3.56821 7.43319 4.88641 6.3504 5.99227C4.98877 7.38298 4.20787 9.27232 4.20787 11.176C4.20787 12.4678 4.56714 13.468 5.33938 14.3247C5.6101 14.6237 5.6541 14.7136 5.55041 15.0722C5.54938 15.0759 5.54835 15.0796 5.54738 15.0833L5.53362 15.1348C5.45247 15.4393 5.28356 16.073 5.20992 16.3328C5.17344 16.4635 5.07107 16.6827 4.79508 16.6827C4.72174 16.6827 4.64356 16.667 4.56168 16.6355C2.47933 15.8397 1.23624 13.6538 1.23624 10.7883C1.23624 8.46315 2.30963 6.11143 4.18102 4.33619C5.70889 2.88678 8.48028 1.15904 13.0059 1.15904C15.9479 1.15904 18.6338 2.11829 20.5688 3.86C22.378 5.48869 23.4157 7.71892 23.4157 9.97876C23.4157 12.9425 22.5426 15.6313 20.9573 17.55Z" fill="#2C2C2C" fill-opacity="0.760784"/>
</svg>
