<svg width="116" height="134" viewBox="0 0 116 134" fill="none" xmlns="http://www.w3.org/2000/svg">
<path d="M59.4582 50.6528C56.61 47.7208 55.2736 43.5642 55.0822 39.5471C54.9824 37.5047 55.1819 35.4384 55.7364 33.4678C56.2909 31.4971 57.2123 29.5106 58.6325 28.0147C59.546 27.0533 60.6789 26.5108 62.0112 26.4549C63.3436 26.3991 64.7876 26.7421 66.1439 27.0174C69.048 27.6038 71.9521 28.1942 74.8402 28.8643C76.1606 29.1715 77.5049 29.4507 78.7894 29.8935C79.9622 30.3004 81.0791 30.9107 81.849 31.912C83.4088 33.9464 83.317 36.6989 82.579 39.0286C82.1682 40.325 81.5818 41.5656 80.9515 42.7703C80.3731 43.8753 79.7348 44.9564 79.0447 45.9935C77.6525 48.0918 76.0289 50.0265 74.2338 51.7937C73.791 52.2285 73.3403 52.6553 72.8775 53.0742C72.694 53.2417 72.9653 53.509 73.1488 53.3454C77.0501 49.8151 80.3252 45.5268 82.3796 40.6641C83.3848 38.2866 83.9633 35.566 82.95 33.0888C82.4953 31.9758 81.7413 31.0344 80.7281 30.3882C79.659 29.706 78.4144 29.355 77.1938 29.0518C74.2059 28.3098 71.1941 27.6796 68.1784 27.0652C66.7263 26.7701 65.2703 26.423 63.8023 26.2116C62.5059 26.0241 61.1456 26.0002 59.9369 26.5786C58.8239 27.1131 57.9942 28.0944 57.3161 29.0997C56.7576 29.9294 56.2988 30.823 55.9279 31.7524C55.142 33.7231 54.7551 35.8532 54.6952 37.9675C54.5755 42.0922 55.6686 46.5081 58.2974 49.7592C58.6045 50.1382 58.9316 50.4972 59.2787 50.8363C59.3944 50.952 59.5699 50.7765 59.4582 50.6568V50.6528Z" fill="black"/>
<path d="M61.393 26.5547C62.1629 22.406 61.9515 18.0978 61.0779 13.985C60.651 11.9705 60.1085 9.95203 60.0886 7.8777C60.0726 6.0467 60.4596 4.08007 61.6723 2.64399C62.7294 1.39142 64.4287 0.525781 66.0922 0.832942C67.7556 1.1401 68.9843 2.51634 69.7183 3.97236C71.4455 7.40698 70.9669 11.4958 69.7183 14.9982C69.0641 16.8292 68.1107 18.5086 67.3049 20.2718C66.5469 21.9273 65.8728 23.7623 66.1081 25.6132C66.164 26.06 66.2717 26.4948 66.4312 26.9177C66.519 27.149 66.894 27.0493 66.8062 26.814C66.0922 24.9271 66.5908 22.9445 67.3368 21.1534C68.0827 19.3623 69.1239 17.6071 69.8459 15.7522C71.2261 12.2059 71.8484 8.09311 70.3605 4.47898C69.7342 2.95913 68.6931 1.46721 67.1493 0.777095C65.6055 0.08698 63.8224 0.430043 62.4701 1.41136C61.0021 2.47645 60.1763 4.13991 59.8811 5.90309C59.5461 7.90562 59.8452 9.9241 60.2601 11.8907C60.7149 14.0409 61.2055 16.1631 61.401 18.3571C61.5965 20.5511 61.5606 22.7251 61.3611 24.9032C61.3132 25.4457 61.2494 25.9882 61.1816 26.5267C61.1656 26.6504 61.3771 26.6823 61.401 26.5547H61.393Z" fill="black"/>
<path d="M63.6987 26.2994C63.7825 25.9004 63.8104 25.4936 63.8742 25.0907C63.938 24.6878 64.0258 24.2889 64.1176 23.8899C64.305 23.1081 64.5444 22.3382 64.8117 21.5763C65.3582 20.0245 66.0204 18.5206 66.6187 16.9888C67.6519 14.3281 68.4417 11.4719 68.0508 8.59174C67.9471 7.84578 67.7636 7.11178 67.4724 6.41369C67.1971 5.75549 66.8301 4.98958 66.2717 4.53084C66.1799 4.45504 66.0323 4.55078 66.0961 4.66647C66.2597 4.95767 66.4711 5.21696 66.6466 5.50019C66.8222 5.78341 66.9777 6.07063 67.1134 6.36981C67.3886 6.98014 67.5761 7.63037 67.6918 8.28857C67.9391 9.6688 67.8753 11.1009 67.6439 12.4811C67.1333 15.5088 65.7252 18.2653 64.696 21.1335C64.3968 21.9592 64.1295 22.7969 63.9221 23.6546C63.8144 24.0934 63.7266 24.5362 63.6628 24.9869C63.599 25.4377 63.5272 25.8526 63.5631 26.2834C63.5671 26.3552 63.6788 26.3831 63.6987 26.3034V26.2994Z" fill="black"/>
<path d="M62.7133 26.2595C62.9686 25.3899 63.0763 24.4604 63.1761 23.5629C63.2758 22.6653 63.3356 21.696 63.3516 20.7625C63.3795 18.9116 63.2319 17.0566 62.9128 15.2336C62.821 14.711 62.7173 14.1925 62.5976 13.6739C62.4859 13.1912 62.4022 12.6567 62.1668 12.2179C62.1309 12.15 62.0112 12.178 62.0152 12.2577C62.0432 12.6965 62.1987 13.1314 62.3024 13.5582C62.4062 13.985 62.5019 14.4398 62.5857 14.8826C62.7612 15.8041 62.8928 16.7375 62.9806 17.6749C63.1481 19.494 63.1561 21.325 62.9926 23.14C62.9008 24.1812 62.7014 25.2024 62.5857 26.2395C62.5777 26.3113 62.6934 26.3233 62.7093 26.2555L62.7133 26.2595Z" fill="black"/>
<path d="M77.852 29.7739C79.1884 28.992 79.8945 27.4522 80.2455 26.0002C80.6923 24.1532 80.6045 22.2305 80.9276 20.3636C81.2508 18.4967 82.0565 16.7215 82.9621 15.0421C83.7838 13.5183 84.6375 11.9466 85.8901 10.7299C87.0748 9.57707 88.7263 8.77526 90.4137 9.01061C91.9854 9.22602 93.1064 10.4188 93.5571 11.8947C94.0558 13.5303 93.7127 15.2296 93.0226 16.7574C92.2686 18.4289 91.1916 19.9647 90.1464 21.4646C87.9923 24.5561 85.5909 27.4722 82.9621 30.1768C82.635 30.5119 82.3119 30.847 82.0047 31.198C81.897 31.3177 82.0605 31.4772 82.1802 31.3735C82.9222 30.7353 83.5884 30.0092 84.2545 29.2912C84.9207 28.5732 85.551 27.8631 86.1813 27.1331C87.4339 25.6691 88.6266 24.1532 89.7515 22.5895C90.8764 21.0258 91.9974 19.4421 92.8989 17.7507C93.7087 16.2309 94.2991 14.5236 94.0717 12.7803C93.8842 11.3522 93.1742 9.92811 91.8937 9.19012C90.4815 8.37635 88.7144 8.59575 87.3142 9.32176C85.7704 10.1196 84.6734 11.5477 83.7838 12.9997C82.8065 14.5954 81.889 16.2827 81.2468 18.0459C80.9157 18.9515 80.6883 19.8809 80.5606 20.8383C80.429 21.8555 80.3851 22.8847 80.2934 23.9099C80.1378 25.6332 79.7828 27.4841 78.6259 28.8404C78.3666 29.1436 78.0834 29.4268 77.7762 29.6781C77.7204 29.722 77.7922 29.8098 77.852 29.7779V29.7739Z" fill="black"/>
<path d="M79.7429 30.2326C81.0314 29.3031 82.268 28.2939 83.5166 27.3126C84.5418 26.5068 85.4952 25.6491 86.0697 24.4564C87.0869 22.3382 86.9792 19.9048 87.2903 17.627C87.3781 16.9808 87.5017 16.3346 87.6892 15.7083C87.8887 15.0501 88.2038 14.4557 88.491 13.8374C88.5309 13.7536 88.4232 13.6499 88.3514 13.7297C87.6134 14.5435 87.3182 15.7681 87.1268 16.8252C86.9193 17.9821 86.8515 19.1589 86.7438 20.3237C86.6361 21.4885 86.4845 22.6653 86.0776 23.7663C85.6149 25.0188 84.7772 25.9722 83.764 26.8179C82.4156 27.9429 81.0035 28.996 79.6831 30.1528C79.6432 30.1887 79.6951 30.2565 79.7389 30.2246L79.7429 30.2326Z" fill="black"/>
<path d="M86.6201 15.9875C85.3794 17.26 84.5218 18.8198 83.7998 20.4274C83.0019 22.2065 82.2799 24.0176 81.526 25.8167C81.0712 26.9017 80.6125 27.9827 80.1657 29.0718C80.1019 29.2273 80.3532 29.2912 80.417 29.1396C81.1989 27.2807 81.9568 25.4058 82.7227 23.5389C83.4168 21.8515 84.067 20.1322 84.9486 18.5326C85.4393 17.643 85.9938 16.7973 86.6759 16.0434C86.7118 16.0035 86.656 15.9476 86.6201 15.9875Z" fill="black"/>
<path d="M93.8842 63.4698C89.4842 62.9911 85.2119 61.551 81.4183 59.2733C79.4915 58.1164 77.7882 56.7123 76.0888 55.2522C74.3895 53.7922 72.742 52.6673 70.6716 51.9852C68.6013 51.303 66.3993 50.9799 64.2372 50.7605C61.9594 50.5291 59.6617 50.4813 57.3759 50.6089C52.8563 50.8642 48.3725 51.8176 44.1441 53.4372C42.002 54.259 39.9635 55.4158 37.7376 55.9902C36.5449 56.2974 35.3322 56.3692 34.1275 56.1099C33.0145 55.8706 31.9574 55.4318 30.8604 55.1286C28.5547 54.4943 26.1413 54.5502 23.7877 54.8414C22.6588 54.981 21.5379 55.1685 20.4169 55.3639C19.3758 55.5435 18.3266 55.723 17.3373 56.1059C15.4505 56.8399 14.3415 58.3318 13.4918 60.107C12.4307 62.3289 11.4654 64.6027 10.4601 66.8525C8.37383 71.5118 6.28354 76.1671 4.19325 80.8264C3.16407 83.1201 2.13887 85.4178 1.11367 87.7116C0.734703 88.5612 0.132349 89.5745 0.519292 90.5239C0.770605 91.1502 1.36498 91.5251 1.97132 91.7525C2.88483 92.0956 3.90205 92.1514 4.86342 92.2352C6.07212 92.3429 7.28481 92.4067 8.49749 92.4187C10.9029 92.4426 13.3123 92.2791 15.6938 91.936C16.8946 91.7605 18.0873 91.5411 19.2721 91.2738L19.0247 91.0863C19.0008 100.381 20.2454 109.672 22.7306 118.627C23.7638 122.345 24.9924 126.111 27.1505 129.346C28.1279 130.81 29.3366 132.322 30.7966 133.335C31.0997 133.546 31.363 133.407 31.7181 133.311C32.2287 133.171 32.7273 132.988 33.214 132.784C34.0995 132.413 34.9492 131.971 35.8109 131.552C37.6897 130.634 39.6324 129.844 41.7427 130.375C43.3902 130.79 45.0217 131.959 44.922 133.822C44.914 133.977 45.0815 134.033 45.2012 133.981C53.4946 130.299 61.5565 126.111 69.3313 121.431C73.2326 119.086 77.0622 116.617 80.8079 114.032C84.1468 111.73 87.7011 109.404 89.7196 105.774C90.7089 103.999 91.3551 102.06 92.0851 100.17C92.8151 98.2787 93.6249 96.5913 94.7419 94.9717C96.7763 92.0278 99.4729 89.6104 102.237 87.3605C105.002 85.1107 108.01 82.9127 110.694 80.4474C112.011 79.2387 113.307 77.9582 114.388 76.5341C114.955 75.7881 115.369 74.9704 115.393 74.017C115.417 72.9958 115.046 72.0105 114.628 71.093C113.678 69.0186 112.637 66.9922 111.731 64.8979C110.826 62.8036 109.932 60.5577 109.111 58.3598C107.503 54.0515 106.075 49.6795 104.687 45.2954C104.34 44.1984 103.993 43.1054 103.646 42.0084C103.578 41.789 103.298 41.813 103.223 42.0084C100.662 48.4548 97.622 54.6978 94.8456 61.0564C94.1036 62.7597 93.3776 64.475 92.6915 66.2023C92.5917 66.4536 92.9946 66.5613 93.0944 66.314C95.6594 59.8676 98.711 53.6287 101.487 47.274C102.233 45.5707 102.959 43.8554 103.646 42.1241H103.223C105.935 50.7286 108.68 59.361 112.469 67.5626C112.948 68.5998 113.451 69.625 113.957 70.6502C114.464 71.6754 114.987 72.7644 114.979 73.9172C114.971 75.1419 114.261 76.0754 113.499 76.9689C112.92 77.6471 112.31 78.3013 111.676 78.9315C109.158 81.4447 106.31 83.5908 103.522 85.7928C100.733 87.9948 98.0488 90.1928 95.803 92.8894C94.702 94.2138 93.7246 95.6379 92.9428 97.1737C92.0373 98.9528 91.415 100.856 90.681 102.707C89.8951 104.697 88.9417 106.592 87.4937 108.192C86.0456 109.791 84.426 110.996 82.7347 112.197C79.0926 114.782 75.3628 117.247 71.5652 119.6C63.9739 124.304 56.0994 128.548 47.9976 132.302C47.0043 132.76 46.007 133.215 45.0097 133.658L45.289 133.818C45.4445 130.83 41.8424 129.529 39.3731 129.876C37.4943 130.14 35.7829 131.185 34.0956 131.987C33.6288 132.21 33.1581 132.421 32.6754 132.605C32.4441 132.693 32.2087 132.776 31.9694 132.852C31.754 132.92 31.387 133.092 31.1556 133.072C30.7726 133.036 30.3298 132.489 30.0546 132.234C29.7075 131.911 29.3764 131.576 29.0573 131.221C26.3727 128.237 24.8448 124.403 23.684 120.614C22.3397 116.222 21.3344 111.714 20.6244 107.178C19.7906 101.853 19.3877 96.4676 19.4037 91.0784C19.4037 90.9467 19.28 90.863 19.1564 90.8909C14.4692 91.948 9.64237 92.291 4.85544 91.8722C3.86216 91.7844 2.79308 91.7445 1.86761 91.3297C1.47269 91.1542 1.09372 90.8989 0.890278 90.5039C0.535248 89.8138 0.890278 89.0439 1.18148 88.4017C2.19471 86.1438 3.21991 83.89 4.23314 81.6322C6.23168 77.1843 8.23022 72.7365 10.2328 68.2926C11.234 66.0707 12.2313 63.8448 13.2326 61.6228C14.0663 59.7719 14.904 57.7694 16.7988 56.7761C17.7722 56.2655 18.8692 56.0381 19.9382 55.8466C21.0791 55.6392 22.224 55.4437 23.3768 55.2881C25.7184 54.973 28.1318 54.8493 30.4455 55.4278C32.5398 55.9503 34.4386 56.8918 36.6526 56.6006C38.8665 56.3094 40.7294 55.2961 42.6841 54.4544C50.7979 50.96 60.276 49.8909 68.9164 51.8934C71.1423 52.408 73.1249 53.3135 74.912 54.7496C76.5356 56.0541 78.0435 57.4742 79.7708 58.647C83.1376 60.9367 86.9831 62.5483 90.9801 63.3302C91.9415 63.5177 92.9109 63.6573 93.8882 63.757C94.0757 63.777 94.0717 63.4858 93.8882 63.4658L93.8842 63.4698Z" fill="black"/>
<path d="M10.3605 92.3868C10.6437 92.315 10.8432 92.0956 11.1264 92.0038C11.4535 91.9001 11.7966 91.8642 12.1356 91.8323C12.8377 91.7685 13.4919 91.6528 14.1382 91.3576C14.8761 91.0185 15.5463 90.5478 16.2125 90.0891C16.9345 89.5944 17.6446 89.0838 18.3507 88.5692C19.1604 87.9788 19.9622 87.3725 20.7601 86.7622L20.5287 86.5827C20.0101 88.5094 19.4955 90.4321 18.9769 92.3589C18.9251 92.5543 19.2283 92.6381 19.2801 92.4426C19.7987 90.5159 20.3133 88.5932 20.8319 86.6664C20.8638 86.5468 20.7162 86.3992 20.6005 86.4869C19.1764 87.5839 17.7284 88.649 16.2524 89.6782C15.5702 90.1529 14.8921 90.6595 14.1461 91.0345C13.7752 91.222 13.3842 91.3696 12.9733 91.4533C12.6263 91.5252 12.2713 91.5451 11.9162 91.585C11.5612 91.6249 11.2221 91.6767 10.899 91.8124C10.6437 91.9201 10.3565 92.0677 10.3365 92.3708C10.3365 92.3828 10.3485 92.3868 10.3565 92.3868H10.3605Z" fill="black"/>
<path d="M20.3371 87.3206C21.2785 83.8501 23.0338 80.6269 25.5549 78.0499C25.8939 77.7029 26.245 77.3638 26.608 77.0407C26.7955 76.8731 26.983 76.7136 27.1784 76.554C27.3739 76.3945 27.6093 76.2429 27.7768 76.0434C27.8446 75.9636 27.7608 75.8559 27.6651 75.8998C27.2782 76.0793 26.9351 76.4343 26.612 76.7096C26.2649 77.0088 25.9258 77.3239 25.5987 77.647C24.9685 78.2733 24.3821 78.9515 23.8435 79.6615C22.7425 81.1016 21.837 82.6813 21.1589 84.3607C20.7719 85.3141 20.4767 86.2914 20.2653 87.3007C20.2533 87.3485 20.3291 87.3685 20.3411 87.3206H20.3371Z" fill="black"/>
<path d="M27.1705 76.3067C28.6225 77.3279 29.9948 78.4529 31.2234 79.7334C31.8218 80.3557 32.3882 81.0099 32.9188 81.688C33.202 82.051 33.4733 82.426 33.7365 82.805C33.9799 83.156 34.1953 83.531 34.4705 83.8581C34.5583 83.9618 34.6899 83.8302 34.646 83.7225C34.3668 83.1002 33.9001 82.5297 33.4932 81.9872C33.0863 81.4447 32.6555 80.9181 32.2007 80.4115C31.2673 79.3624 30.2421 78.389 29.1451 77.5114C28.5387 77.0288 27.9124 76.574 27.2542 76.1631C27.1625 76.1073 27.0867 76.2469 27.1705 76.3067Z" fill="black"/>
<path d="M36.1021 80.7346C36.5449 76.8333 38.1445 73.2431 40.4263 70.0758C42.8517 66.709 45.9552 63.9166 49.1066 61.2479C50.9376 59.6961 52.8085 58.1962 54.5597 56.5487C54.6355 56.4769 54.5238 56.3692 54.444 56.433C52.7766 57.8252 51.1091 59.2174 49.4457 60.6216C47.7822 62.0258 46.1706 63.422 44.6268 64.9219C41.7746 67.7023 39.1977 70.8576 37.5821 74.5276C36.7204 76.4902 36.13 78.5805 36.0343 80.7307C36.0343 80.7745 36.0981 80.7745 36.1021 80.7307V80.7346Z" fill="black"/>
<path d="M29.8472 86.7143C30.29 87.4802 31.1995 87.7873 32.0492 87.7036C33.0704 87.5999 34.0198 87.0454 34.8814 86.5188C35.6713 86.0361 36.4372 85.4657 37.0196 84.7397C37.602 84.0137 37.8892 83.2438 37.953 82.3502C38.0208 81.4008 37.8932 80.2799 38.6431 79.5499C38.7149 79.478 38.6232 79.3584 38.5354 79.4102C37.8453 79.8052 37.7336 80.591 37.6937 81.325C37.6419 82.1946 37.6618 83.0403 37.247 83.8341C36.8321 84.628 36.1659 85.2583 35.4519 85.7768C34.6859 86.3353 33.8243 86.8619 32.9387 87.197C31.9534 87.5679 30.637 87.6038 29.9629 86.6465C29.915 86.5787 29.8033 86.6385 29.8472 86.7143Z" fill="black"/>
<path d="M38.6351 130.367C44.1959 128.185 49.5972 125.628 54.8747 122.836C60.1404 120.047 65.2703 117 70.2487 113.72C71.4973 112.895 72.7379 112.057 73.9706 111.203C75.0636 110.445 76.1446 109.648 77.0382 108.654C78.8851 106.6 79.4915 103.887 80.0779 101.271C81.3823 95.4464 83.0657 89.7101 85.1121 84.1054C87.1585 78.5007 89.5879 72.9758 92.3603 67.6584C92.6994 67.0081 93.0385 66.3579 93.3696 65.6997C93.4613 65.5162 93.194 65.3527 93.0903 65.5362C91.5944 68.1011 90.3099 70.8058 89.0693 73.5024C87.8287 76.199 86.6838 78.9036 85.6227 81.6601C83.4965 87.177 81.7334 92.8336 80.3372 98.5779C79.9981 99.9741 79.7069 101.378 79.3678 102.77C79.0288 104.163 78.6578 105.447 78.0036 106.664C76.6473 109.201 74.0823 110.741 71.7646 112.304C66.858 115.611 61.7918 118.687 56.5901 121.519C51.3683 124.359 46.003 126.889 40.5898 129.334C39.9196 129.637 39.2494 129.932 38.5793 130.223C38.5035 130.255 38.5593 130.391 38.6351 130.359V130.367Z" fill="black"/>
<path d="M76.5236 108.965C77.828 108.136 79.0566 107.178 80.2574 106.205C81.4581 105.232 82.6668 104.187 83.8196 103.121C86.1253 100.987 88.2794 98.6975 90.282 96.2762C91.4029 94.9199 92.5238 93.5755 93.8881 92.4506C93.9918 92.3628 93.8522 92.1793 93.7405 92.2591C92.4959 93.1607 91.5066 94.3574 90.5333 95.5342C89.5599 96.711 88.5228 97.9396 87.4617 99.0925C85.3355 101.402 83.0577 103.576 80.6443 105.591C79.28 106.728 77.8559 107.789 76.4677 108.894C76.4278 108.926 76.4797 108.989 76.5196 108.961L76.5236 108.965Z" fill="black"/>
<path d="M83.1735 103.373C84.7292 99.9102 86.1972 96.4237 87.3221 92.7976C87.8886 90.9746 88.3673 89.1277 88.7383 87.2568C89.1092 85.3859 89.4204 83.3913 89.8791 81.4806C90.7887 77.6829 92.4641 74.1406 94.0837 70.6063C95.7032 67.0719 97.4345 63.2942 99.1059 59.6402C100.777 55.9862 102.469 52.2923 104.148 48.6223C104.348 48.1875 104.539 47.7487 104.723 47.3059C104.782 47.1583 104.535 47.0546 104.463 47.1982C103.562 48.9933 102.776 50.8483 101.942 52.6753C101.108 54.5023 100.275 56.3333 99.441 58.1643C97.7736 61.8223 96.1021 65.4843 94.4387 69.1423C92.7752 72.8003 91.1277 76.1431 90.0467 79.853C89.5002 81.7319 89.1611 83.6626 88.8101 85.5854C88.459 87.5081 88.0681 89.363 87.5495 91.222C86.5283 94.8839 85.1202 98.4183 83.6921 101.937C83.5006 102.407 83.3091 102.874 83.1096 103.341C83.0937 103.381 83.1495 103.417 83.1695 103.377L83.1735 103.373Z" fill="black"/>
<path d="M104.535 49.9906C103.645 52.763 102.86 55.5953 102.265 58.4515C101.978 59.8397 101.747 61.2399 101.599 62.648C101.451 64.0562 101.4 65.6119 101.356 67.0959C101.312 68.5798 101.28 70.0039 101.148 71.448C101.017 72.892 100.753 74.352 100.382 75.7761C100.011 77.2003 99.5486 78.6204 99.1058 80.0365C98.663 81.4526 98.2083 82.8847 97.7615 84.3088C96.7443 87.536 95.6991 90.7592 94.7178 93.9984C94.6659 94.1699 94.9292 94.2377 94.9811 94.0702C95.9145 91.198 96.7921 88.3059 97.6976 85.4258C98.6032 82.5457 99.5406 79.7373 100.35 76.8652C100.737 75.4969 101.06 74.1087 101.244 72.6966C101.427 71.2844 101.499 69.8045 101.539 68.3524C101.579 66.9004 101.595 65.3806 101.691 63.8966C101.786 62.4127 101.974 60.9766 102.233 59.5325C102.816 56.3014 103.789 53.1819 104.639 50.0185C104.659 49.9507 104.555 49.9228 104.535 49.9906Z" fill="black"/>
<path d="M106.693 56.441C105.728 58.0247 105.026 59.748 104.575 61.5431C104.352 62.4247 104.192 63.3182 104.092 64.2197C104.04 64.6905 104.004 65.1612 103.989 65.6319C103.973 66.0747 103.941 66.5414 104.004 66.9802C104.02 67.0839 104.172 67.048 104.18 66.9563C104.22 66.4895 104.18 66.0109 104.196 65.5401C104.212 65.0974 104.244 64.6585 104.292 64.2158C104.387 63.3142 104.547 62.4207 104.766 61.5431C105.205 59.7759 105.895 58.0725 106.777 56.4809C106.805 56.429 106.729 56.3851 106.697 56.437L106.693 56.441Z" fill="black"/>
<path d="M102.704 83.89C103.634 82.7252 104.348 81.3769 104.926 80.0086C105.505 78.6404 105.927 77.1285 106.163 75.6246C106.29 74.8268 106.462 73.9332 106.322 73.1314C106.31 73.0716 106.215 73.0756 106.203 73.1314C106.035 73.8335 106.051 74.5834 105.947 75.3015C105.844 76.0195 105.692 76.7735 105.501 77.4955C105.122 78.9276 104.587 80.3238 103.905 81.6362C103.514 82.3901 103.063 83.1042 102.608 83.8182C102.573 83.8741 102.66 83.9419 102.7 83.89H102.704Z" fill="black"/>
<path d="M34.6979 99.268C37.1951 99.0247 39.4768 97.8878 41.5193 96.4796C42.5644 95.7616 43.5657 94.9717 44.547 94.1699C45.5283 93.3681 46.5495 92.5384 47.5069 91.6767C48.4643 90.8151 49.3738 89.9016 50.1636 88.8844C50.9535 87.8672 51.5877 86.6944 52.1183 85.4817C52.6768 84.2052 53.2352 82.9526 54.057 81.8237C54.8788 80.6947 55.8641 79.6815 56.8374 78.6802C59.1551 76.2948 61.5485 73.9771 63.9699 71.6953C64.0138 71.6554 63.95 71.5916 63.9021 71.6275C62.7891 72.5969 61.6921 73.5742 60.627 74.5914C59.562 75.6086 58.5607 76.5979 57.5475 77.6231C56.5342 78.6483 55.5569 79.6257 54.6514 80.7027C53.7458 81.7798 53.0557 82.8489 52.4933 84.0775C51.9308 85.3061 51.4441 86.5787 50.7101 87.7275C50.016 88.8126 49.1624 89.7859 48.2449 90.6835C47.3274 91.581 46.3501 92.4067 45.3647 93.2205C44.3794 94.0343 43.3742 94.868 42.341 95.6419C40.0672 97.3333 37.5461 98.8092 34.6939 99.2082C34.662 99.2122 34.67 99.268 34.7019 99.268H34.6979Z" fill="black"/>
<path d="M77.7761 62.3648C77.9437 63.8648 78.2748 65.3527 78.5899 66.8287C78.9051 68.3046 79.2521 69.7686 79.6351 71.2286C80.397 74.1447 81.2786 77.0288 82.2838 79.873C82.5671 80.6708 82.8583 81.4687 83.1614 82.2625C83.317 82.6734 83.4766 83.0842 83.6361 83.4911C83.7877 83.8741 83.9114 84.2929 84.1507 84.632C84.1986 84.6998 84.2983 84.6599 84.2864 84.5762C84.2265 84.2052 84.051 83.8621 83.9114 83.5151C83.7718 83.168 83.6361 82.813 83.5005 82.4619C83.2292 81.7599 82.966 81.0538 82.7107 80.3437C82.2001 78.9276 81.7174 77.4995 81.2626 76.0594C80.3571 73.1833 79.5792 70.2712 78.913 67.3273C78.5381 65.6758 78.2588 64.0004 77.8679 62.3529C77.8559 62.301 77.7682 62.313 77.7761 62.3648Z" fill="black"/>
<path d="M29.0054 78.8079C26.8593 81.1934 25.2557 84.0536 24.1587 87.0613C23.0338 90.1409 22.4234 93.396 22.2439 96.6671C22.0644 99.9382 22.3556 103.453 23.0218 106.779C23.7518 110.426 24.9086 113.98 26.3208 117.418C27.7329 120.857 29.3964 124.2 31.1675 127.475C31.3909 127.886 31.6143 128.293 31.8457 128.7C31.9334 128.855 32.1648 128.716 32.081 128.56C30.3617 125.301 28.6265 122.066 27.1625 118.679C25.6985 115.292 24.4499 111.794 23.6002 108.196C22.8144 104.861 22.3796 101.446 22.4354 98.0154C22.4912 94.5848 22.962 91.4932 23.9353 88.3777C24.9086 85.2623 26.3607 82.3582 28.3552 79.8131C28.5986 79.502 28.8419 79.1869 29.0972 78.8837C29.1451 78.8278 29.0653 78.7441 29.0134 78.7999L29.0054 78.8079Z" fill="black"/>
<path d="M31.9175 128.572C32.2726 128.528 32.5917 128.365 32.9228 128.233C33.2818 128.089 33.6368 127.938 33.9958 127.79C34.7099 127.495 35.4239 127.204 36.142 126.912C37.5741 126.33 39.0101 125.756 40.4502 125.193C43.3303 124.072 46.2344 122.995 49.1504 121.966C49.9722 121.675 50.794 121.392 51.6157 121.108C52.4375 120.825 53.2592 120.626 54.0052 120.243C54.1129 120.187 54.0331 120.043 53.9294 120.059C53.1754 120.187 52.4415 120.502 51.7194 120.749C50.9974 120.997 50.2554 121.252 49.5294 121.511C48.0694 122.026 46.6174 122.552 45.1653 123.091C42.2653 124.168 39.3851 125.297 36.521 126.47C35.7351 126.793 34.9532 127.12 34.1714 127.451C33.7844 127.615 33.4015 127.778 33.0185 127.946C32.6356 128.113 32.2247 128.253 31.8976 128.516C31.8776 128.532 31.8936 128.568 31.9175 128.568V128.572Z" fill="black"/>
<path d="M43.3982 127.934C44.5152 127.926 45.5962 128.229 46.5257 128.855C46.9724 129.158 47.3753 129.529 47.7104 129.952C47.882 130.168 48.0335 130.399 48.1692 130.642C48.3048 130.886 48.3806 131.185 48.5481 131.408C48.588 131.464 48.6838 131.452 48.6838 131.372C48.6838 131.097 48.5282 130.826 48.4045 130.586C48.2689 130.331 48.1133 130.092 47.9378 129.864C47.5908 129.41 47.1719 129.019 46.7012 128.692C45.7478 128.033 44.559 127.65 43.3942 127.782C43.3025 127.794 43.2945 127.934 43.3942 127.934H43.3982Z" fill="black"/>
<path d="M2.89283 91.3137C3.07633 91.222 3.01251 91.5331 2.95666 91.585C2.79709 91.7206 2.69338 91.4653 2.68141 91.3417C2.65748 91.0664 2.80906 90.7752 2.89283 90.5239C3.10425 89.9136 3.32366 89.2993 3.53907 88.6889C3.9659 87.4802 4.4047 86.2795 4.85946 85.0828C5.77695 82.6574 6.73833 80.248 7.75156 77.8625C9.75409 73.1474 11.9521 68.52 14.3455 63.9924C15.7018 61.4274 17.1379 58.9103 18.5939 56.4011C18.7016 56.2176 18.4184 56.0541 18.3067 56.2336C15.3827 61.0923 12.7579 66.1505 10.3485 71.2805C7.955 76.3746 5.7969 81.5763 3.90207 86.8739C3.63879 87.6158 3.37551 88.3538 3.1242 89.0998C3.00054 89.4668 2.88087 89.8298 2.7572 90.1968C2.65349 90.504 2.51387 90.8231 2.48993 91.1502C2.47797 91.3417 2.50589 91.589 2.69338 91.6967C2.80108 91.7605 2.91278 91.7565 2.98857 91.6528C3.06436 91.5491 3.09628 91.1661 2.88485 91.3098C2.88485 91.3098 2.88485 91.3177 2.88485 91.3137H2.89283Z" fill="black"/>
<path d="M9.5905 89.016C10.6157 87.2688 11.5252 85.4617 12.2512 83.5709C12.9772 81.6801 13.4799 79.5658 13.9067 77.4995C14.3335 75.4331 14.892 73.5224 15.7178 71.6315C16.5435 69.7407 17.465 68.0972 18.5022 66.4218C19.0886 65.4724 19.7069 64.5429 20.3292 63.6134C20.9515 62.684 21.5538 61.7505 22.1721 60.829C22.22 60.7612 22.1083 60.7014 22.0604 60.7652C20.8876 62.3688 19.7268 63.9685 18.6577 65.6479C17.5886 67.3273 16.6073 69.0266 15.7816 70.8177C14.9558 72.6089 14.2976 74.4917 13.8628 76.4344C13.6275 77.4955 13.436 78.5686 13.1966 79.6257C12.9573 80.6828 12.686 81.6362 12.3589 82.6175C11.621 84.8235 10.6715 86.9577 9.5187 88.9761C9.49476 89.02 9.56258 89.0639 9.5905 89.016Z" fill="black"/>
<path d="M24.5616 70.3231C28.2037 69.5492 31.7739 68.3126 35.2006 66.8565C36.884 66.1385 38.5075 65.3207 39.9835 64.2277C41.4594 63.1347 42.8477 61.8742 44.2518 60.6694C45.9233 59.2334 47.6465 57.8372 49.2222 56.2934C49.294 56.2216 49.1943 56.086 49.1105 56.1498C47.5787 57.3066 46.1506 58.6031 44.6986 59.8597C43.2466 61.1162 41.8903 62.3449 40.4263 63.5097C38.9623 64.6745 37.4344 65.5481 35.771 66.2981C34.1075 67.048 32.3085 67.7501 30.5373 68.3644C28.5587 69.0545 26.5482 69.6369 24.5337 70.2074C24.4579 70.2273 24.4898 70.343 24.5656 70.3271L24.5616 70.3231Z" fill="black"/>
<path d="M67.2051 37.3451C67.225 37.7121 67.4524 38.0871 67.6878 38.3584C67.9351 38.6456 68.2781 38.865 68.6531 38.9328C69.3472 39.0565 70.1291 38.6775 70.3246 37.9714C70.3485 37.8837 70.3086 37.7919 70.2328 37.748C69.447 37.2733 68.4616 36.9781 67.5402 37.038C67.2888 37.0539 67.2849 37.4249 67.5402 37.4289C67.979 37.4409 68.4058 37.4728 68.8326 37.5885C69.2595 37.7042 69.6584 37.8717 70.0333 38.0911L69.9416 37.8677C69.806 38.3903 69.1917 38.6735 68.685 38.5618C68.3898 38.498 68.1266 38.3225 67.9231 38.0991C67.8154 37.9834 67.7276 37.8557 67.6519 37.7201C67.5761 37.5845 67.5202 37.4249 67.4444 37.2813C67.3886 37.1736 67.2051 37.2215 67.2131 37.3451H67.2051Z" fill="black"/>
<path d="M68.2582 38.9288C68.2343 38.9687 68.2143 38.9967 68.1984 39.0405C68.1864 39.0725 68.1784 39.1044 68.1665 39.1363C68.1425 39.2121 68.1186 39.2879 68.0986 39.3637C68.0548 39.5152 68.0189 39.6748 67.983 39.8264L67.8673 40.2891C67.8473 40.3649 67.8274 40.4447 67.8114 40.5205C67.7915 40.6202 67.7875 40.688 67.8633 40.7598C67.8872 40.7838 67.9231 40.7957 67.955 40.7838C68.0548 40.7519 68.0867 40.696 68.1106 40.6003C68.1306 40.5245 68.1465 40.4447 68.1625 40.3649L68.2622 39.8982C68.2941 39.7426 68.334 39.587 68.3619 39.4315C68.3779 39.3517 68.3898 39.2719 68.4018 39.1961C68.4058 39.1602 68.4138 39.1283 68.4178 39.0924C68.4258 39.0445 68.4178 39.0126 68.4178 38.9608C68.4178 38.881 68.3061 38.8451 68.2622 38.9209L68.2582 38.9288Z" fill="black"/>
<path d="M61.4968 34.5648L61.4768 34.5249L61.5486 35.0634L61.5566 35.0474C61.5885 34.9437 61.5925 34.836 61.5726 34.7323C61.5686 34.6286 61.5367 34.5289 61.4768 34.4371L61.3532 34.2775C61.2534 34.1778 61.1377 34.11 61.0021 34.0741L60.9303 34.0581L60.7229 34.0302C60.6152 34.0262 60.5154 34.0502 60.4237 34.098C60.3599 34.118 60.3 34.1499 60.2522 34.1978C60.1684 34.2536 60.1006 34.3254 60.0527 34.4132L59.9729 34.5967L59.945 34.8041C59.941 34.9118 59.965 35.0115 60.0128 35.1033C60.0447 35.199 60.0966 35.2828 60.1724 35.3506L60.2242 35.3945C60.324 35.4942 60.4397 35.562 60.5753 35.5979C60.679 35.6298 60.7867 35.6338 60.8904 35.6139C60.9941 35.6099 61.0939 35.578 61.1856 35.5182C61.3053 35.4463 61.401 35.3546 61.4688 35.2349C61.3292 35.3347 61.1896 35.4424 61.05 35.5501L61.0899 35.5421C61.2016 35.5102 61.3013 35.4543 61.3851 35.3706C61.4489 35.3107 61.4968 35.2389 61.5247 35.1551C61.5646 35.0754 61.5845 34.9916 61.5805 34.8998C61.5805 34.7802 61.5486 34.6685 61.4888 34.5648H61.4968Z" fill="black"/>
<path d="M76.6872 40.4168C77.1141 40.4168 77.525 40.0418 77.505 39.599C77.4851 39.1562 77.146 38.7812 76.6872 38.7812C76.2604 38.7812 75.8495 39.1562 75.8695 39.599C75.8894 40.0418 76.2285 40.4168 76.6872 40.4168Z" fill="black"/>
<path d="M60.9023 37.3691C60.7706 37.2455 60.5951 37.1298 60.4156 37.0939C60.2241 37.058 60.0247 37.058 59.8332 37.0979C59.4662 37.1777 59.0593 37.437 58.9476 37.8159C58.788 38.3664 59.4782 38.4901 59.8691 38.5379C60.3518 38.5938 60.8664 38.522 61.3091 38.3146C61.5246 38.2148 61.728 38.0273 61.712 37.772C61.7001 37.5686 61.4767 37.2694 61.2573 37.437C61.1935 37.4848 61.1496 37.5965 61.2294 37.6564C61.2892 37.7042 61.3889 37.7441 61.357 37.8359C61.3131 37.9635 61.1057 38.0273 60.994 38.0672C60.6629 38.1869 60.3079 38.2388 59.9568 38.2108C59.7853 38.1989 59.6138 38.167 59.4502 38.1151C59.3904 38.0991 59.3066 38.0792 59.2667 38.0234C59.2229 37.9675 59.2508 37.8837 59.2787 37.8239C59.3944 37.5806 59.6656 37.433 59.9169 37.3731C60.2042 37.3093 60.5432 37.3532 60.7985 37.4968C60.8863 37.5447 60.986 37.425 60.9063 37.3532L60.9023 37.3691Z" fill="black"/>
<path d="M75.6182 41.805C75.2113 41.6375 74.7126 41.6135 74.3616 41.9167C74.0943 42.1481 74.0225 42.6108 74.202 42.914C74.3177 43.1134 74.5251 43.1972 74.7485 43.2092C74.9719 43.2211 75.2192 43.1932 75.4426 43.1453C75.8575 43.0576 76.2724 42.8023 76.3242 42.3475C76.3482 42.156 76.3003 41.9446 76.1886 41.789C76.0689 41.6215 75.7857 41.446 75.6062 41.6255C75.5424 41.6893 75.5663 41.7771 75.6341 41.8289C75.5982 41.801 75.7019 41.8768 75.666 41.8569C75.69 41.8728 75.7099 41.8728 75.7378 41.8808C75.7498 41.8808 75.7618 41.8888 75.7777 41.8928C75.8056 41.9007 75.7458 41.8728 75.7857 41.8968C75.7977 41.9047 75.8136 41.9127 75.8256 41.9207C75.7777 41.8888 75.8814 41.9686 75.8376 41.9327C75.8455 41.9406 75.8535 41.9446 75.8615 41.9526C75.8655 41.9566 75.9094 42.0084 75.8854 41.9765C75.9014 42.0005 75.9173 42.0244 75.9293 42.0483C75.9293 42.0483 75.9532 42.1002 75.9373 42.0683C75.9453 42.0842 75.9493 42.1002 75.9532 42.1162C75.9772 42.188 75.9772 42.1999 75.9772 42.2757C75.9772 42.3435 75.9772 42.3595 75.9453 42.4353C75.9253 42.4871 75.9612 42.4074 75.9333 42.4552C75.9253 42.4672 75.9213 42.4792 75.9133 42.4911C75.8974 42.5191 75.8735 42.547 75.8415 42.5749C75.7338 42.6826 75.5902 42.7464 75.4466 42.7863C75.2791 42.8342 75.1075 42.8541 74.936 42.8661C74.8443 42.8701 74.7525 42.8821 74.6608 42.8621C74.589 42.8462 74.5571 42.8302 74.5092 42.7823C74.4334 42.7105 74.3935 42.5948 74.3935 42.4792C74.3935 42.3635 74.4334 42.2438 74.5052 42.156C74.7485 41.8529 75.2392 41.8888 75.5663 42.0045C75.6221 42.0244 75.682 41.9845 75.6979 41.9287C75.7139 41.8688 75.678 41.821 75.6221 41.797L75.6182 41.805Z" fill="black"/>
<path d="M62.5378 11.2684C62.5179 10.0438 62.7692 8.79121 63.2798 7.67825C63.5311 7.13174 63.8423 6.61316 64.2133 6.13846C64.4007 5.89911 64.6002 5.67173 64.8116 5.45233C65.023 5.23293 65.2584 5.05741 65.4259 4.82205C65.4978 4.72233 65.3661 4.63457 65.2783 4.67446C65.0031 4.79812 64.7717 5.04943 64.5643 5.26086C64.3569 5.47228 64.1454 5.7196 63.958 5.96693C63.575 6.47354 63.2519 7.02404 62.9966 7.60246C62.486 8.76728 62.2546 10.0039 62.3663 11.2684C62.3743 11.3761 62.5378 11.3801 62.5378 11.2684Z" fill="black"/>
</svg>
