<svg width="123" height="123" viewBox="0 0 123 123" fill="none" xmlns="http://www.w3.org/2000/svg">
<path d="M61.3063 121.816C94.6708 121.816 121.718 94.7702 121.718 61.4079C121.718 28.0455 94.6708 1 61.3063 1C27.9418 1 0.894531 28.0455 0.894531 61.4079C0.894531 94.7702 27.9418 121.816 61.3063 121.816Z" stroke="#2C2C2C" stroke-opacity="0.760784" stroke-width="0.6" stroke-miterlimit="10"/>
<path d="M61.306 115.67C91.2761 115.67 115.572 91.3759 115.572 61.4079C115.572 31.4398 91.2761 7.1459 61.306 7.1459C31.336 7.1459 7.04053 31.4398 7.04053 61.4079C7.04053 91.3759 31.336 115.67 61.306 115.67Z" stroke="#2C2C2C" stroke-opacity="0.760784" stroke-width="0.6" stroke-miterlimit="10"/>
<path d="M59.4633 14.2499C59.4593 20.4567 59.5684 26.6675 59.5643 32.8744C59.5603 39.0487 59.4957 45.2231 59.3785 51.3974C59.3098 54.8722 59.1724 58.3471 59.1279 61.8219C59.1279 62.0087 59.4108 62.0087 59.4189 61.8219C59.5643 58.7246 59.5967 55.6151 59.6613 52.5137C59.726 49.4123 59.7745 46.3069 59.8108 43.2015C59.8836 37.0271 59.9078 30.8528 59.8513 24.6784C59.8189 21.2036 59.7947 17.7247 59.6735 14.2539C59.6694 14.12 59.4674 14.12 59.4674 14.2539L59.4633 14.2499Z" fill="#2C2C2C" fill-opacity="0.760784"/>
<path d="M55.592 57.6286C54.2989 58.1157 53.22 59.2848 52.5128 60.4458C51.7653 61.6677 51.3288 63.0925 51.2844 64.5296C51.1955 67.5416 53.0058 70.2289 55.6526 71.5523C56.384 71.9177 57.1639 72.1856 57.9721 72.3114C58.7803 72.4373 59.6693 72.5022 60.4411 72.2505C60.5745 72.2059 60.5583 71.9907 60.4047 71.9948C59.7057 72.007 59.0227 72.0719 58.3237 71.9826C57.6246 71.8933 56.9538 71.7066 56.3113 71.4386C55.0222 70.9028 53.8585 70.0219 53.0179 68.9056C51.3046 66.6323 51.2036 63.5797 52.4845 61.075C52.8321 60.3971 53.2725 59.7679 53.7978 59.2158C54.3232 58.6637 54.9899 58.2091 55.6445 57.7666C55.7092 57.7219 55.6688 57.6002 55.588 57.6286H55.592Z" fill="#2C2C2C" fill-opacity="0.760784"/>
<path d="M64.5631 55.7612C67.412 56.975 69.4648 59.7801 69.7315 62.8855C69.7678 63.3117 69.7678 63.7339 69.7395 64.1601C69.7112 64.5864 69.5941 65.0248 69.59 65.4551C69.59 65.5891 69.784 65.6499 69.8486 65.5241C70.0345 65.175 70.0749 64.7488 70.1234 64.3631C70.1719 63.9775 70.18 63.5594 70.1598 63.1575C70.1194 62.3578 69.9658 61.5621 69.7072 60.803C69.19 59.2808 68.2606 57.86 67.024 56.8289C66.325 56.2443 65.537 55.7937 64.6763 55.4974C64.5267 55.4487 64.4217 55.6922 64.5672 55.7572L64.5631 55.7612Z" fill="#2C2C2C" fill-opacity="0.760784"/>
<path d="M59.3663 61.9437C63.29 65.447 67.2218 68.934 71.1617 72.417C72.273 73.3994 73.3842 74.3817 74.4955 75.3641C74.6288 75.4818 74.8228 75.287 74.6894 75.1693C70.7495 71.6863 66.8096 68.2033 62.8657 64.7285C61.7544 63.7461 60.6351 62.7719 59.5198 61.7935C59.4148 61.7002 59.2612 61.8544 59.3663 61.9478V61.9437Z" fill="#2C2C2C" fill-opacity="0.760784"/>
<path d="M7.3802 61.0506C8.96424 61.0588 10.5523 60.9938 12.1364 60.9492C13.7204 60.9045 15.3125 60.9045 16.8925 60.803C17.1067 60.7909 17.1107 60.462 16.8925 60.462C15.3085 60.462 13.7204 60.5716 12.1364 60.6244C10.5523 60.6772 8.96424 60.7178 7.3802 60.8274C7.24281 60.8355 7.23877 61.0466 7.3802 61.0466V61.0506Z" fill="#2C2C2C" fill-opacity="0.760784"/>
<path d="M104.54 60.6853C104.706 60.7543 104.891 60.7219 105.069 60.7178L105.671 60.7016L106.876 60.6691C107.676 60.6488 108.48 60.6244 109.28 60.6041C110.88 60.5595 112.492 60.5635 114.089 60.4661C114.291 60.4539 114.295 60.1454 114.089 60.1454C112.472 60.1454 110.844 60.2428 109.227 60.2956C108.427 60.32 107.623 60.3443 106.823 60.3727L105.619 60.4133L105.017 60.4336C104.835 60.4377 104.677 60.4255 104.516 60.5026C104.427 60.5473 104.467 60.661 104.54 60.6894V60.6853Z" fill="#2C2C2C" fill-opacity="0.760784"/>
<path d="M98.0339 100.54C97.2298 99.0791 96.1751 97.7273 95.1002 96.4567C94.5587 95.8153 93.989 95.1983 93.399 94.6016C93.108 94.3093 92.8131 94.0211 92.514 93.741C92.215 93.4609 91.9038 93.0955 91.5361 92.921C91.423 92.8682 91.2735 92.9819 91.3543 93.1037C91.5644 93.4243 91.92 93.672 92.1988 93.9318C92.5019 94.2119 92.7969 94.5001 93.0878 94.7924C93.6819 95.385 94.2476 96.0061 94.7972 96.6394C95.8963 97.9181 96.8338 99.2983 97.7996 100.678C97.9006 100.825 98.1269 100.699 98.038 100.536L98.0339 100.54Z" fill="#2C2C2C" fill-opacity="0.760784"/>
<path d="M90.7566 28.9733C91.4355 28.4334 92.082 27.8448 92.7528 27.2927C93.4236 26.7406 94.1025 26.2048 94.7975 25.6852C95.4925 25.1656 96.1755 24.6785 96.8826 24.1995C97.2423 23.9559 97.6059 23.7164 97.9696 23.481C98.2848 23.278 98.7091 23.0912 98.9273 22.7746C99.0041 22.665 98.8788 22.5554 98.7738 22.5716C98.3899 22.6285 98.002 22.9654 97.6827 23.1765C97.319 23.4119 96.9594 23.6555 96.5998 23.8991C95.8845 24.3903 95.1774 24.8977 94.4864 25.4254C93.7954 25.9531 93.1367 26.4727 92.4821 27.0207C91.8274 27.5688 91.1486 28.1411 90.5505 28.7663C90.4171 28.9084 90.6152 29.091 90.7566 28.9733Z" fill="#2C2C2C" fill-opacity="0.760784"/>
<path d="M60.3687 114.955C60.5627 114.586 60.6879 114.237 60.7687 113.823C60.8496 113.409 60.8778 113.011 60.9061 112.601C60.9627 111.692 61.0031 110.786 61.0476 109.877C61.092 108.968 61.1365 108.038 61.1769 107.117C61.2011 106.65 61.2213 106.179 61.2456 105.712C61.2577 105.477 61.2658 105.245 61.2739 105.01C61.2819 104.799 61.3102 104.576 61.2496 104.373C61.2092 104.243 61.0476 104.259 61.0031 104.373C60.9263 104.567 60.9385 104.799 60.9263 105.01C60.9142 105.245 60.9021 105.477 60.89 105.712C60.8698 106.147 60.8536 106.581 60.8334 107.015C60.793 107.92 60.7526 108.822 60.7122 109.727C60.6718 110.632 60.6394 111.521 60.6031 112.418C60.5707 113.246 60.5061 114.107 60.2313 114.899C60.203 114.98 60.3323 115.037 60.3727 114.959L60.3687 114.955Z" fill="#2C2C2C" fill-opacity="0.760784"/>
<path d="M24.0608 99.8504C24.4568 99.6677 24.7922 99.3267 25.1317 99.0466C25.4711 98.7665 25.8025 98.4905 26.1378 98.2145C26.8208 97.6502 27.5077 97.0859 28.1866 96.5176L30.2273 94.8127C30.9183 94.2363 31.6497 93.6882 32.2881 93.0509C32.4134 92.9251 32.2477 92.6856 32.0901 92.7952C31.3668 93.2985 30.7122 93.9115 30.0373 94.4758L27.9603 96.2172C27.2693 96.7977 26.5783 97.3823 25.8914 97.9668C25.56 98.2469 25.2286 98.5311 24.8973 98.8112C24.5659 99.0913 24.178 99.3592 23.9315 99.7164C23.8709 99.8017 23.984 99.8788 24.0608 99.8463V99.8504Z" fill="#2C2C2C" fill-opacity="0.760784"/>
<path d="M23.2127 23.5743C24.3684 24.8855 25.6655 26.0911 26.898 27.3293C28.1305 28.5674 29.3993 29.8258 30.648 31.0761C30.7854 31.21 30.9914 30.9989 30.8581 30.865C29.6094 29.6147 28.3608 28.3644 27.1041 27.1182C25.8474 25.8719 24.6553 24.5892 23.342 23.4404C23.249 23.3592 23.1278 23.4809 23.2086 23.5743H23.2127Z" fill="#2C2C2C" fill-opacity="0.760784"/>
<path d="M61.484 8.75346C61.7305 8.92801 61.8558 8.36376 61.5446 8.32722C61.3224 8.29881 61.2092 8.55861 61.185 8.73316C61.1284 9.11068 61.1688 9.52068 61.1688 9.90227C61.1648 11.6397 61.1567 13.3771 61.1567 15.1145C61.1567 16.1091 61.1324 17.1077 61.1648 18.0982C61.1688 18.2687 61.4234 18.2687 61.4315 18.0982C61.48 16.4663 61.4395 14.8263 61.4315 13.1904C61.4315 12.3826 61.4234 11.5707 61.4193 10.7629C61.4193 10.3569 61.4193 9.95504 61.4153 9.5491C61.4153 9.34613 61.4153 9.14316 61.4153 8.94019C61.4153 8.86306 61.4072 8.77781 61.4315 8.70475C61.4395 8.64385 61.4719 8.59514 61.5284 8.55455C61.5204 8.60326 61.5325 8.6195 61.5729 8.60326C61.4759 8.54643 61.3951 8.68851 61.484 8.75346Z" fill="#2C2C2C" fill-opacity="0.760784"/>
<path d="M3.58542 46.7859C4.20368 46.9524 4.78961 47.1959 5.38363 47.4273C5.47657 47.4639 5.52506 47.3218 5.44828 47.2731C4.89872 46.9321 4.27237 46.721 3.65007 46.5546C3.5046 46.514 3.43994 46.7454 3.58542 46.7859Z" fill="#2C2C2C" fill-opacity="0.760784"/>
<path d="M3.98982 43.51L5.37182 44.3584C5.8244 44.6344 6.26486 44.9308 6.75786 45.1297C6.83059 45.1581 6.89121 45.0485 6.83463 44.9957C6.43054 44.6507 5.96179 44.3949 5.50921 44.123L4.11913 43.2908C3.9777 43.2055 3.85243 43.4247 3.98982 43.51Z" fill="#2C2C2C" fill-opacity="0.760784"/>
<path d="M5.71515 39.6292C6.22027 39.9661 6.71326 40.3355 7.17796 40.7293C7.40426 40.9201 7.61843 41.119 7.83259 41.3179C8.05889 41.529 8.26901 41.7604 8.50743 41.9593C8.57612 42.0161 8.69331 41.9431 8.64078 41.8578C8.30538 41.3463 7.81643 40.912 7.34768 40.5223C6.87894 40.1326 6.35766 39.7672 5.81213 39.4628C5.70303 39.4019 5.61413 39.5602 5.71515 39.6292Z" fill="#2C2C2C" fill-opacity="0.760784"/>
<path d="M6.7906 35.3872C7.29976 35.582 7.76042 35.8905 8.14835 36.2762C8.34231 36.467 8.50799 36.6781 8.66963 36.8932C8.75045 37.0028 8.82722 37.1124 8.89592 37.2301C8.96461 37.3479 9.00906 37.4818 9.09796 37.5752C9.13837 37.6158 9.21111 37.5833 9.21111 37.5265C9.21111 37.3925 9.12625 37.2464 9.06968 37.1246C9.01311 36.9988 8.94845 36.8689 8.87571 36.7511C8.7262 36.5035 8.53224 36.2721 8.32615 36.0692C7.90589 35.6551 7.40886 35.3385 6.8593 35.1274C6.69766 35.0665 6.62896 35.3263 6.78656 35.3872H6.7906Z" fill="#2C2C2C" fill-opacity="0.760784"/>
<path d="M8.68167 30.9543C9.08172 31.1897 9.45348 31.4739 9.7808 31.8027C9.94243 31.9651 10.0919 32.1356 10.2334 32.3182C10.3061 32.4116 10.3748 32.509 10.4435 32.6065C10.5122 32.7039 10.5607 32.8054 10.6415 32.8825C10.7021 32.9393 10.8031 32.8825 10.7829 32.8013C10.7547 32.6876 10.6779 32.5821 10.6173 32.4847C10.5567 32.3873 10.4799 32.2817 10.4071 32.1843C10.2657 31.9935 10.1081 31.8108 9.93839 31.6444C9.59491 31.3034 9.20699 31.0071 8.79077 30.7676C8.66954 30.6985 8.56448 30.8853 8.68167 30.9543Z" fill="#2C2C2C" fill-opacity="0.760784"/>
<path d="M11.8296 26.5295C12.1327 27.0816 12.4398 27.6337 12.7428 28.1817L13.1995 29.0098C13.2722 29.1397 13.3409 29.2696 13.4177 29.3955C13.4944 29.5213 13.5551 29.6472 13.6722 29.7324C13.7248 29.7689 13.8056 29.7202 13.8016 29.6593C13.7894 29.5173 13.7086 29.3874 13.644 29.2615C13.5793 29.1357 13.5025 29.0017 13.4298 28.8759L12.9651 28.0518L12.0397 26.4037C11.9629 26.2657 11.7528 26.3875 11.8296 26.5255V26.5295Z" fill="#2C2C2C" fill-opacity="0.760784"/>
<path d="M15.4864 22.734C15.6884 23.0791 15.9187 23.3998 16.1652 23.7164C16.4117 24.033 16.6704 24.3294 16.9694 24.5932C17.0138 24.6338 17.0946 24.581 17.0542 24.5242C16.8239 24.2035 16.5815 23.895 16.3309 23.5865C16.0804 23.278 15.846 22.9573 15.5995 22.6447C15.547 22.5798 15.446 22.665 15.4864 22.734Z" fill="#2C2C2C" fill-opacity="0.760784"/>
<path d="M18.0843 19.2267C18.2136 19.4337 18.3914 19.6123 18.5369 19.8072C18.6824 20.002 18.8238 20.205 18.9612 20.412C19.232 20.822 19.4744 21.2523 19.7169 21.6786C19.7452 21.7273 19.8341 21.6948 19.8138 21.638C19.6441 21.1671 19.4098 20.7287 19.139 20.3065C19.0057 20.0995 18.8602 19.9006 18.7107 19.7057C18.5612 19.5109 18.4076 19.2835 18.2136 19.1252C18.145 19.0684 18.0278 19.1415 18.0803 19.2267H18.0843Z" fill="#2C2C2C" fill-opacity="0.760784"/>
<path d="M22.4209 15.1957C22.6593 15.7031 22.8856 16.2187 23.1604 16.7099C23.2129 16.7992 23.3665 16.7383 23.3301 16.6368C23.1361 16.0969 22.8896 15.5813 22.6512 15.0617C22.6229 14.9968 22.526 14.9806 22.4694 15.013C22.4007 15.0536 22.3886 15.1308 22.4209 15.1957Z" fill="#2C2C2C" fill-opacity="0.760784"/>
<path d="M106.5 101.429C106.354 100.894 105.962 100.394 105.574 100.013C105.372 99.8138 105.154 99.6352 104.916 99.481C104.677 99.3267 104.411 99.2252 104.132 99.1521C104.067 99.1359 104.027 99.2293 104.087 99.2618C104.318 99.3917 104.54 99.5419 104.758 99.688C104.976 99.8341 105.199 100.005 105.393 100.199C105.587 100.394 105.756 100.589 105.906 100.812C106.055 101.036 106.177 101.283 106.314 101.515C106.375 101.616 106.536 101.551 106.504 101.434L106.5 101.429Z" fill="#2C2C2C" fill-opacity="0.760784"/>
<path d="M108.517 100.009C108.032 99.5053 107.571 98.9654 107.151 98.4052C106.73 97.845 106.379 97.2442 105.955 96.6881C105.894 96.6069 105.728 96.6475 105.769 96.7652C106.015 97.4391 106.435 98.0358 106.872 98.6001C107.308 99.1643 107.801 99.7002 108.335 100.187C108.456 100.297 108.63 100.126 108.517 100.005V100.009Z" fill="#2C2C2C" fill-opacity="0.760784"/>
<path d="M110.61 96.8911C110.327 96.0751 109.935 95.312 109.446 94.5975C109.212 94.2565 108.957 93.9236 108.682 93.6111C108.424 93.3188 108.113 92.925 107.741 92.7789C107.644 92.7424 107.575 92.8641 107.616 92.9413C107.7 93.1077 107.85 93.2417 107.979 93.3756C108.117 93.5218 108.254 93.6679 108.387 93.8181C108.666 94.1307 108.929 94.4595 109.167 94.8045C109.632 95.4784 110.02 96.2131 110.327 96.9722C110.396 97.1427 110.675 97.0778 110.61 96.8951V96.8911Z" fill="#2C2C2C" fill-opacity="0.760784"/>
<path d="M113.757 90.7451L112.638 88.9996C112.278 88.4353 111.927 87.8224 111.462 87.3393C111.405 87.2825 111.284 87.3393 111.32 87.4245C111.575 88.0456 111.987 88.6139 112.351 89.1701L113.486 90.9075C113.595 91.0739 113.866 90.9197 113.757 90.7492V90.7451Z" fill="#2C2C2C" fill-opacity="0.760784"/>
<path d="M115.572 85.7034C115.111 85.2081 114.627 84.7291 114.121 84.2785C113.616 83.8279 113.103 83.3733 112.517 83.0688C112.424 83.0201 112.323 83.1378 112.404 83.219C112.869 83.6899 113.418 84.0877 113.915 84.5302C114.412 84.9727 114.893 85.4436 115.35 85.9307C115.491 86.0809 115.714 85.8536 115.576 85.7034H115.572Z" fill="#2C2C2C" fill-opacity="0.760784"/>
<path d="M118.559 80.9092C118.114 80.4384 117.597 80.0405 117.031 79.732C116.756 79.5818 116.469 79.4519 116.174 79.3545C115.879 79.2571 115.532 79.1556 115.217 79.1718C115.132 79.1759 115.079 79.3058 115.168 79.3464C115.439 79.4682 115.734 79.5372 116.013 79.6427C116.292 79.7483 116.587 79.8741 116.861 80.0243C117.407 80.3166 117.9 80.6941 118.328 81.1406C118.474 81.2908 118.704 81.0635 118.559 80.9092Z" fill="#2C2C2C" fill-opacity="0.760784"/>
<path d="M120.102 76.5373C119.556 76.245 119.015 75.9487 118.461 75.6686C118.195 75.5346 117.928 75.3966 117.665 75.2626C117.403 75.1287 117.104 74.9501 116.813 74.8932C116.716 74.8729 116.623 74.9947 116.708 75.0719C116.926 75.2789 117.233 75.4128 117.5 75.5468C117.766 75.6808 118.033 75.8188 118.296 75.9527C118.849 76.2328 119.403 76.5048 119.961 76.7727C120.118 76.8499 120.26 76.6185 120.102 76.5332V76.5373Z" fill="#2C2C2C" fill-opacity="0.760784"/>
<path d="M121.456 71.7796C120.514 71.3615 119.395 71.0692 118.364 71.256C118.231 71.2803 118.28 71.463 118.393 71.4752C118.894 71.532 119.403 71.5523 119.896 71.6457C120.389 71.739 120.874 71.8771 121.339 72.0597C121.496 72.1206 121.613 71.8527 121.456 71.7796Z" fill="#2C2C2C" fill-opacity="0.760784"/>
<path d="M121.386 66.3888C120.938 66.2305 120.481 66.0965 120.013 65.9951C119.786 65.9463 119.56 65.8976 119.33 65.8692C119.212 65.853 119.087 65.8286 118.97 65.8286C118.853 65.8286 118.728 65.853 118.61 65.8651C118.517 65.8733 118.489 66.0032 118.586 66.0316C118.699 66.0641 118.812 66.1128 118.93 66.1412C119.047 66.1696 119.168 66.1818 119.285 66.2021C119.507 66.2386 119.73 66.2751 119.948 66.3239C120.404 66.4213 120.857 66.5512 121.298 66.7054C121.5 66.7745 121.584 66.4538 121.386 66.3848V66.3888Z" fill="#2C2C2C" fill-opacity="0.760784"/>
<path d="M121.443 62.1629C121.197 61.8828 120.886 61.6758 120.538 61.55C120.369 61.485 120.191 61.4485 120.009 61.4241C119.819 61.3998 119.649 61.4241 119.471 61.5053C119.395 61.5378 119.415 61.6717 119.496 61.6839C119.536 61.692 119.577 61.6961 119.621 61.7001C119.657 61.7042 119.69 61.7204 119.726 61.7245C119.811 61.7367 119.9 61.7367 119.985 61.7448C120.142 61.7651 120.296 61.8016 120.441 61.8585C120.74 61.9681 121.003 62.1589 121.209 62.3943C121.351 62.5567 121.585 62.3172 121.443 62.1589V62.1629Z" fill="#2C2C2C" fill-opacity="0.760784"/>
<path d="M121.164 57.5555C120.857 57.4337 120.534 57.3607 120.207 57.3282C119.899 57.2998 119.52 57.2835 119.241 57.4337C119.132 57.4906 119.196 57.6367 119.297 57.6448C119.447 57.661 119.6 57.6367 119.75 57.6326C119.899 57.6286 120.053 57.6286 120.207 57.6408C120.506 57.6651 120.801 57.7422 121.083 57.8518C121.16 57.8843 121.253 57.8194 121.273 57.7422C121.298 57.6529 121.245 57.5839 121.164 57.5514V57.5555Z" fill="#2C2C2C" fill-opacity="0.760784"/>
<path d="M45.2999 119.62C45.3646 119.234 45.4575 118.84 45.5828 118.467C45.6475 118.28 45.7162 118.093 45.7889 117.907C45.8616 117.72 45.9505 117.549 46.0071 117.367C46.0314 117.285 45.9222 117.225 45.8657 117.285C45.7283 117.432 45.6151 117.622 45.5262 117.797C45.4373 117.972 45.3525 118.166 45.2838 118.361C45.1464 118.759 45.0696 119.161 45.0454 119.583C45.0373 119.725 45.2717 119.762 45.2959 119.616L45.2999 119.62Z" fill="#2C2C2C" fill-opacity="0.760784"/>
<path d="M47.8256 120.111L48.1731 119.303C48.2297 119.169 48.2903 119.031 48.3388 118.893C48.3873 118.755 48.4237 118.613 48.4681 118.475C48.4964 118.39 48.3671 118.337 48.3226 118.414C48.254 118.54 48.1772 118.666 48.1125 118.796C48.0479 118.926 47.9953 119.051 47.9388 119.181L47.6034 119.977C47.5751 120.042 47.5832 120.115 47.6478 120.156C47.7044 120.188 47.7973 120.172 47.8256 120.111Z" fill="#2C2C2C" fill-opacity="0.760784"/>
<path d="M50.7276 121.312C50.8326 121.264 50.9337 121.223 51.0306 121.162C51.1276 121.101 51.2125 121.036 51.2933 120.951C51.4469 120.793 51.5762 120.606 51.6732 120.407C51.8671 120.005 51.9277 119.555 51.8429 119.112C51.8267 119.031 51.6934 119.051 51.7014 119.133C51.7257 119.534 51.6287 119.932 51.4428 120.289C51.3499 120.46 51.2448 120.622 51.1115 120.764C51.0428 120.837 50.97 120.915 50.8973 120.984C50.8246 121.053 50.7478 121.13 50.6589 121.187C50.5821 121.235 50.6468 121.345 50.7276 121.308V121.312Z" fill="#2C2C2C" fill-opacity="0.760784"/>
<path d="M54.8086 120.744C55.055 119.843 55.2854 118.938 55.4793 118.024C55.4955 117.943 55.3824 117.911 55.3581 117.992C55.0712 118.881 54.8166 119.778 54.5782 120.683C54.5378 120.829 54.7681 120.894 54.8086 120.748V120.744Z" fill="#2C2C2C" fill-opacity="0.760784"/>
<path d="M59.4513 121.909C59.6371 121.341 59.8149 120.772 59.9968 120.204C60.1786 119.636 60.3605 119.063 60.4898 118.483C60.5181 118.353 60.3443 118.312 60.2999 118.43C60.0736 118.982 59.8998 119.559 59.726 120.127C59.5523 120.695 59.3745 121.268 59.2048 121.84C59.1563 122.002 59.4028 122.067 59.4553 121.909H59.4513Z" fill="#2C2C2C" fill-opacity="0.760784"/>
</svg>
