<svg width="27" height="30" viewBox="0 0 27 30" fill="none" xmlns="http://www.w3.org/2000/svg">
<path d="M25.3554 6.58986C22.2065 6.58986 19.6446 4.02791 19.6446 0.878906C19.6446 0.393516 19.2511 0 18.7657 0H14.0586C13.5732 0 13.1797 0.393516 13.1797 0.878906V20.1778C13.1797 22.029 11.6736 23.5351 9.82225 23.5351C7.97098 23.5351 6.46488 22.029 6.46488 20.1778C6.46488 18.3264 7.97098 16.8203 9.82225 16.8203C10.3076 16.8203 10.7012 16.4268 10.7012 15.9414V11.2343C10.7012 10.7489 10.3076 10.3554 9.82225 10.3554C4.40625 10.3554 0 14.7617 0 20.1778C5.85937e-05 25.5938 4.40625 30 9.8223 30C15.2384 30 19.6447 25.5938 19.6447 20.1778V11.6354C21.394 12.5679 23.3404 13.0547 25.3555 13.0547C25.8409 13.0547 26.2344 12.6612 26.2344 12.1758V7.46877C26.2344 6.98338 25.8408 6.58986 25.3554 6.58986ZM24.4765 11.2605C22.6002 11.1045 20.8185 10.449 19.279 9.34154C19.0113 9.149 18.6584 9.12246 18.3649 9.27281C18.0714 9.42322 17.8868 9.72521 17.8868 10.055V20.1778C17.8868 24.6245 14.269 28.2422 9.82225 28.2422C5.37551 28.2422 1.75781 24.6245 1.75781 20.1778C1.75781 16.0279 4.90846 12.6001 8.94334 12.1608V15.138C6.54 15.5558 4.70707 17.6568 4.70707 20.1778C4.70707 22.9983 7.00172 25.2929 9.82225 25.2929C12.6428 25.2929 14.9375 22.9983 14.9375 20.1778V1.75781H17.9382C18.3406 5.175 21.0594 7.89381 24.4765 8.29623V11.2605H24.4765Z" fill="#2C2C2C" fill-opacity="0.760784"/>
</svg>
