<svg width="32" height="30" viewBox="0 0 32 30" fill="none" xmlns="http://www.w3.org/2000/svg">
<path d="M22.7949 29.9463C22.1162 29.9463 21.4311 29.8069 20.8041 29.522C11.9556 25.5042 4.72941 18.7289 0.450574 10.4386C-0.421998 8.74778 -0.00187095 6.66914 1.4912 5.26924L5.57612 1.43315C5.91869 1.17862 6.20308 1.0453 6.51333 0.960457C7.58627 0.663508 8.78848 1.02712 9.58995 1.88766L14.1726 6.84488C15.0064 7.74179 14.9223 9.14169 13.9787 10.0265L12.0978 11.79C13.8429 14.5898 16.3572 16.9472 19.3692 18.6077L21.2566 16.8381C22.1938 15.9594 23.6804 15.8745 24.637 16.6442L29.8465 20.8318C30.5317 21.3832 31.0035 22.3468 31.0229 23.2316C31.0294 23.7891 30.8548 24.2739 30.5187 24.6072C30.4994 24.6315 30.4735 24.6557 30.4476 24.68L26.3239 28.5524C25.3479 29.4675 24.0682 29.9523 22.7949 29.9523V29.9463ZM7.27602 2.5664C7.192 2.5664 7.11444 2.57852 7.03687 2.5967C6.93346 2.627 6.84943 2.66336 6.77833 2.71791L2.78389 6.47521C1.84022 7.36606 1.56229 8.65687 2.09876 9.6871C6.19662 17.632 13.1255 24.1285 21.6056 27.9767C22.7108 28.4797 24.094 28.2252 25.0377 27.3343L29.1097 23.5164C29.1097 23.5164 29.1549 23.4679 29.1743 23.4437C29.2842 23.2498 29.1097 22.4801 28.6637 22.1226L23.4541 17.935C23.215 17.7411 22.8143 17.7835 22.5493 18.038L20.5456 19.9167C20.0673 20.3833 19.2917 20.5045 18.6582 20.1894C15.2197 18.335 12.3822 15.6746 10.4237 12.4748C10.0747 11.8627 10.1975 11.1294 10.7146 10.6689L12.6924 8.81444C12.9574 8.56597 13.0091 8.19024 12.7958 7.96601L8.21323 3.00879C7.95469 2.73003 7.60566 2.5664 7.27602 2.5664ZM19.2464 18.7168C19.2464 18.7168 19.2464 18.7168 19.2399 18.7228H19.2464V18.7168ZM11.9879 11.8869H11.9814C11.9814 11.8869 11.9814 11.8869 11.9879 11.8869Z" fill="#808080"/>
</svg>
