<svg width="101" height="121" viewBox="0 0 101 121" fill="none" xmlns="http://www.w3.org/2000/svg">
<g clip-path="url(#clip0_126_8483)">
<path d="M29.9021 46.0621C25.804 43.1891 23.5718 38.2413 23.0664 33.3711C22.4833 27.7478 24.1971 22.1149 26.7921 17.1735C29.3222 12.3582 32.698 7.72388 37.2173 4.59231C41.7367 1.46074 47.283 0.113104 52.6997 0.765918C57.7342 1.37349 62.4414 3.81992 65.9953 7.4007C67.8808 9.30097 69.4035 11.505 70.5762 13.9062C71.8462 16.511 72.776 19.2871 73.5729 22.0664C74.9789 26.9593 75.9249 32.2884 74.8493 37.3396C74.331 39.7796 73.2943 42.1097 71.6874 44.0326C70.0805 45.9555 67.9748 47.413 65.7005 48.4633C63.4263 49.5137 60.9738 50.1729 58.502 50.5931C55.7353 51.0649 52.92 51.2491 50.1177 51.1618C44.4969 50.9841 38.9117 49.6979 33.78 47.4001C32.523 46.8378 31.2952 46.2108 30.0965 45.5321C29.9151 45.4287 29.7531 45.7067 29.9345 45.8101C34.9366 48.6508 40.4959 50.467 46.2074 51.1586C49.0356 51.5012 51.8963 51.5658 54.7342 51.3428C57.4199 51.1328 60.1088 50.6932 62.6844 49.8982C65.0785 49.1582 67.4046 48.0981 69.4035 46.5728C71.4023 45.0474 73.0286 43.0372 74.0524 40.7168C76.1484 35.9597 75.7856 30.498 74.723 25.5341C74.1431 22.8259 73.3364 20.1532 72.3904 17.5516C71.4023 14.8305 70.1713 12.1805 68.4413 9.84391C65.4478 5.80099 61.1585 2.70174 56.3184 1.26361C51.0863 -0.290865 45.3457 0.21652 40.4116 2.5143C35.4776 4.81207 31.5349 9.05536 28.5933 13.6638C25.4994 18.5082 23.1312 24.0184 22.8008 29.8129C22.5157 34.7898 23.8925 40.0317 27.2262 43.8322C27.9972 44.7113 28.8816 45.4966 29.8438 46.1656C29.9086 46.2108 29.9702 46.1042 29.9054 46.0621H29.9021Z" fill="black"/>
<path d="M24.453 21.7885C21.8256 21.5332 19.3732 20.0207 17.8959 17.849C16.3149 15.5253 15.8355 12.494 16.5838 9.79222C17.316 7.13572 19.0881 4.73453 21.3688 3.18975C23.4455 1.78071 26.0048 1.08912 28.4929 1.58681C30.8837 2.0651 33.0835 3.51939 34.334 5.62649C34.4895 5.88827 34.6288 6.15973 34.7551 6.43766C34.8297 6.60248 35.0726 6.46029 34.9981 6.29547C33.9485 3.9783 31.833 2.25578 29.4065 1.53187C26.9799 0.807953 24.2359 1.20869 21.9844 2.4917C19.5805 3.86196 17.6853 6.10803 16.6843 8.67404C15.6119 11.4146 15.7901 14.5623 17.1929 17.1574C18.4888 19.5521 20.8408 21.3166 23.52 21.8499C23.831 21.9113 24.142 21.9565 24.4595 21.9824C24.5858 21.9953 24.5858 21.7982 24.4595 21.7853L24.453 21.7885Z" fill="black"/>
<path d="M25.4735 17.5872C24.7445 17.4612 24.048 17.2866 23.3936 16.9279C22.7392 16.5692 22.1593 16.0877 21.6733 15.5253C20.6852 14.3781 20.1053 12.8753 20.1766 11.3564C20.2479 9.83746 20.9509 8.39933 22.0167 7.33932C23.0826 6.2793 24.4659 5.60387 25.927 5.68789C26.7013 5.73314 27.4853 6.01107 28.0976 6.4926C28.7099 6.97413 29.0663 7.6528 29.1051 8.43811C29.1116 8.55446 29.2704 8.55122 29.2833 8.43811C29.4259 6.94181 27.9713 5.86887 26.6624 5.56185C25.1819 5.21282 23.6236 5.7396 22.4476 6.65095C21.1939 7.62371 20.29 9.0683 20.0276 10.6389C19.7652 12.2096 20.1928 13.8545 21.1258 15.1602C21.6312 15.8647 22.2694 16.4722 23.0113 16.9247C23.7532 17.3771 24.6052 17.7068 25.4637 17.6938C25.5221 17.6938 25.5383 17.6001 25.4767 17.5904L25.4735 17.5872Z" fill="black"/>
<path d="M26.2802 12.9884C25.8784 12.3841 25.4735 11.7797 25.062 11.1786C24.8644 10.8878 24.6668 10.5969 24.4659 10.3061C24.2651 10.0152 24.0675 9.69203 23.8148 9.44965C23.7791 9.41733 23.7079 9.44965 23.7273 9.50135C23.8601 9.8213 24.0869 10.1251 24.2845 10.4127C24.4821 10.7003 24.683 10.9944 24.8806 11.282C25.2921 11.8832 25.71 12.4778 26.1279 13.0757C26.1927 13.1662 26.3417 13.0821 26.2802 12.9884Z" fill="black"/>
<path d="M27.2682 10.8781C27.035 10.4644 26.8017 10.054 26.5652 9.64355C26.3287 9.23312 26.0987 8.81945 25.833 8.42518C25.7812 8.35085 25.671 8.41548 25.7099 8.49628C25.9173 8.92287 26.1602 9.33007 26.3967 9.7405C26.6332 10.1509 26.873 10.5614 27.1127 10.9686C27.171 11.0655 27.32 10.9783 27.265 10.8781H27.2682Z" fill="black"/>
<path d="M64.6314 5.48429C65.0169 4.39196 65.626 3.39981 66.4553 2.58864C67.2847 1.77747 68.2566 1.18283 69.3257 0.785322C70.3948 0.387817 71.5287 0.210071 72.6625 0.287633C73.8515 0.371658 75.0178 0.746541 76.0642 1.30563C78.238 2.46906 79.9421 4.42427 81.0015 6.62833C81.6462 7.9695 82.1127 9.46581 82.009 10.9686C81.9183 12.2807 81.3643 13.499 80.603 14.5558C79.8417 15.6126 78.8892 16.5207 77.9173 17.3771C77.3989 17.8328 76.8741 18.2917 76.2975 18.6795C75.7208 19.0673 75.0793 19.4034 74.3828 19.4584C74.0491 19.4842 73.7284 19.4358 73.4142 19.3194C73.2651 19.2645 73.2003 19.5036 73.3494 19.5586C74.7327 20.0659 76.1063 19.1901 77.1495 18.3531C78.1927 17.5161 79.2423 16.5692 80.1332 15.5415C81.0241 14.5138 81.7369 13.4021 82.0738 12.1094C82.4626 10.6163 82.2261 9.06507 81.698 7.6334C80.8006 5.20636 79.1678 3.00877 76.9907 1.58033C74.94 0.235925 72.452 -0.310241 70.0611 0.329645C67.816 0.930751 65.7847 2.50138 64.8549 4.65373C64.7416 4.9155 64.6573 5.18697 64.5828 5.4649C64.5731 5.50045 64.6282 5.51661 64.6379 5.48106L64.6314 5.48429Z" fill="black"/>
<path d="M68.5675 8.75159C68.736 7.28115 69.6237 5.92704 70.8871 5.15789C72.1506 4.38873 73.7056 4.33379 75.0404 4.99307C76.3751 5.65234 77.3568 6.86425 77.6516 8.30884C77.9464 9.75344 77.5835 11.2724 76.725 12.4358C75.5749 13.9967 73.6344 14.3684 71.9368 15.06C71.8169 15.1084 71.8688 15.3024 71.9919 15.2539C73.5987 14.6011 75.4259 14.2456 76.6213 12.8915C77.6289 11.7507 78.0954 10.1542 77.9043 8.65141C77.7131 7.14864 76.7995 5.79777 75.481 5.02862C74.1624 4.25946 72.6236 4.15281 71.2694 4.79916C69.7403 5.52954 68.6518 7.07108 68.4671 8.74836C68.4606 8.813 68.561 8.813 68.5675 8.74836V8.75159Z" fill="black"/>
<path d="M29.6106 46.0104C28.6678 47.1125 27.7737 48.2565 26.8601 49.3812C25.9465 50.5058 25.0524 51.6175 24.1485 52.7357C22.5092 54.7653 20.8667 56.7883 19.2598 58.8437C17.6529 60.8991 16.1659 62.8705 14.7146 64.955C13.2599 67.0427 11.8799 69.1853 10.6326 71.4023C9.38854 73.6128 8.27086 75.8944 7.33459 78.2504C7.21472 78.5509 7.10134 78.8515 6.98795 79.1521C6.92639 79.3169 7.19205 79.3912 7.2536 79.2264C8.14775 76.8381 9.23304 74.5242 10.4544 72.2846C11.666 70.0611 13.0137 67.912 14.4424 65.8243C15.8744 63.7269 17.3905 61.6909 18.9423 59.6807C20.5136 57.6415 22.1237 55.6378 23.7338 53.6277C25.5253 51.3913 27.3169 49.1582 29.0987 46.9153C29.3125 46.6471 29.5231 46.3756 29.7304 46.1042C29.7823 46.0363 29.6689 45.949 29.6138 46.0137L29.6106 46.0104Z" fill="black"/>
<path d="M69.2966 47.3355C70.3656 48.2953 71.4736 49.2099 72.5492 50.1665C73.6248 51.1231 74.6841 52.1023 75.7176 53.1041C77.7813 55.1014 79.7607 57.1923 81.5976 59.3963C83.4183 61.581 85.0997 63.8788 86.5899 66.3026C88.0802 68.7264 89.3436 71.189 90.3836 73.7873C91.4235 76.3857 92.2237 79.0712 92.7226 81.8215C92.7842 82.1673 92.8425 82.5163 92.8976 82.8621C92.9235 83.0301 93.1794 82.959 93.1535 82.791C92.7291 80.002 91.9937 77.2679 91.0056 74.6276C90.0175 71.9873 88.7961 69.4729 87.3739 67.0588C85.942 64.6286 84.3157 62.3211 82.5468 60.1235C80.778 57.9259 78.7629 55.7348 76.696 53.702C74.6291 51.6692 72.4779 49.7463 70.2587 47.8881C69.9834 47.6554 69.7048 47.4292 69.4197 47.2094C69.3322 47.1415 69.2058 47.2579 69.2933 47.3355H69.2966Z" fill="black"/>
<path d="M22.6938 77.2841C24.3007 73.0117 25.3925 68.5487 25.9335 64.0178C26.0858 62.7348 26.2089 61.4453 26.2575 60.1558C26.2639 59.9975 26.0242 60.0007 26.0145 60.1558C25.8622 62.4504 25.6387 64.7288 25.2467 66.9942C24.8644 69.2144 24.3493 71.4088 23.7078 73.5676C23.3418 74.8021 22.9303 76.0237 22.48 77.2292C22.4314 77.3617 22.642 77.4198 22.6938 77.2873V77.2841Z" fill="black"/>
<path d="M76.9194 81.7795C76.9907 78.8418 76.7088 75.9009 76.0836 73.0279C75.4583 70.1549 74.5058 67.382 73.2359 64.7449C72.5167 63.2551 71.6971 61.817 70.7802 60.4402C70.6928 60.3077 70.4757 60.4305 70.5664 60.5663C72.1798 62.9836 73.4983 65.5949 74.4896 68.3257C75.481 71.0565 76.1646 73.9425 76.4982 76.8478C76.6861 78.4831 76.7671 80.1313 76.7347 81.7795C76.7347 81.8958 76.9129 81.8958 76.9162 81.7795H76.9194Z" fill="black"/>
<path d="M15.6605 78.6544C12.68 76.5635 8.58507 77.6267 5.99333 79.8469C2.93832 82.4646 1.64569 86.6207 0.910288 90.4309C0.0906516 94.6774 -0.259233 99.0823 0.288271 103.387C0.80014 107.414 2.13488 111.379 4.66183 114.604C6.90044 117.461 10.0202 119.769 13.5871 120.632C15.3819 121.065 17.2544 121.103 19.0622 120.709C21.0513 120.276 22.9206 119.342 24.4757 118.033C27.346 115.626 28.9399 112.08 29.685 108.48C30.4852 104.605 30.4399 100.559 29.9539 96.6455C29.4291 92.441 28.2531 88.1978 25.846 84.659C23.7467 81.5727 20.6723 78.997 17.0341 77.966C16.1756 77.7236 15.2879 77.5782 14.397 77.5233C14.1994 77.5104 14.1994 77.8206 14.397 77.8303C18.1097 78.0501 21.4822 80.0537 23.9541 82.7458C26.7337 85.7707 28.3309 89.6714 29.1699 93.6465C29.6105 95.731 29.8503 97.8542 29.9572 99.9775C30.0511 101.836 30.0285 103.7 29.8438 105.552C29.481 109.149 28.4864 112.82 26.264 115.739C23.9022 118.844 20.1442 120.79 16.208 120.693C12.6249 120.603 9.2654 118.87 6.70282 116.437C5.37456 115.176 4.23419 113.716 3.33032 112.126C2.32278 110.355 1.61006 108.419 1.12735 106.444C0.113329 102.308 0.119809 97.977 0.647875 93.7693C0.903809 91.7333 1.26017 89.6941 1.81416 87.7162C2.34222 85.8257 3.07439 83.9771 4.1694 82.3386C5.19637 80.8003 6.5376 79.5205 8.20279 78.6932C9.75135 77.924 11.5526 77.5491 13.2664 77.8723C14.0893 78.0274 14.8798 78.3344 15.586 78.7869C15.6735 78.8418 15.748 78.7093 15.6638 78.6512L15.6605 78.6544Z" fill="black"/>
<path d="M5.81842 86.737C4.8044 86.3621 3.596 86.8016 3.04526 87.7291C2.49451 88.6566 2.6403 89.9719 3.41134 90.754C3.83898 91.1871 4.40916 91.4553 4.98582 91.6298C5.56248 91.8043 6.19422 91.869 6.72553 91.5555C7.56136 91.061 7.80434 89.9332 7.63263 89.0412C7.38318 87.7259 6.1845 86.7337 5.12513 86.0292C5.01822 85.9581 4.88863 86.1229 4.98582 86.2069C5.81194 86.8953 6.71257 87.5255 7.17908 88.5306C7.53868 89.2997 7.51601 90.3501 6.95554 91.0255C6.22338 91.9013 4.84652 91.4747 4.01716 90.9608C3.09385 90.3888 2.70185 89.2642 3.04526 88.2365C3.41458 87.1409 4.67481 86.543 5.7601 86.9438C5.88645 86.989 5.94153 86.7887 5.81518 86.7402L5.81842 86.737Z" fill="black"/>
<path d="M13.882 83.6216C12.7448 82.8977 11.1866 83.056 10.1823 83.9415C9.12937 84.8723 8.88964 86.5043 9.4339 87.7679C9.97817 89.0315 11.3907 89.7716 12.7675 89.5648C14.2383 89.3418 15.3625 87.978 15.2556 86.4914C15.2005 85.6899 14.815 84.9725 14.3258 84.352C13.801 83.6862 13.1368 83.0463 12.4014 82.6197C12.3302 82.5777 12.2557 82.6747 12.314 82.7361C12.7902 83.2241 13.3345 83.641 13.7945 84.1451C14.2545 84.6493 14.653 85.2084 14.8604 85.8547C15.2847 87.1894 14.5979 88.689 13.2632 89.1834C12.0775 89.6229 10.6293 89.2093 9.91337 88.1525C9.19741 87.0957 9.20389 85.5315 9.98141 84.4942C10.8432 83.3404 12.5699 83.0399 13.7815 83.8058C13.8949 83.8769 13.9954 83.6991 13.8852 83.628L13.882 83.6216Z" fill="black"/>
<path d="M21.1679 86.0744C21.0157 85.5089 20.5232 85.1308 19.9563 85.0241C19.3278 84.9045 18.7285 85.1017 18.262 85.525C17.7015 86.0324 17.3808 86.7563 17.1605 87.4673C16.9402 88.1783 16.7911 88.9604 16.9013 89.7134C17.0017 90.4082 17.3775 91.0449 18.0093 91.3777C18.641 91.7106 19.3408 91.7268 20.0017 91.5878C21.3623 91.3002 22.7489 90.1788 22.7554 88.6922C22.7554 87.923 22.3763 87.2346 21.8645 86.6852C21.5891 86.3912 21.2781 86.1358 20.9541 85.9032C20.601 85.6478 20.2349 85.4604 19.8494 85.2568C19.7457 85.2019 19.6615 85.3505 19.7587 85.4119C20.0276 85.58 20.2835 85.7739 20.5492 85.9516C20.8148 86.1294 21.087 86.3394 21.3364 86.5592C21.7867 86.9599 22.1949 87.4447 22.3763 88.0264C22.8007 89.3773 21.8126 90.5795 20.6237 91.103C19.5125 91.591 17.9024 91.5523 17.3192 90.3048C17.0244 89.6714 17.0665 88.9184 17.1993 88.2494C17.3322 87.5804 17.5428 86.9115 17.8959 86.3297C18.249 85.748 18.8159 85.2213 19.5481 85.2051C20.1636 85.1889 20.7921 85.5057 20.9638 86.1294C20.9995 86.2619 21.2036 86.2037 21.1679 86.0744Z" fill="black"/>
<path d="M11.4198 92.3085C9.42738 91.7139 7.29891 92.3085 5.66288 93.5237C3.83895 94.8778 2.6921 96.8718 2.24179 99.079C1.72992 101.577 2.05389 104.198 2.81197 106.615C3.54414 108.952 4.66506 111.247 6.64126 112.778C8.39392 114.136 10.5839 114.821 12.7804 114.953C14.9381 115.079 17.154 114.679 19.0881 113.699C21.0222 112.72 22.6096 111.095 23.2997 109.001C23.724 107.711 23.886 106.325 23.9929 104.98C24.0998 103.636 24.0837 102.169 23.7564 100.805C23.2284 98.5878 21.8904 96.5938 20.128 95.1557C18.1972 93.5818 15.7901 92.706 13.3279 92.4346C12.6994 92.3667 12.0677 92.3376 11.436 92.3408C11.2513 92.3408 11.2513 92.6317 11.436 92.6285C13.9143 92.6091 16.4186 93.152 18.5633 94.4189C20.4714 95.5467 22.0394 97.2499 22.9336 99.2794C23.9962 101.69 23.8634 104.399 23.4681 106.948C23.2802 108.16 22.9724 109.362 22.3342 110.419C21.7997 111.302 21.074 112.058 20.2414 112.662C18.5697 113.874 16.5158 114.52 14.4651 114.669C12.4144 114.818 10.1077 114.462 8.18983 113.467C7.23088 112.969 6.36265 112.316 5.63696 111.515C4.80761 110.597 4.19207 109.508 3.70612 108.38C2.72126 106.105 2.13164 103.597 2.21911 101.109C2.3001 98.8011 3.01283 96.4904 4.59703 94.7647C5.95121 93.2878 7.88854 92.2213 9.93601 92.2633C10.4252 92.273 10.9047 92.3505 11.3744 92.4895C11.4878 92.5218 11.5364 92.3473 11.423 92.315L11.4198 92.3085Z" fill="black"/>
<path d="M87.8599 92.1954C85.4107 91.9498 82.9064 92.5574 80.8266 93.863C78.967 95.0297 77.5091 96.7393 76.5469 98.7009C75.5848 100.663 75.1085 102.773 75.0178 104.916C74.9271 107.058 75.2316 109.366 76.0059 111.424C76.2197 111.99 76.4822 112.536 76.8644 113.008C77.2467 113.48 77.7748 113.842 78.3223 114.133C78.8698 114.423 79.4465 114.672 79.981 114.999C80.5155 115.325 81.0404 115.71 81.5814 116.049C82.1224 116.388 82.6829 116.676 83.2952 116.834C83.9464 117.002 84.6299 117.028 85.2973 116.967C86.6644 116.844 88.0057 116.421 89.3113 116.02C90.6168 115.619 91.7831 115.167 92.8328 114.381C93.7431 113.699 94.5044 112.837 95.107 111.877C96.4774 109.695 96.9796 107.097 96.8856 104.547C96.8338 103.119 96.607 101.697 96.2603 100.31C95.9526 99.079 95.5476 97.8671 94.9645 96.736C93.8727 94.6192 91.9937 92.7448 89.5413 92.3861C88.9873 92.3053 88.4236 92.3085 87.8728 92.4055C87.6817 92.4378 87.7627 92.7319 87.9538 92.6963C90.3382 92.2762 92.606 93.737 93.9375 95.6114C94.647 96.61 95.1589 97.7379 95.5444 98.8981C95.9558 100.136 96.2506 101.419 96.4321 102.712C96.7917 105.287 96.6426 108.002 95.5703 110.403C95.1135 111.424 94.5044 112.384 93.7334 113.199C92.9073 114.071 91.9159 114.727 90.808 115.189C89.5963 115.693 88.3005 116.049 87.0273 116.366C85.7314 116.689 84.3416 116.896 83.0457 116.463C81.8762 116.072 80.9399 115.215 79.8806 114.614C78.8212 114.013 77.6322 113.651 76.913 112.623C76.2586 111.693 75.9411 110.519 75.6884 109.424C75.4519 108.396 75.3126 107.346 75.2705 106.289C75.1895 104.205 75.4843 102.094 76.2035 100.129C76.9228 98.1644 78.0372 96.4322 79.5858 95.0781C81.3935 93.4978 83.739 92.5283 86.1396 92.3732C86.713 92.3376 87.2865 92.3473 87.8566 92.4022C87.9992 92.4152 87.9959 92.1954 87.8566 92.1825L87.8599 92.1954Z" fill="black"/>
<path d="M76.6636 87.8099C75.6431 87.6419 74.7198 88.3367 74.3051 89.2319C73.8904 90.1271 74.0135 91.2421 74.8072 91.9078C75.507 92.496 76.5437 92.6576 77.3925 92.3215C78.319 91.9498 78.8212 91.0255 78.8018 90.0528C78.7823 89.08 78.1862 87.7227 77.0944 87.532C77.0102 87.5158 76.9584 87.6257 77.0361 87.6742C77.3925 87.894 77.7294 88.1396 77.9756 88.4821C78.2218 88.8247 78.3903 89.2254 78.4648 89.6423C78.6171 90.4761 78.3612 91.4069 77.6225 91.8884C76.9454 92.3279 76.0189 92.3311 75.3159 91.9498C74.5027 91.5103 74.1399 90.6119 74.3796 89.7264C74.6388 88.7762 75.5524 87.8649 76.6053 88.0362C76.751 88.0588 76.8158 87.8358 76.6668 87.8132L76.6636 87.8099Z" fill="black"/>
<path d="M82.631 86.9632C81.9183 86.5657 80.9885 86.9212 80.6062 87.6128C80.1818 88.3755 80.4539 89.4064 81.0922 89.9655C81.7304 90.5246 82.5889 90.5407 83.3049 90.1949C84.0208 89.8492 84.4938 89.08 84.4452 88.2624C84.3934 87.3995 83.82 86.4106 82.8934 86.2813C82.8189 86.2716 82.7476 86.3815 82.8351 86.4203C83.4701 86.6982 83.9366 87.2379 84.105 87.9133C84.2735 88.5888 84.0662 89.3256 83.4928 89.7619C82.9647 90.1626 82.2034 90.2887 81.5943 90.001C80.914 89.6779 80.509 88.8538 80.6613 88.1202C80.8265 87.3252 81.7595 86.737 82.5241 87.1539C82.644 87.2217 82.7541 87.0343 82.6342 86.9697L82.631 86.9632Z" fill="black"/>
<path d="M91.404 86.5657C91.1351 85.6252 90.0336 85.3311 89.214 85.7351C88.3263 86.1746 87.6525 87.2702 87.7788 88.2688C87.9052 89.2674 88.9678 89.8588 89.9235 89.61C90.8273 89.3773 91.5433 88.5177 91.5433 87.5772C91.5433 86.5463 90.7366 85.5057 89.6611 85.4863C89.5865 85.4863 89.5671 85.6026 89.6416 85.6188C90.4159 85.7804 91.0574 86.4396 91.2258 87.2056C91.404 88.0167 90.9666 88.8279 90.2474 89.2157C89.5282 89.6035 88.5077 89.4419 88.1255 88.6534C87.7205 87.8196 88.2421 86.766 88.8868 86.2102C89.2529 85.8935 89.7388 85.6834 90.2312 85.7739C90.688 85.8579 91.0833 86.1746 91.2129 86.6238C91.2485 86.7467 91.4396 86.6949 91.4072 86.5721L91.404 86.5657Z" fill="black"/>
<path d="M80.347 81.0943C76.576 80.6613 73.4724 83.5666 71.4962 86.4364C70.3656 88.0781 69.4682 89.8847 68.7198 91.7268C67.9715 93.5689 67.3527 95.6469 66.9834 97.6861C66.2544 101.713 66.3743 105.943 67.6507 109.85C68.276 111.767 69.2155 113.612 70.6669 115.037C71.9692 116.317 73.5955 117.206 75.3061 117.83C77.0166 118.453 78.9183 118.841 80.7682 119.135C82.9938 119.488 85.2875 119.869 87.5423 119.614C91.1999 119.2 94.4428 117.025 96.6911 114.187C99.2472 110.959 100.488 106.9 100.864 102.844C101.065 100.659 101.036 98.4391 100.776 96.2577C100.517 94.0763 100.015 92.0241 99.1015 90.0721C97.5529 86.7628 94.9288 83.9318 91.6891 82.2157C88.1028 80.3155 83.8167 79.8889 79.9096 80.978C78.941 81.2462 78.0015 81.6114 77.1009 82.0574C76.913 82.1511 77.0782 82.429 77.2628 82.3353C80.9172 80.5223 85.2519 80.2121 89.133 81.4757C92.5962 82.6068 95.5767 85.0015 97.5788 88.0232C98.6285 89.61 99.3995 91.3551 99.879 93.194C100.439 95.3367 100.647 97.5666 100.663 99.7771C100.692 103.901 99.9535 108.128 97.9255 111.764C96.1858 114.882 93.3899 117.555 89.9721 118.738C87.9764 119.429 85.8998 119.471 83.8167 119.248C81.8599 119.038 79.887 118.741 77.9691 118.298C76.2261 117.898 74.5059 117.335 72.9573 116.424C71.3083 115.454 69.9768 114.091 69.0503 112.42C68.0719 110.658 67.4985 108.674 67.1551 106.696C66.8117 104.718 66.7274 102.67 66.8732 100.653C67.1648 96.6197 68.3602 92.6575 70.223 89.0735C71.0977 87.3898 72.1344 85.7868 73.4497 84.4069C74.6679 83.1303 76.1419 82.0186 77.8589 81.5209C78.6656 81.2882 79.5079 81.2107 80.3438 81.2882C80.4766 81.3012 80.4734 81.0976 80.3438 81.0846L80.347 81.0943Z" fill="black"/>
<path d="M70.8937 115.432C66.9089 112.862 63.0505 110.093 59.3508 107.133C58.8357 106.719 58.3206 106.302 57.8119 105.882C57.3033 105.462 56.8465 105.022 56.3184 104.66C56.2472 104.612 56.1694 104.718 56.2277 104.777C56.6489 105.21 57.1608 105.575 57.6273 105.959C58.0938 106.344 58.5376 106.696 58.9944 107.061C59.895 107.779 60.8054 108.483 61.7222 109.178C63.6045 110.603 65.5256 111.977 67.4791 113.302C68.5903 114.055 69.7177 114.789 70.8516 115.506C70.897 115.535 70.9423 115.461 70.8937 115.432Z" fill="black"/>
<path d="M56.7104 104.369C56.7687 101.28 58.5764 98.5006 60.3259 96.0735C62.0753 93.6465 63.9446 91.6008 66.248 89.8912C67.5212 88.9475 68.8883 88.1816 70.3364 87.5449C70.4725 87.4868 70.3753 87.2508 70.236 87.3058C67.5665 88.3399 65.208 90.1626 63.2254 92.1954C62.2113 93.236 61.2816 94.3542 60.4198 95.5209C59.5192 96.7393 58.6639 98.0093 57.9577 99.3505C57.138 100.905 56.5322 102.595 56.5095 104.369C56.5095 104.502 56.7136 104.502 56.7169 104.369H56.7104Z" fill="black"/>
<path d="M26.6333 115.671C28.4799 114.313 30.2423 112.843 31.9594 111.331C33.6958 109.799 35.3804 108.209 37.0068 106.564C37.4636 106.102 37.9139 105.636 38.3609 105.168C38.5748 104.941 38.7886 104.715 39.0024 104.486C39.2162 104.256 39.4786 104.033 39.6179 103.746C39.6568 103.668 39.5758 103.568 39.4916 103.62C39.2551 103.762 39.0899 103.978 38.9052 104.175C38.7011 104.395 38.497 104.615 38.2929 104.832C37.9009 105.248 37.5024 105.662 37.1039 106.073C36.294 106.903 35.4744 107.717 34.6386 108.519C32.9896 110.103 31.2887 111.631 29.5361 113.098C28.548 113.926 27.5502 114.74 26.5491 115.551C26.4843 115.603 26.5718 115.719 26.6398 115.668L26.6333 115.671Z" fill="black"/>
<path d="M39.3522 103.626C39.6405 101.377 39.417 99.0952 38.7496 96.9299C38.0822 94.7647 37.0164 92.8159 35.578 91.1225C35.1763 90.6507 34.7454 90.2014 34.2886 89.7813C33.8318 89.3612 33.3588 88.954 32.8243 88.6437C32.7303 88.5888 32.6137 88.7245 32.7044 88.7989C33.1158 89.1447 33.5467 89.4646 33.9517 89.8233C34.3566 90.1821 34.7389 90.5634 35.1017 90.9641C35.8404 91.7785 36.4883 92.6737 37.0391 93.6239C38.1535 95.5435 38.8857 97.6959 39.1546 99.8967C39.3068 101.131 39.323 102.395 39.1902 103.633C39.1773 103.739 39.3425 103.736 39.3554 103.633L39.3522 103.626Z" fill="black"/>
<path d="M39.6794 104.114C40.7453 104.321 41.837 104.431 42.9158 104.537C43.9947 104.644 45.1221 104.715 46.2268 104.751C48.4103 104.822 50.6003 104.757 52.7774 104.557C53.9923 104.444 55.2169 104.305 56.4188 104.088C56.5905 104.056 56.516 103.804 56.3475 103.83C54.1802 104.153 52.0161 104.415 49.8228 104.505C47.6296 104.596 45.5043 104.544 43.35 104.369C42.1286 104.269 40.9202 104.092 39.7021 103.949C39.6081 103.94 39.5887 104.095 39.6794 104.114Z" fill="black"/>
<path d="M34.2886 42.7916C34.0553 40.6134 34.5121 38.3673 35.5035 36.4186C36.4948 34.4699 38.1438 32.77 40.1589 31.7002C42.1739 30.6305 44.6588 29.9196 47.0432 29.8161C49.4276 29.7127 51.6986 30.1781 53.6975 31.3706C55.408 32.3918 56.7363 33.9754 57.5429 35.7884C58.3496 37.6014 58.625 39.6471 58.1131 41.5603C57.5624 43.6319 56.0851 45.3124 54.2547 46.3853C52.1392 47.6231 49.6803 47.9947 47.257 47.901C45.8801 47.8461 44.513 47.6522 43.1588 47.4066C41.9439 47.1836 40.7291 46.9218 39.566 46.4952C37.4278 45.7099 35.4354 44.233 34.645 42.0225C34.4635 41.5215 34.3566 40.998 34.3307 40.4648C34.3242 40.2999 34.0651 40.2999 34.0715 40.4648C34.1817 42.7237 35.6752 44.6757 37.5607 45.823C38.6557 46.4887 39.877 46.9186 41.1146 47.2288C42.3521 47.5391 43.7257 47.7847 45.0443 47.956C47.662 48.2985 50.4157 48.305 52.9037 47.3193C54.9318 46.5178 56.7557 45.0959 57.7697 43.1406C58.7092 41.3309 58.8226 39.2173 58.314 37.2621C57.8054 35.3069 56.6877 33.4712 55.1553 32.1365C53.435 30.6435 51.1932 29.842 48.9416 29.6319C46.5507 29.4122 44.1113 29.8323 41.8791 30.6952C40.661 31.1638 39.4785 31.7584 38.4386 32.5502C37.5801 33.2062 36.8317 33.998 36.2097 34.8835C34.9365 36.6998 34.1817 38.9038 34.1266 41.1208C34.1136 41.6799 34.1298 42.2358 34.1946 42.7916C34.2011 42.8498 34.2918 42.8498 34.2854 42.7916H34.2886Z" fill="black"/>
<path d="M47.5389 39.0428C47.3154 40.0963 48.0767 41.9061 46.5119 42.1808C46.013 42.2681 45.4947 42.1356 45.0703 41.8706C44.8532 41.7348 44.6556 41.5603 44.4936 41.36C44.3316 41.1596 44.2345 40.914 44.0984 40.691C44.0433 40.5973 43.8619 40.6264 43.8781 40.7524C43.9299 41.1822 44.2539 41.583 44.5714 41.8577C44.9051 42.1453 45.3133 42.3553 45.7474 42.4394C46.1815 42.5234 46.6772 42.4878 47.0821 42.2745C47.513 42.0451 47.7139 41.5991 47.7689 41.1337C47.8499 40.4518 47.6102 39.7732 47.7398 39.0945C47.7657 38.962 47.5648 38.9071 47.5357 39.0396L47.5389 39.0428Z" fill="black"/>
<path d="M47.5616 40.7847C47.4255 41.2307 47.5487 41.6896 47.8499 42.0419C48.1739 42.4167 48.6663 42.5654 49.1491 42.4975C49.6804 42.4232 50.1501 42.1226 50.4903 41.7154C50.6652 41.5054 50.8142 41.2727 50.9341 41.0271C51.0281 40.8364 51.2257 40.5132 51.1479 40.2999C51.1285 40.2482 51.0702 40.2159 51.0183 40.2482C50.8564 40.3516 50.8045 40.6134 50.73 40.7782C50.6361 40.9818 50.5292 41.1822 50.3996 41.3664C50.1339 41.7445 49.7613 42.0548 49.3078 42.1808C48.8964 42.2939 48.446 42.2358 48.1188 41.9417C47.8143 41.667 47.6329 41.2404 47.7366 40.8332C47.7657 40.7201 47.5972 40.6748 47.5649 40.7847H47.5616Z" fill="black"/>
<path d="M47.6296 38.432C47.837 38.4384 48.0313 38.3964 48.2095 38.3027C48.3974 38.2413 48.5594 38.1379 48.6955 37.9925C48.8413 37.8567 48.9449 37.6951 49.0065 37.5077C49.1004 37.33 49.1458 37.136 49.1361 36.9292L49.081 36.5285C49.0097 36.2732 48.8801 36.0534 48.6922 35.866L48.3877 35.6301C48.1512 35.4943 47.8985 35.4265 47.6264 35.4232C47.419 35.4168 47.2247 35.4588 47.0465 35.5525C46.8586 35.6139 46.6966 35.7173 46.5605 35.8627C46.4148 35.9985 46.3111 36.1601 46.2495 36.3475C46.1556 36.5252 46.1102 36.7192 46.1199 36.926L46.175 37.3267C46.2463 37.582 46.3759 37.8018 46.5638 37.9892L46.8683 38.2251C47.1048 38.3609 47.3575 38.4288 47.6296 38.432Z" fill="black"/>
<path d="M38.9635 27.541C38.9635 27.541 38.957 27.5345 38.9538 27.5313L39.0801 27.6961C39.0801 27.6961 39.0671 27.68 39.0639 27.667L39.1449 27.8609C39.1449 27.8609 39.1352 27.8351 39.1352 27.8221L39.1643 28.0354C39.1643 28.0354 39.1643 28.0064 39.1643 27.9934L39.1352 28.2067C39.1352 28.2067 39.1417 28.1809 39.1449 28.1679L39.0639 28.3619C39.1255 28.2197 39.1903 28.1065 39.1773 27.945C39.1773 27.9417 39.1773 27.9353 39.1773 27.932C39.1773 27.7866 39.1417 27.6541 39.0671 27.5281C39.0153 27.4343 38.9473 27.36 38.8598 27.3051C38.7821 27.234 38.6913 27.1855 38.5877 27.1629C38.4451 27.1241 38.3026 27.1241 38.1633 27.1629C38.1309 27.1758 38.0985 27.1887 38.0661 27.2049C38.0337 27.2178 38.0013 27.2307 37.9689 27.2469C37.9689 27.2469 37.9657 27.2469 37.9624 27.2469C37.9592 27.2469 37.9592 27.2469 37.9559 27.2469L37.7907 27.3729C37.7356 27.4214 37.6935 27.4764 37.6644 27.5378C37.632 27.6089 37.5963 27.68 37.5737 27.7543C37.551 27.8286 37.5477 27.9223 37.5413 27.9934C37.5413 28.0031 37.5413 28.0128 37.5413 28.0225C37.5445 28.1033 37.5575 28.1841 37.5737 28.2617C37.5737 28.2714 37.5769 28.2778 37.5801 28.2875C37.6417 28.4523 37.6838 28.5558 37.8134 28.685C37.8879 28.7626 37.9721 28.8208 38.0726 28.8531C38.1698 28.9048 38.2734 28.9274 38.3836 28.9242C38.4937 28.9274 38.6006 28.9048 38.6946 28.8531C38.795 28.8208 38.8825 28.7658 38.9538 28.685L39.0801 28.5202C39.1546 28.3942 39.1903 28.2584 39.1903 28.113L39.1611 27.8997C39.1222 27.764 39.0542 27.6444 38.9538 27.5442L38.9635 27.541Z" fill="black"/>
<path d="M58.1617 27.541C58.1617 27.541 58.1552 27.5345 58.152 27.5313L58.2783 27.6961C58.2783 27.6961 58.2654 27.68 58.2621 27.667L58.3431 27.8609C58.3431 27.8609 58.3334 27.8351 58.3334 27.8221L58.3626 28.0354C58.3626 28.0354 58.3626 28.0064 58.3626 27.9934L58.3334 28.2067C58.3334 28.2067 58.3399 28.1809 58.3431 28.1679L58.2621 28.3619C58.3237 28.2197 58.3885 28.1065 58.3755 27.945C58.3755 27.9417 58.3755 27.9353 58.3755 27.932C58.3755 27.7866 58.3399 27.6541 58.2654 27.5281C58.2136 27.4343 58.1455 27.36 58.0581 27.3051C57.9803 27.234 57.8896 27.1855 57.7859 27.1629C57.6434 27.1241 57.5008 27.1241 57.3615 27.1629C57.3291 27.1758 57.2967 27.1887 57.2643 27.2049C57.2319 27.2178 57.1995 27.2307 57.1671 27.2469C57.1671 27.2469 57.1639 27.2469 57.1607 27.2469C57.1574 27.2469 57.1574 27.2469 57.1542 27.2469L56.989 27.3729C56.9339 27.4214 56.8918 27.4764 56.8626 27.5378C56.8302 27.6089 56.7946 27.68 56.7719 27.7543C56.7492 27.8286 56.746 27.9223 56.7395 27.9934C56.7395 28.0031 56.7395 28.0128 56.7395 28.0225C56.7427 28.1033 56.7557 28.1841 56.7719 28.2617C56.7719 28.2714 56.7751 28.2778 56.7784 28.2875C56.8399 28.4523 56.882 28.5558 57.0116 28.685C57.0861 28.7626 57.1704 28.8208 57.2708 28.8531C57.368 28.9048 57.4717 28.9274 57.5818 28.9242C57.692 28.9274 57.7989 28.9048 57.8928 28.8531C57.9933 28.8208 58.0807 28.7658 58.152 28.685L58.2783 28.5202C58.3529 28.3942 58.3885 28.2584 58.3885 28.113L58.3593 27.8997C58.3205 27.764 58.2524 27.6444 58.152 27.5442L58.1617 27.541Z" fill="black"/>
</g>
<defs>
<clipPath id="clip0_126_8483">
<rect width="101" height="121" fill="white"/>
</clipPath>
</defs>
</svg>
